# Blender v3.2.2 OBJ File: 'lvl_7.blend'
# www.blender.org
mtllib lvl_7_Thrusters.mtl
o TopGunHolder.001_Cube.011
v 11.732087 1.381031 -8.634053
v 12.335379 1.509738 -9.139749
v 12.332111 1.509739 -6.087070
v 11.729904 1.381032 -6.594057
v 9.509257 1.780747 -8.036896
v 9.508420 1.753076 -7.196181
v 9.462377 1.551937 -8.604402
v 10.009447 1.516685 -8.485867
v 9.462563 1.600093 -8.778141
v 10.835969 1.649753 -9.141354
v 9.460076 1.600094 -6.454826
v 10.832703 1.649753 -6.088675
v 9.460262 1.551938 -6.628566
v 10.007586 1.516685 -6.745930
v 9.460089 1.716559 -6.466503
v 16.521341 1.511860 -8.515701
v 14.931708 1.509738 -9.136971
v 14.931167 1.381031 -8.630630
v 16.519400 1.511861 -6.702127
v 14.928984 1.381032 -6.590633
v 14.928442 1.509739 -6.084292
v 12.131220 2.463500 -6.088171
v 12.134486 2.458996 -9.140882
v 9.554170 2.170299 -6.785827
v 9.486464 2.092333 -6.577433
v 10.887523 2.108628 -6.088602
v 9.486771 2.083858 -8.574822
v 10.890789 2.104125 -9.141313
v 9.555899 2.168164 -8.446671
v 9.467348 1.793078 -8.674564
v 16.333920 2.242105 -6.676705
v 15.188644 2.523250 -6.084881
v 16.335915 2.237594 -8.541925
v 15.191912 2.518747 -9.137591
v 9.495411 1.717625 -7.123452
v 9.496465 1.745159 -8.107420
v 9.566988 2.234706 -6.733026
v 9.465145 1.740240 -6.556671
v 9.484916 2.086864 -6.657831
v 9.568879 2.232100 -8.500031
v 9.488687 2.089268 -8.655190
v 9.462549 1.768622 -8.764784
v 9.528875 1.750294 -6.576828
v 9.548623 2.065413 -6.657722
v 9.572127 1.756591 -7.196073
v 9.572966 1.786601 -8.036786
v 9.617877 2.148848 -6.785717
v 9.619606 2.146713 -8.446562
v 9.550479 2.062407 -8.574713
v 9.531034 1.810361 -8.654189
v 11.730995 1.381031 9.037203
v 12.333744 1.509739 9.543545
v 12.333744 1.509739 6.490864
v 11.730995 1.381032 6.997205
v 9.508805 1.780747 8.437666
v 9.508867 1.753076 7.596952
v 9.461317 1.551938 9.005123
v 10.008514 1.516685 8.887173
v 9.461317 1.600093 9.178862
v 10.834334 1.649753 9.543545
v 9.461317 1.600094 6.855547
v 10.834334 1.649753 6.490864
v 9.461317 1.551938 7.029286
v 10.008514 1.516685 7.147236
v 9.461317 1.716559 6.867224
v 16.520372 1.511861 8.923975
v 14.930076 1.509739 9.543543
v 14.930076 1.381031 9.037203
v 16.520372 1.511861 7.110399
v 14.930076 1.381032 6.997206
v 14.930076 1.509739 6.490865
v 12.132852 2.463500 6.491751
v 12.132852 2.458997 9.544462
v 9.555056 2.170299 7.186647
v 9.487573 2.092333 6.978181
v 10.889154 2.108628 6.490849
v 9.485743 2.083858 8.975571
v 10.889154 2.104125 9.543562
v 9.555008 2.168165 8.847492
v 9.466213 1.793078 9.075291
v 16.334919 2.242106 7.084782
v 15.190278 2.523250 6.491732
v 16.334919 2.237594 8.950003
v 15.190278 2.518747 9.544443
v 9.495936 1.717625 7.524209
v 9.495936 1.745159 8.508177
v 9.567931 2.234707 7.133861
v 9.466277 1.740240 6.957396
v 9.485939 2.086864 7.058578
v 9.567931 2.232100 8.900867
v 9.487573 2.089268 9.055941
v 9.461318 1.768622 9.165504
v 9.529984 1.750294 6.977622
v 9.549646 2.065413 7.058537
v 9.572575 1.756591 7.596912
v 9.572513 1.786601 8.437626
v 9.618764 2.148848 7.186607
v 9.618715 2.146714 8.847450
v 9.549451 2.062407 8.975531
v 9.529921 1.810361 9.054985
vt 0.666467 0.543655
vt 0.563834 0.544758
vt 0.561437 0.716457
vt 0.666467 0.750000
vt 0.625000 0.791467
vt 0.478409 0.742100
vt 0.530136 0.791467
vt 0.833533 0.750000
vt 0.833533 0.543655
vt 0.527603 0.311289
vt 0.532270 0.435030
vt 0.527603 0.311289
vt 0.527603 0.438711
vt 0.530136 0.958533
vt 0.625000 0.958533
vt 0.478409 0.742100
vt 0.561437 0.716457
vt 0.563834 0.544758
vt 0.564459 0.250000
vt 0.561437 0.033543
vt 0.478409 0.007900
vt 0.431677 0.960011
vt 0.460731 0.993056
vt 0.500000 0.958533
vt 0.443101 0.946243
vt 0.443101 0.803757
vt 0.431677 0.789988
vt 0.530136 0.000000
vt 0.625000 0.000000
vt 0.625000 0.291467
vt 0.564459 0.500000
vt 0.625000 0.458533
vt 0.532270 0.314970
vt 0.563834 0.205242
vt 0.625000 0.206345
vt 0.564459 0.250000
vt 0.561437 0.033543
vt 0.478409 0.007900
vt 0.443101 0.946243
vt 0.443101 0.803757
vt 0.431677 0.789988
vt 0.431677 0.960011
vt 0.000000 0.000000
vt 0.000000 0.000000
vt 0.000000 0.000000
vt 0.412770 0.764769
vt 0.412770 0.764769
vt 0.046567 0.140416
vt 0.046567 0.140416
vt 0.000000 0.000000
vt 0.000000 0.000000
vt 0.000000 0.000000
vt 0.000000 0.000000
vt 0.000000 0.000000
vt 0.291617 0.654248
vt 0.354319 0.750000
vt 0.145681 0.750000
vt 0.151615 0.652517
vt 0.064035 0.143224
vt 0.433762 0.923928
vt 0.412841 0.905093
vt 0.433730 0.800443
vt 0.433730 0.800443
vt 0.291617 0.654248
vt 0.064035 0.143224
vt 0.412841 0.905093
vt 0.151615 0.652517
vt 0.433762 0.923928
vt 0.666467 0.543655
vt 0.563834 0.544758
vt 0.561437 0.716457
vt 0.666467 0.750000
vt 0.625000 0.791467
vt 0.478409 0.742100
vt 0.530136 0.791467
vt 0.833533 0.750000
vt 0.833533 0.543655
vt 0.527603 0.311289
vt 0.532270 0.435030
vt 0.527603 0.311289
vt 0.527603 0.438711
vt 0.530136 0.958533
vt 0.625000 0.958533
vt 0.478409 0.742100
vt 0.561437 0.716457
vt 0.563834 0.544758
vt 0.564459 0.250000
vt 0.561437 0.033543
vt 0.478409 0.007900
vt 0.431677 0.960011
vt 0.460731 0.993056
vt 0.500000 0.958533
vt 0.443101 0.946243
vt 0.443101 0.803757
vt 0.431677 0.789988
vt 0.530136 0.000000
vt 0.625000 0.000000
vt 0.625000 0.291467
vt 0.564459 0.500000
vt 0.625000 0.458533
vt 0.532270 0.314970
vt 0.563834 0.205242
vt 0.625000 0.206345
vt 0.564459 0.250000
vt 0.561437 0.033543
vt 0.478409 0.007900
vt 0.443101 0.946243
vt 0.443101 0.803757
vt 0.431677 0.789988
vt 0.431677 0.960011
vt 0.000000 0.000000
vt 0.000000 0.000000
vt 0.000000 0.000000
vt 0.412770 0.764769
vt 0.412770 0.764769
vt 0.046567 0.140416
vt 0.046567 0.140416
vt 0.000000 0.000000
vt 0.000000 0.000000
vt 0.000000 0.000000
vt 0.000000 0.000000
vt 0.000000 0.000000
vt 0.291617 0.654248
vt 0.354319 0.750000
vt 0.145681 0.750000
vt 0.151615 0.652517
vt 0.064035 0.143224
vt 0.433762 0.923928
vt 0.412841 0.905093
vt 0.433730 0.800443
vt 0.433730 0.800443
vt 0.291617 0.654248
vt 0.064035 0.143224
vt 0.412841 0.905093
vt 0.151615 0.652517
vt 0.433762 0.923928
vn -0.0003 -0.9692 0.2464
vn -0.0961 -0.9394 0.3290
vn -0.0000 -1.0000 0.0000
vn 0.9691 0.2469 0.0007
vn -0.0785 -0.9969 -0.0001
vn 0.0010 -0.0009 -1.0000
vn -0.0226 -0.9717 -0.2349
vn -0.0231 -0.9717 0.2349
vn -0.0643 -0.9979 -0.0001
vn -0.0954 -0.9394 -0.3292
vn 0.0971 -0.9646 -0.2451
vn 0.0965 -0.9646 0.2453
vn 0.0820 -0.9966 0.0001
vn 0.0003 -0.9692 -0.2464
vn -0.0010 0.0008 1.0000
vn 0.2385 0.9711 -0.0015
vn -0.0195 0.9998 -0.0015
vn 0.0885 -0.9961 0.0016
vn 0.2179 -0.7679 0.6024
vn 0.2189 -0.7700 -0.5993
vn -0.2884 0.1470 0.9462
vn 0.4038 -0.0316 -0.9143
vn 0.4016 -0.0302 0.9153
vn -0.2575 0.0763 -0.9633
vn -0.2872 0.1635 -0.9438
vn 0.1610 0.2990 -0.9406
vn -0.9907 0.1358 0.0022
vn 0.9398 -0.3416 -0.0094
vn 0.9883 -0.1410 0.0584
vn 0.8934 -0.4302 0.1293
vn 0.8933 -0.4320 -0.1245
vn 0.9804 -0.1971 0.0013
vn 0.9974 -0.0713 -0.0089
vn 0.9902 -0.1256 -0.0614
vn 0.9981 -0.0596 0.0142
vn 0.2506 0.7412 -0.6228
vn 0.1046 -0.9945 -0.0079
vn 0.1723 0.2517 0.9523
vn 0.1849 -0.9819 -0.0406
vn 0.3191 0.9477 -0.0009
vn 0.2494 0.7440 0.6199
vn 0.0733 -0.9967 -0.0341
vn -0.0000 0.9692 0.2464
vn 0.0957 0.9394 0.3291
vn 0.0000 1.0000 0.0000
vn -0.9691 -0.2469 -0.0003
vn 0.0785 0.9969 0.0000
vn 0.0001 0.0009 -1.0000
vn 0.0229 0.9717 -0.2349
vn 0.0229 0.9717 0.2349
vn 0.0643 0.9979 0.0000
vn 0.0957 0.9394 -0.3291
vn -0.0968 0.9646 -0.2452
vn -0.0968 0.9646 0.2452
vn -0.0820 0.9966 0.0000
vn -0.0000 0.9692 -0.2464
vn -0.0001 -0.0008 1.0000
vn -0.2385 -0.9711 -0.0018
vn 0.0195 -0.9998 -0.0015
vn -0.0885 0.9961 0.0015
vn -0.2185 0.7679 0.6022
vn -0.2183 0.7700 -0.5995
vn 0.2873 -0.1470 0.9465
vn -0.4028 0.0316 -0.9147
vn -0.4026 0.0302 0.9149
vn 0.2585 -0.0763 -0.9630
vn 0.2882 -0.1635 -0.9435
vn -0.1600 -0.2990 -0.9407
vn 0.9907 -0.1358 0.0033
vn -0.9398 0.3416 -0.0104
vn -0.9883 0.1411 0.0573
vn -0.8936 0.4302 0.1284
vn -0.8931 0.4320 -0.1254
vn -0.9804 0.1971 0.0003
vn -0.9974 0.0713 -0.0100
vn -0.9901 0.1256 -0.0625
vn -0.9981 0.0596 0.0131
vn -0.2500 -0.7412 -0.6230
vn -0.1046 0.9945 -0.0080
vn -0.1734 -0.2517 0.9521
vn -0.1848 0.9819 -0.0408
vn -0.3191 -0.9477 -0.0012
vn -0.2501 -0.7440 0.6197
vn -0.0733 0.9967 -0.0342
usemtl None
s off
f 20/1/1 21/2/1 3/3/1 4/4/1
f 4/5/2 3/3/2 12/6/2 14/7/2
f 20/1/3 4/4/3 1/8/3 18/9/3
f 31/10/4 19/11/4 16/12/4 33/13/4
f 14/7/5 8/14/5 1/15/5 4/5/5
f 28/16/6 23/17/6 34/18/6 17/19/6 2/20/6 10/21/6
f 9/22/7 10/23/7 8/24/7 7/25/7
f 13/26/8 14/7/8 12/6/8 11/27/8
f 7/25/9 8/14/9 14/7/9 13/26/9
f 8/28/10 10/21/10 2/20/10 1/29/10
f 16/12/11 18/30/11 17/19/11
f 19/11/12 21/31/12 20/32/12
f 19/11/13 20/32/13 18/30/13 16/33/13
f 1/29/14 2/20/14 17/34/14 18/35/14
f 12/6/15 3/3/15 21/31/15 32/36/15 22/37/15 26/38/15
f 31/10/16 33/13/16 34/18/16 32/36/16
f 32/36/17 34/18/17 23/17/17 22/37/17
f 37/39/18 40/40/18 23/17/18 22/37/18
f 40/40/19 41/41/19 28/16/19 23/17/19
f 25/42/20 37/39/20 22/37/20 26/38/20
f 11/43/21 12/6/21 26/38/21 25/42/21 15/44/21
f 34/18/22 33/13/22 16/12/22 17/19/22
f 21/31/23 19/11/23 31/10/23 32/36/23
f 10/23/24 9/22/24 42/45/24
f 10/23/25 42/45/25 41/41/25 28/16/25
f 27/46/26 49/47/26 50/48/26 30/49/26
f 35/50/27 36/51/27 42/45/27 9/52/27 7/53/27 13/54/27 11/43/27 15/44/27
f 6/55/28 35/56/28 36/57/28 5/58/28
f 38/59/29 15/44/29 35/56/29 6/55/29
f 24/60/30 37/39/30 25/42/30 39/61/30
f 27/46/31 41/41/31 40/40/31 29/62/31
f 29/62/32 40/40/32 37/39/32 24/60/32
f 30/49/33 42/45/33 41/41/33 27/46/33
f 5/58/34 36/57/34 42/45/34 30/49/34
f 39/61/35 25/42/35 15/44/35 38/59/35
f 29/62/36 48/63/36 49/47/36 27/46/36
f 6/55/37 45/64/37 43/65/37 38/59/37
f 38/59/38 43/65/38 44/66/38 39/61/38
f 30/49/39 50/48/39 46/67/39 5/58/39
f 24/60/40 47/68/40 48/63/40 29/62/40
f 39/61/41 44/66/41 47/68/41 24/60/41
f 5/58/42 46/67/42 45/64/42 6/55/42
f 70/69/43 71/70/43 53/71/43 54/72/43
f 54/73/44 53/71/44 62/74/44 64/75/44
f 70/69/45 54/72/45 51/76/45 68/77/45
f 81/78/46 69/79/46 66/80/46 83/81/46
f 64/75/47 58/82/47 51/83/47 54/73/47
f 78/84/48 73/85/48 84/86/48 67/87/48 52/88/48 60/89/48
f 59/90/49 60/91/49 58/92/49 57/93/49
f 63/94/50 64/75/50 62/74/50 61/95/50
f 57/93/51 58/82/51 64/75/51 63/94/51
f 58/96/52 60/89/52 52/88/52 51/97/52
f 66/80/53 68/98/53 67/87/53
f 69/79/54 71/99/54 70/100/54
f 69/79/55 70/100/55 68/98/55 66/101/55
f 51/97/56 52/88/56 67/102/56 68/103/56
f 62/74/57 53/71/57 71/99/57 82/104/57 72/105/57 76/106/57
f 81/78/58 83/81/58 84/86/58 82/104/58
f 82/104/59 84/86/59 73/85/59 72/105/59
f 87/107/60 90/108/60 73/85/60 72/105/60
f 90/108/61 91/109/61 78/84/61 73/85/61
f 75/110/62 87/107/62 72/105/62 76/106/62
f 61/111/63 62/74/63 76/106/63 75/110/63 65/112/63
f 84/86/64 83/81/64 66/80/64 67/87/64
f 71/99/65 69/79/65 81/78/65 82/104/65
f 60/91/66 59/90/66 92/113/66
f 60/91/67 92/113/67 91/109/67 78/84/67
f 77/114/68 99/115/68 100/116/68 80/117/68
f 85/118/69 86/119/69 92/113/69 59/120/69 57/121/69 63/122/69 61/111/69 65/112/69
f 56/123/70 85/124/70 86/125/70 55/126/70
f 88/127/71 65/112/71 85/124/71 56/123/71
f 74/128/72 87/107/72 75/110/72 89/129/72
f 77/114/73 91/109/73 90/108/73 79/130/73
f 79/130/74 90/108/74 87/107/74 74/128/74
f 80/117/75 92/113/75 91/109/75 77/114/75
f 55/126/76 86/125/76 92/113/76 80/117/76
f 89/129/77 75/110/77 65/112/77 88/127/77
f 79/130/78 98/131/78 99/115/78 77/114/78
f 56/123/79 95/132/79 93/133/79 88/127/79
f 88/127/80 93/133/80 94/134/80 89/129/80
f 80/117/81 100/116/81 96/135/81 55/126/81
f 74/128/82 97/136/82 98/131/82 79/130/82
f 89/129/83 94/134/83 97/136/83 74/128/83
f 55/126/84 96/135/84 95/132/84 56/123/84
