# Blender v3.2.2 OBJ File: 'lvl_7.blend'
# www.blender.org
mtllib lvl_7_Center_Back.mtl
o CenterBack_Cube.005
v 5.459301 0.095020 4.028132
v 5.835419 2.670768 4.028132
v 5.459301 0.095020 -3.595725
v 5.835419 2.670768 -3.595725
v 13.157490 -0.830110 5.949911
v 13.157490 2.819533 5.949911
v 13.157490 -0.830110 -5.517504
v 13.157490 2.819533 -5.517504
v 10.729604 2.851783 -4.713952
v 10.787107 -1.078872 -4.713952
v 14.408698 -0.725413 -4.836048
v 14.408698 2.278936 5.268455
v 14.408698 -0.725413 5.268455
v 14.408698 2.278936 -4.836048
v 10.787107 -1.078872 5.146359
v 10.729604 2.851783 5.146359
v 4.038353 2.386432 -2.564376
v 4.038353 2.386432 2.996783
v 4.038353 0.300785 2.996783
v 4.038353 0.300785 -2.564376
v 4.038353 0.095020 3.175962
v 4.038353 2.592197 3.175962
v 4.038353 2.592197 -2.743555
v 4.038353 0.095020 -2.743555
v 4.174151 0.300785 2.996783
v 4.174151 2.386432 2.996783
v 4.174151 2.386432 -2.564376
v 4.174151 0.300785 -2.564376
vt 0.375000 0.375000
vt 0.625000 0.375000
vt 0.625000 0.500000
vt 0.375000 0.500000
vt 0.375000 0.687500
vt 0.625000 0.687500
vt 0.625000 0.750000
vt 0.375000 0.750000
vt 0.375000 0.875000
vt 0.625000 0.875000
vt 0.625000 1.000000
vt 0.375000 1.000000
vt 0.625000 0.562500
vt 0.375000 0.562500
vt 0.375000 0.250000
vt 0.625000 0.250000
vt 0.000000 0.000000
vt 0.000000 0.000000
vt 0.000000 0.000000
vt 0.000000 0.000000
vt 0.000000 0.000000
vt 0.000000 0.000000
vt 0.000000 0.000000
vt 0.000000 0.000000
vt 0.000000 0.000000
vt 0.000000 0.000000
vt 0.000000 0.000000
vt 0.000000 0.000000
vn -0.3175 -0.0024 -0.9483
vn 0.4783 0.0000 0.8782
vn -0.2128 0.0104 0.9770
vn -0.3175 -0.0024 0.9483
vn 0.4783 0.0000 -0.8782
vn -0.2128 0.0104 -0.9770
vn 0.0133 0.9999 0.0000
vn 0.3966 0.9180 0.0000
vn -0.4684 0.0347 -0.8828
vn -0.4684 0.0347 0.8828
vn 0.0000 1.0000 0.0000
vn -0.0384 0.9993 0.0000
vn 0.0971 -0.9953 -0.0000
vn 1.0000 0.0000 0.0000
vn -0.1796 -0.9837 -0.0000
vn -1.0000 0.0000 0.0000
vn 0.0000 0.0000 -1.0000
vn 0.0000 -1.0000 0.0000
vn 0.0000 0.0000 1.0000
usemtl None
s off
f 10/1/1 9/2/1 8/3/1 7/4/1
f 13/5/2 12/6/2 6/7/2 5/8/2
f 15/9/3 16/10/3 2/11/3 1/12/3
f 5/8/4 6/7/4 16/10/4 15/9/4
f 7/4/5 8/3/5 14/13/5 11/14/5
f 3/15/6 4/16/6 9/2/6 10/1/6
f 9/2/7 16/10/7 6/7/7 8/3/7
f 12/6/8 14/13/8 8/3/8 6/7/8
f 23/17/9 4/16/9 3/15/9 24/18/9
f 21/19/10 1/12/10 2/11/10 22/20/10
f 20/21/11 19/22/11 25/23/11 28/24/11
f 23/17/12 22/20/12 2/11/12 16/10/12 9/2/12 4/16/12
f 11/14/13 13/5/13 5/8/13 15/9/13 10/1/13 7/4/13
f 12/6/14 13/5/14 11/14/14 14/13/14
f 21/19/15 24/18/15 3/15/15 10/1/15 15/9/15 1/12/15
f 18/25/16 19/22/16 21/19/16 22/20/16
f 20/21/16 17/26/16 23/17/16 24/18/16
f 19/22/16 20/21/16 24/18/16 21/19/16
f 17/26/16 18/25/16 22/20/16 23/17/16
f 19/22/17 18/25/17 26/27/17 25/23/17
f 18/25/18 17/26/18 27/28/18 26/27/18
f 17/26/19 20/21/19 28/24/19 27/28/19
