# Blender v3.2.2 OBJ File: 'lvl_7.blend'
# www.blender.org
mtllib lvl_7_back_thruster.mtl
o Thruster_Cube.006
v 14.053516 -0.750325 2.310178
v 14.053516 -0.750325 -1.877771
v 14.448784 2.335486 2.310178
v 14.448784 2.335486 -1.877771
v 15.288822 -0.750325 2.310178
v 15.288822 -0.750325 -1.877771
v 15.684091 2.335486 2.310178
v 15.684091 2.335486 -1.877771
vt 0.375000 0.500000
vt 0.542923 0.500000
vt 0.542923 0.750000
vt 0.375000 0.750000
vt 0.375000 0.500000
vt 0.542923 0.500000
vt 0.542923 0.750000
vt 0.375000 0.750000
vn 0.9919 -0.1271 -0.0000
vn 0.0000 -1.0000 -0.0000
vn 0.0000 0.0000 1.0000
vn 0.0000 0.0000 -1.0000
vn 0.0000 1.0000 0.0000
usemtl None
s off
f 2/1/1 4/2/1 3/3/1 1/4/1
f 6/5/1 8/6/1 7/7/1 5/8/1
f 4/2/2 8/6/2 7/7/2 3/3/2
f 2/1/3 6/5/3 8/6/3 4/2/3
f 3/3/4 7/7/4 5/8/4 1/4/4
f 1/4/5 5/8/5 6/5/5 2/1/5
