# Blender v3.2.2 OBJ File: 'lvl_7.blend'
# www.blender.org
mtllib lvl_7_Wing_Bumpers.mtl
o Outer_Wing_Accent_Cube.016
v 6.530711 -1.026199 -5.414028
v 6.530711 -0.620113 -6.454495
v 6.530711 0.620107 -6.454496
v 6.530711 1.026194 -5.414028
v -7.869094 -0.620111 -2.673122
v -4.673335 -1.026199 -2.673123
v -4.673335 1.026195 -2.673122
v -7.869094 0.620108 -2.673122
v -4.673335 -1.026199 -3.416071
v -7.869094 -0.620112 -3.782863
v -0.396868 -1.026199 -5.101353
v -2.092457 -0.620113 -6.059335
v -0.396869 1.026194 -5.101353
v -2.092457 0.620107 -6.059335
v -4.673335 1.026195 -3.416073
v -7.869094 0.620107 -3.782863
v 6.308557 -0.998880 -5.388279
v 6.308557 -0.603604 -6.401047
v 6.308557 0.603599 -6.401048
v 6.308557 0.998875 -5.388280
v -7.707899 -0.603603 -2.720342
v -4.597217 -0.998879 -2.720342
v -4.597217 0.998875 -2.720342
v -7.707899 0.603599 -2.720342
v -4.597217 -0.998879 -3.443512
v -7.707899 -0.603603 -3.800538
v -0.434598 -0.998880 -5.083928
v -2.085046 -0.603604 -6.016406
v -0.434598 0.998875 -5.083926
v -2.085046 0.603599 -6.016407
v -4.597217 0.998875 -3.443513
v -7.707899 0.603599 -3.800538
v 6.530711 1.026197 5.494918
v 6.530711 0.620110 6.535386
v 6.530711 -0.620110 6.535387
v 6.530711 -1.026196 5.494919
v -7.869094 0.620109 2.754013
v -4.673335 1.026197 2.754013
v -4.673335 -1.026197 2.754013
v -7.869094 -0.620109 2.754014
v -4.673335 1.026197 3.496962
v -7.869094 0.620110 3.863753
v -0.396868 1.026197 5.182243
v -2.092457 0.620110 6.140225
v -0.396869 -1.026196 5.182242
v -2.092457 -0.620110 6.140225
v -4.673335 -1.026197 3.496963
v -7.869094 -0.620109 3.863753
v 6.308557 0.998877 5.469170
v 6.308557 0.603602 6.481937
v 6.308557 -0.603602 6.481938
v 6.308557 -0.998877 5.469170
v -7.707899 0.603601 2.801232
v -4.597217 0.998877 2.801232
v -4.597217 -0.998877 2.801232
v -7.707899 -0.603601 2.801232
v -4.597217 0.998877 3.524402
v -7.707899 0.603601 3.881428
v -0.434598 0.998877 5.164818
v -2.085046 0.603601 6.097297
v -0.434598 -0.998877 5.164817
v -2.085046 -0.603601 6.097297
v -4.597217 -0.998878 3.524403
v -7.707899 -0.603601 3.881429
vt 0.424465 0.174891
vt 0.575535 0.174891
vt 0.575535 0.250000
vt 0.424465 0.250000
vt 0.424465 0.750000
vt 0.575535 0.750000
vt 0.575535 0.825109
vt 0.424465 0.825109
vt 0.424465 0.000000
vt 0.575535 0.000000
vt 0.375000 0.153068
vt 0.375000 0.023595
vt 0.707733 0.672826
vt 0.811090 0.551965
vt 0.874659 0.575451
vt 0.700109 0.750000
vt 0.375000 0.250000
vt 0.375000 0.199716
vt 0.817521 0.500000
vt 0.875000 0.500501
vt 0.875000 0.575109
vt 0.375000 0.813846
vt 0.375000 0.754415
vt 0.625000 0.681211
vt 0.625000 0.750000
vt 0.424465 0.174891
vt 0.575535 0.174891
vt 0.575535 0.250000
vt 0.424465 0.250000
vt 0.424465 0.750000
vt 0.575535 0.750000
vt 0.575535 0.825109
vt 0.424465 0.825109
vt 0.424465 0.000000
vt 0.575535 0.000000
vt 0.375000 0.153068
vt 0.375000 0.023595
vt 0.707733 0.672826
vt 0.811090 0.551965
vt 0.874659 0.575451
vt 0.700109 0.750000
vt 0.375000 0.250000
vt 0.375000 0.199716
vt 0.817521 0.500000
vt 0.875000 0.500501
vt 0.875000 0.575109
vt 0.375000 0.813846
vt 0.375000 0.754415
vt 0.625000 0.681211
vt 0.625000 0.750000
vt 0.424465 0.174891
vt 0.575535 0.174891
vt 0.575535 0.250000
vt 0.424465 0.250000
vt 0.424465 0.750000
vt 0.575535 0.750000
vt 0.575535 0.825109
vt 0.424465 0.825109
vt 0.424465 0.000000
vt 0.575535 0.000000
vt 0.375000 0.153068
vt 0.375000 0.023595
vt 0.707733 0.672826
vt 0.811090 0.551965
vt 0.874659 0.575451
vt 0.700109 0.750000
vt 0.375000 0.250000
vt 0.375000 0.199716
vt 0.817521 0.500000
vt 0.875000 0.500501
vt 0.875000 0.575109
vt 0.375000 0.813846
vt 0.375000 0.754415
vt 0.625000 0.681211
vt 0.625000 0.750000
vt 0.424465 0.174891
vt 0.575535 0.174891
vt 0.575535 0.250000
vt 0.424465 0.250000
vt 0.424465 0.750000
vt 0.575535 0.750000
vt 0.575535 0.825109
vt 0.424465 0.825109
vt 0.424465 0.000000
vt 0.575535 0.000000
vt 0.375000 0.153068
vt 0.375000 0.023595
vt 0.707733 0.672826
vt 0.811090 0.551965
vt 0.874659 0.575451
vt 0.700109 0.750000
vt 0.375000 0.250000
vt 0.375000 0.199716
vt 0.817521 0.500000
vt 0.875000 0.500501
vt 0.875000 0.575109
vt 0.375000 0.813846
vt 0.375000 0.754415
vt 0.625000 0.681211
vt 0.625000 0.750000
vn -1.0000 0.0000 0.0000
vn -0.0458 -0.0000 -0.9990
vn -0.3666 0.0000 -0.9304
vn -0.0950 0.9658 -0.2412
vn -0.0950 -0.9658 -0.2412
vn -0.1261 0.9920 -0.0000
vn -0.1261 -0.9920 0.0000
vn -0.0166 0.9311 -0.3643
vn -0.0166 -0.9311 -0.3643
vn 0.1548 0.9203 0.3592
vn 0.2339 0.0000 0.9723
vn 0.1548 -0.9203 0.3592
vn 0.0391 0.4984 0.8661
vn 0.3653 0.0868 0.9269
vn 0.3378 0.9412 -0.0000
vn 0.3378 -0.9412 0.0000
vn 0.3653 -0.0867 0.9269
vn 0.0391 -0.4984 0.8661
vn 0.0995 0.7833 0.6136
vn 0.2811 0.0000 0.9597
vn 0.0995 -0.7833 0.6136
vn -0.0458 0.0000 0.9990
vn -0.3666 0.0000 0.9304
vn -0.0950 -0.9658 0.2412
vn -0.0950 0.9658 0.2412
vn -0.0166 -0.9311 0.3643
vn -0.0166 0.9311 0.3643
vn 0.1548 -0.9203 -0.3592
vn 0.2339 -0.0000 -0.9723
vn 0.1548 0.9203 -0.3592
vn 0.0391 -0.4984 -0.8661
vn 0.3653 -0.0867 -0.9269
vn 0.3653 0.0867 -0.9269
vn 0.0391 0.4984 -0.8661
vn 0.0995 -0.7833 -0.6136
vn 0.2811 -0.0000 -0.9597
vn 0.0995 0.7833 -0.6136
usemtl Material
s off
f 16/1/1 10/2/1 5/3/1 8/4/1
f 3/5/2 2/6/2 12/7/2 14/8/2
f 14/9/3 12/10/3 10/2/3 16/1/3
f 15/11/4 13/12/4 14/9/4 16/1/4
f 11/13/5 9/14/5 10/15/5 12/16/5
f 7/17/6 15/18/6 16/1/6 8/4/6
f 9/14/7 6/19/7 5/20/7 10/21/7
f 13/22/8 4/23/8 3/5/8 14/8/8
f 1/24/9 11/13/9 12/16/9 2/25/9
f 32/26/1 26/27/1 21/28/1 24/29/1
f 19/30/2 18/31/2 28/32/2 30/33/2
f 30/34/3 28/35/3 26/27/3 32/26/3
f 31/36/4 29/37/4 30/34/4 32/26/4
f 27/38/5 25/39/5 26/40/5 28/41/5
f 23/42/6 31/43/6 32/26/6 24/29/6
f 25/39/7 22/44/7 21/45/7 26/46/7
f 29/47/8 20/48/8 19/30/8 30/33/8
f 17/49/9 27/38/9 28/41/9 18/50/9
f 2/25/10 18/50/10 17/49/10 1/24/10
f 3/5/11 19/30/11 18/31/11 2/25/11
f 4/23/12 20/48/12 19/30/12 3/5/12
f 13/22/13 29/47/13 20/48/13 4/23/13
f 15/11/14 31/36/14 29/37/14 13/22/14
f 7/17/15 23/42/15 31/43/15 15/11/15
f 9/14/16 25/39/16 22/44/16 6/19/16
f 11/13/17 27/38/17 25/39/17 9/14/17
f 1/24/18 17/49/18 27/38/18 11/13/18
f 6/19/19 22/44/19 21/45/19 5/20/19
f 5/20/20 21/45/20 24/29/20 8/4/20
f 8/4/21 24/29/21 23/42/21 7/17/21
f 48/51/1 42/52/1 37/53/1 40/54/1
f 35/55/22 34/56/22 44/57/22 46/58/22
f 46/59/23 44/60/23 42/52/23 48/51/23
f 47/61/24 45/62/24 46/59/24 48/51/24
f 43/63/25 41/64/25 42/65/25 44/66/25
f 39/67/7 47/68/7 48/51/7 40/54/7
f 41/64/6 38/69/6 37/70/6 42/71/6
f 45/72/26 36/73/26 35/55/26 46/58/26
f 33/74/27 43/63/27 44/66/27 34/75/27
f 64/76/1 58/77/1 53/78/1 56/79/1
f 51/80/22 50/81/22 60/82/22 62/83/22
f 62/84/23 60/85/23 58/77/23 64/76/23
f 63/86/24 61/87/24 62/84/24 64/76/24
f 59/88/25 57/89/25 58/90/25 60/91/25
f 55/92/7 63/93/7 64/76/7 56/79/7
f 57/89/6 54/94/6 53/95/6 58/96/6
f 61/97/26 52/98/26 51/80/26 62/83/26
f 49/99/27 59/88/27 60/91/27 50/100/27
f 34/75/28 50/100/28 49/99/28 33/74/28
f 35/55/29 51/80/29 50/81/29 34/75/29
f 36/73/30 52/98/30 51/80/30 35/55/30
f 45/72/31 61/97/31 52/98/31 36/73/31
f 47/61/32 63/86/32 61/87/32 45/72/32
f 39/67/16 55/92/16 63/93/16 47/61/16
f 41/64/15 57/89/15 54/94/15 38/69/15
f 43/63/33 59/88/33 57/89/33 41/64/33
f 33/74/34 49/99/34 59/88/34 43/63/34
f 38/69/35 54/94/35 53/95/35 37/70/35
f 37/70/36 53/95/36 56/79/36 40/54/36
f 40/54/37 56/79/37 55/92/37 39/67/37
