# Blender v3.2.2 OBJ File: 'lvl_4_v2.blend'
# www.blender.org
mtllib lvl_4_back.mtl
o Back_Cube.003
v 2.992199 0.204924 3.847819
v 2.549220 1.682844 1.945850
v -2.992199 0.264097 3.847819
v -2.567719 1.682844 1.945850
v -2.535644 -0.736061 1.212271
v -2.535644 -0.914697 -4.173085
v 2.564491 -0.736061 1.212271
v 2.510561 -0.914697 -4.173085
v 2.433508 1.713628 -3.663794
v 2.717897 1.291872 -3.801915
v -2.560177 1.712259 -3.665487
v -2.743206 1.294136 -3.798772
v 2.637109 1.562464 0.816169
v 2.879332 0.744477 1.689031
v 2.911957 0.438814 1.169334
v -2.905169 0.783794 1.695882
v -2.931443 0.440110 1.169287
v -2.635010 1.558378 0.818410
v -2.608784 2.007826 -3.947181
v -3.056870 1.146663 -4.309458
v 2.471619 2.007826 -3.947181
v 3.033277 1.146663 -4.309458
v -3.375585 0.377642 2.707720
v -2.683455 1.838038 1.002912
v 3.356187 0.341157 2.699678
v 2.687995 1.838072 1.001855
vt 0.500000 0.250000
vt 0.625000 0.250000
vt 0.625000 0.500000
vt 0.500000 0.500000
vt 0.375000 0.500000
vt 0.500000 0.744869
vt 0.489169 0.750000
vt 0.375000 0.750000
vt 0.523248 0.508712
vt 0.601722 0.508891
vt 0.604803 0.735822
vt 0.520215 0.736155
vt 0.125000 0.500000
vt 0.125000 0.750000
vt 0.375000 0.250000
vt 0.571801 0.288123
vt 0.531043 0.015702
vt 0.611137 0.019957
vt 0.795371 0.436047
vt 0.375000 0.000000
vt 0.489295 0.000000
vt 0.500000 0.005094
vt 0.504427 0.000000
vt 0.616937 0.000000
vt 0.623998 0.005344
vt 0.510046 0.004328
vt 0.625000 0.750220
vt 0.625000 0.998626
vt 0.612509 0.994220
vt 0.612509 0.755780
vt 0.500000 0.755258
vt 0.625000 0.744618
vt 0.875000 0.500000
vt 0.873709 0.744667
vn 0.0000 0.3878 -0.9218
vn 0.9263 -0.3761 -0.0229
vn 0.9218 0.3876 -0.0066
vn 0.0000 -0.9995 0.0332
vn 0.0000 -0.0660 -0.9978
vn -0.9345 0.3560 0.0015
vn -0.9233 -0.3836 -0.0182
vn -0.7469 0.6129 0.2580
vn 0.0000 0.9867 0.1623
vn 0.7533 0.6019 0.2649
vn 0.0000 0.9994 0.0343
vn -0.8609 0.2538 0.4410
vn 0.8200 0.3706 0.4363
vn -0.5479 0.8341 0.0642
vn -0.9121 -0.0733 -0.4033
vn 0.9064 -0.0993 -0.4105
vn 0.9855 -0.1624 -0.0494
vn -0.9852 -0.1699 -0.0214
vn 0.5374 0.8404 0.0701
vn 0.0042 0.7956 0.6058
usemtl Material
s off
f 20/1/1 19/2/1 21/3/1 22/4/1
f 8/5/2 22/4/2 25/6/2 15/7/2 7/8/2
f 10/9/3 9/10/3 13/11/3 14/12/3
f 6/13/4 8/5/4 7/8/4 5/14/4
f 6/15/5 20/1/5 22/4/5 8/5/5
f 12/16/6 16/17/6 18/18/6 11/19/6
f 5/20/7 17/21/7 23/22/7 20/1/7 6/15/7
f 3/23/8 4/24/8 24/25/8 23/26/8
f 26/27/9 24/28/9 4/29/9 2/30/9
f 2/30/10 1/31/10 25/6/10 26/32/10
f 21/3/11 19/33/11 24/34/11 26/32/11
f 12/16/12 11/19/12 19/33/12 20/1/12
f 9/10/13 10/9/13 22/4/13 21/3/13
f 16/17/14 12/16/14 20/1/14 23/26/14
f 18/18/15 16/17/15 23/26/15 24/25/15
f 14/12/16 13/11/16 26/32/16 25/6/16
f 13/11/17 9/10/17 21/3/17 26/32/17
f 11/19/18 18/18/18 24/25/18 19/33/18
f 10/9/19 14/12/19 25/6/19 22/4/19
f 1/31/20 2/30/20 4/24/20 3/23/20
