# Blender v3.2.2 OBJ File: 'lvl_4_v2.blend'
# www.blender.org
mtllib lvl_4_wing_blades.mtl
o Ship.001_Cube.012
v -12.779232 0.001933 -3.954006
v -9.667848 0.257916 -3.958808
v -9.667848 -0.257916 -3.958808
v -12.779232 -0.001933 -3.954006
v -2.575127 0.304811 5.058200
v -2.377516 -0.194002 7.837961
v -2.535093 -0.533536 7.358743
v 9.546195 0.257916 -3.958808
v 12.779232 0.001933 -3.954006
v 12.779232 -0.001933 -3.954006
v 9.546195 -0.257916 -3.958808
v 2.430761 -0.206922 7.837359
v 2.575127 0.245638 5.058200
v 2.535093 -0.533536 7.358743
vt 0.625000 0.129855
vt 0.625000 0.251618
vt 0.501112 0.250000
vt 0.373930 0.376070
vt 0.375000 0.251618
vt 0.375000 0.129855
vt 0.375000 0.125000
vt 0.375000 0.250000
vt 0.375000 0.620145
vt 0.375000 0.498382
vt 0.498888 0.500000
vt 0.500535 0.625000
vt 0.626618 0.500000
vt 0.626618 0.621763
vt 0.499465 0.625000
vt 0.501112 0.500000
vn -0.1375 0.9829 0.1226
vn -0.1781 -0.9772 0.1154
vn 0.1664 -0.9805 0.1046
vn 0.1238 0.9858 0.1135
usemtl Material
s off
f 5/1/1 2/2/1 1/3/1 6/4/1
f 3/5/2 7/6/2 6/7/2 4/8/2
f 14/9/3 11/10/3 10/11/3 12/12/3
f 8/13/4 13/14/4 12/15/4 9/16/4
