# Blender v3.2.2 OBJ File: 'lvl_8.blend'
# www.blender.org
mtllib Back_Fins.mtl
o Back_Fins_Cube.023
v 25.005478 -0.416015 -11.939539
v 29.026649 -0.806683 -11.913578
v 25.005476 -2.763238 -11.939539
v 29.115915 -2.324028 -11.949489
v 25.005474 -0.466624 -12.743945
v 29.026648 -0.806683 -12.268329
v 25.005474 -2.377146 -12.698930
v 29.115913 -2.066014 -12.304239
v 25.027544 -0.414665 10.070534
v 26.186407 -0.639234 10.132324
v 25.027544 -2.823774 10.070536
v 26.186407 -2.599205 10.132324
v 25.027546 -0.414665 10.733406
v 26.186409 -0.639234 10.409893
v 25.027546 -2.823774 10.733406
v 26.186409 -2.599205 10.409895
v 25.005478 -0.416015 11.690956
v 29.026651 -0.806683 11.664995
v 25.005476 -2.763238 11.690956
v 29.115915 -2.324028 11.700907
v 25.005476 -0.466624 12.495361
v 29.026649 -0.806683 12.019747
v 25.005474 -2.377146 12.450348
v 29.115913 -2.066014 12.055656
v 25.027544 -0.414665 -10.319117
v 26.186407 -0.639234 -10.380905
v 25.027544 -2.823774 -10.319117
v 26.186407 -2.599205 -10.380905
v 25.027546 -0.414665 -10.981987
v 26.186409 -0.639234 -10.658474
v 25.027546 -2.823774 -10.981988
v 26.186407 -2.599205 -10.658475
vt 0.375000 0.000000
vt 0.375000 0.250000
vt 0.625000 0.250000
vt 0.625000 0.000000
vt 0.375000 0.500000
vt 0.625000 0.500000
vt 0.375000 0.750000
vt 0.625000 0.750000
vt 0.375000 1.000000
vt 0.625000 1.000000
vt 0.125000 0.500000
vt 0.125000 0.750000
vt 0.875000 0.750000
vt 0.875000 0.500000
vt 0.375000 0.000000
vt 0.375000 0.250000
vt 0.625000 0.250000
vt 0.625000 0.000000
vt 0.375000 0.500000
vt 0.625000 0.500000
vt 0.375000 0.750000
vt 0.625000 0.750000
vt 0.375000 1.000000
vt 0.625000 1.000000
vt 0.125000 0.500000
vt 0.125000 0.750000
vt 0.875000 0.750000
vt 0.875000 0.500000
vt 0.375000 0.000000
vt 0.375000 0.250000
vt 0.625000 0.250000
vt 0.625000 0.000000
vt 0.375000 0.500000
vt 0.625000 0.500000
vt 0.375000 0.750000
vt 0.625000 0.750000
vt 0.375000 1.000000
vt 0.625000 1.000000
vt 0.125000 0.500000
vt 0.125000 0.750000
vt 0.875000 0.750000
vt 0.875000 0.500000
vt 0.375000 0.000000
vt 0.375000 0.250000
vt 0.625000 0.250000
vt 0.625000 0.000000
vt 0.375000 0.500000
vt 0.625000 0.500000
vt 0.375000 0.750000
vt 0.625000 0.750000
vt 0.375000 1.000000
vt 0.625000 1.000000
vt 0.125000 0.500000
vt 0.125000 0.750000
vt 0.875000 0.750000
vt 0.875000 0.500000
vn -0.0019 -0.0093 1.0000
vn 0.1019 -0.8612 -0.4979
vn 0.1064 0.0001 -0.9943
vn 0.0931 0.9947 -0.0434
vn -1.0000 0.0000 0.0000
vn 0.9977 0.0636 0.0231
vn -0.0532 0.0000 0.9986
vn -0.1902 0.9817 0.0000
vn -0.2689 -0.0000 -0.9632
vn -0.1902 -0.9817 0.0000
vn 1.0000 0.0000 -0.0000
vn 0.0019 0.0093 1.0000
vn -0.1019 0.8612 -0.4979
vn -0.1064 -0.0001 -0.9943
vn -0.0931 -0.9947 -0.0434
vn -0.9977 -0.0636 0.0231
vn 0.0532 0.0000 0.9986
vn 0.1902 -0.9817 0.0000
vn 0.2689 0.0000 -0.9632
vn 0.1902 0.9817 0.0000
usemtl None
s off
f 1/1/1 3/2/1 4/3/1 2/4/1
f 3/2/2 7/5/2 8/6/2 4/3/2
f 7/5/3 5/7/3 6/8/3 8/6/3
f 5/7/4 1/9/4 2/10/4 6/8/4
f 3/11/5 1/12/5 5/7/5 7/5/5
f 8/6/6 6/8/6 2/13/6 4/14/6
f 9/15/7 11/16/7 12/17/7 10/18/7
f 11/16/8 15/19/8 16/20/8 12/17/8
f 15/19/9 13/21/9 14/22/9 16/20/9
f 13/21/10 9/23/10 10/24/10 14/22/10
f 11/25/11 9/26/11 13/21/11 15/19/11
f 16/20/5 14/22/5 10/27/5 12/28/5
f 17/29/12 19/30/12 20/31/12 18/32/12
f 19/30/13 23/33/13 24/34/13 20/31/13
f 23/33/14 21/35/14 22/36/14 24/34/14
f 21/35/15 17/37/15 18/38/15 22/36/15
f 19/39/11 17/40/11 21/35/11 23/33/11
f 24/34/16 22/36/16 18/41/16 20/42/16
f 25/43/17 27/44/17 28/45/17 26/46/17
f 27/44/18 31/47/18 32/48/18 28/45/18
f 31/47/19 29/49/19 30/50/19 32/48/19
f 29/49/20 25/51/20 26/52/20 30/50/20
f 27/53/5 25/54/5 29/49/5 31/47/5
f 32/48/11 30/50/11 26/55/11 28/56/11
