# Blender v3.2.2 OBJ File: 'lvl_8.blend'
# www.blender.org
mtllib Back_Bumper.mtl
o Back_Bumper_Cube.034
v 21.219519 0.874746 -6.951014
v 21.905272 1.550349 -4.261095
v 22.681046 -1.550349 -4.207908
v 21.692255 -0.874746 -6.951014
v 21.905272 1.550349 4.261095
v 21.219519 0.874746 6.951014
v 21.692255 -0.874746 6.951014
v 22.681046 -1.550349 4.207908
v 21.184105 -0.874746 6.866929
v 21.184105 -1.550349 4.338466
v 21.184105 0.874746 -6.866929
v 21.184105 1.550349 -4.361493
v 21.184105 -0.874746 -6.866929
v 21.184105 -1.550349 -4.338466
v 21.184105 0.874746 6.866929
v 21.184105 1.550349 4.361493
vt 0.385254 0.750000
vt 0.614746 0.750000
vt 0.614746 0.757812
vt 0.385254 0.757812
vt 0.625000 0.505904
vt 0.632812 0.506015
vt 0.632812 0.743985
vt 0.625000 0.744096
vt 0.625000 0.499993
vt 0.375000 0.505904
vt 0.375000 0.500000
vt 0.614746 0.500000
vt 0.367188 0.506015
vt 0.375000 0.744096
vt 0.367188 0.743985
vt 0.375000 0.750000
vt 0.367188 0.750000
vt 0.625000 0.492188
vt 0.614746 0.492188
vt 0.367188 0.500000
vt 0.625000 0.750007
vt 0.625000 0.757812
vt 0.385254 0.492188
vt 0.385254 0.500000
vn -0.2953 -0.0399 0.9546
vn 0.0000 1.0000 0.0000
vn 0.9287 0.2359 -0.2862
vn 0.0000 -1.0000 0.0000
vn 0.0058 -0.9684 0.2493
vn 0.0054 0.9676 -0.2524
vn 0.0058 -0.9684 -0.2493
vn 0.0054 0.9676 0.2524
vn -0.2953 -0.0399 -0.9546
vn 0.9701 0.2427 0.0000
vn 0.9287 0.2359 0.2862
usemtl Material
s off
f 7/1/1 6/2/1 15/3/1 9/4/1
f 2/5/2 12/6/2 16/7/2 5/8/2
f 2/9/3 3/10/3 4/11/3 1/12/3
f 14/13/4 3/10/4 8/14/4 10/15/4
f 10/15/5 8/14/5 7/16/5 9/17/5
f 12/18/6 2/9/6 1/12/6 11/19/6
f 3/10/7 14/13/7 13/20/7 4/11/7
f 5/21/8 16/22/8 15/3/8 6/2/8
f 13/23/9 11/19/9 1/12/9 4/24/9
f 8/14/10 3/10/10 2/5/10 5/8/10
f 8/14/11 5/8/11 6/2/11 7/1/11
