# Blender v3.2.2 OBJ File: 'lvl_8.blend'
# www.blender.org
mtllib Blasters.mtl
o Guns_Cube.030
v 13.172655 -1.429183 -11.465854
v 13.172655 -1.425761 -11.097223
v 13.172655 -1.167276 -10.855841
v 7.359097 -1.167276 -10.855841
v 7.359097 -1.425761 -11.097223
v 7.359097 -1.429183 -11.465853
v 13.172655 -0.813729 -10.864986
v 13.172655 -0.566623 -11.138554
v 7.359097 -0.566623 -11.138553
v 7.359097 -0.813728 -10.864986
v 13.172655 -0.828530 -11.748566
v 13.172655 -1.182078 -11.739421
v 7.359097 -1.182078 -11.739420
v 7.359097 -0.828530 -11.748566
v 13.172655 -0.570045 -11.507183
v 7.359097 -0.570045 -11.507183
v 13.335468 -2.224105 10.620187
v 13.335468 -2.214545 10.251666
v 13.335468 -1.952076 10.014621
v 7.521908 -1.952076 10.014621
v 7.521908 -2.214545 10.251664
v 7.521908 -2.224105 10.620187
v 13.335468 -1.598730 10.029653
v 13.335468 -1.356214 10.307296
v 7.521908 -1.356214 10.307296
v 7.521908 -1.598730 10.029653
v 13.335468 -1.628244 10.912864
v 13.335468 -1.981589 10.897832
v 7.521908 -1.981590 10.897830
v 7.521908 -1.628243 10.912860
v 13.335468 -1.365774 10.675817
v 7.521908 -1.365774 10.675817
v 13.172655 -1.429184 11.217267
v 13.172655 -1.425763 10.848638
v 13.172655 -1.167278 10.607255
v 7.359093 -1.167277 10.607255
v 7.359093 -1.425761 10.848636
v 7.359093 -1.429184 11.217267
v 13.172655 -0.813729 10.616401
v 13.172655 -0.566624 10.889968
v 7.359093 -0.566624 10.889968
v 7.359093 -0.813729 10.616401
v 13.172655 -0.828532 11.499982
v 13.172655 -1.182079 11.490836
v 7.359093 -1.182079 11.490836
v 7.359093 -0.828530 11.499978
v 13.172655 -0.570047 11.258599
v 7.359093 -0.570046 11.258595
v 13.172655 -1.429439 10.148002
v 13.172655 -1.436540 9.779424
v 13.172655 -1.185050 9.530763
v 7.359093 -1.185050 9.530763
v 7.359093 -1.436540 9.779424
v 7.359093 -1.429439 10.148002
v 13.172655 -0.831385 9.529815
v 13.172655 -0.576573 9.796216
v 7.359093 -0.576573 9.796216
v 7.359093 -0.831385 9.529813
v 13.172655 -0.820963 10.413455
v 13.172655 -1.174627 10.414405
v 7.359093 -1.174627 10.414403
v 7.359093 -0.820962 10.413455
v 13.172655 -0.569472 10.164794
v 7.359093 -0.569472 10.164792
v 13.335466 -2.224103 -10.868773
v 13.335466 -2.214543 -10.500251
v 13.335466 -1.952075 -10.263206
v 7.521908 -1.952074 -10.263206
v 7.521908 -2.214543 -10.500250
v 7.521908 -2.224103 -10.868773
v 13.335466 -1.598728 -10.278237
v 13.335466 -1.356213 -10.555882
v 7.521908 -1.356212 -10.555882
v 7.521908 -1.598728 -10.278237
v 13.335466 -1.628241 -11.161448
v 13.335466 -1.981588 -11.146417
v 7.521908 -1.981587 -11.146416
v 7.521908 -1.628241 -11.161448
v 13.335466 -1.365773 -10.924403
v 7.521908 -1.365772 -10.924403
v 13.172653 -1.429439 -10.396587
v 13.172653 -1.436539 -10.028009
v 13.172653 -1.185049 -9.779348
v 7.359093 -1.185048 -9.779348
v 7.359093 -1.436538 -10.028009
v 7.359093 -1.429438 -10.396587
v 13.172653 -0.831384 -9.778399
v 13.172653 -0.576572 -10.044803
v 7.359093 -0.576571 -10.044802
v 7.359093 -0.831384 -9.778399
v 13.172653 -0.820961 -10.662042
v 13.172653 -1.174626 -10.662991
v 7.359093 -1.174626 -10.662990
v 7.359093 -0.820961 -10.662041
v 13.172653 -0.569471 -10.413380
v 7.359093 -0.569471 -10.413380
vt 0.625000 0.623177
vt 0.659547 0.713144
vt 0.744015 0.750000
vt 0.839389 0.714245
vt 0.875000 0.626823
vt 0.840453 0.536856
vt 0.755985 0.500000
vt 0.660611 0.535755
vt 0.375000 0.000000
vt 0.375000 0.035755
vt 0.625000 0.035755
vt 0.625000 0.000000
vt 0.625000 0.123177
vt 0.625000 0.036856
vt 0.375000 0.036856
vt 0.375000 0.123177
vt 0.625000 0.369015
vt 0.625000 0.249856
vt 0.375000 0.249856
vt 0.375000 0.369015
vt 0.375000 0.126823
vt 0.375000 0.247691
vt 0.625000 0.247691
vt 0.625000 0.126823
vt 0.625000 0.502309
vt 0.375000 0.502309
vt 0.375000 0.623177
vt 0.375000 0.380985
vt 0.375000 0.500144
vt 0.625000 0.500144
vt 0.625000 0.380985
vt 0.625000 0.869015
vt 0.625000 0.749856
vt 0.375000 0.749856
vt 0.375000 0.869015
vt 0.375000 0.626823
vt 0.375000 0.747691
vt 0.625000 0.747691
vt 0.625000 0.626823
vt 0.625000 0.623177
vt 0.659547 0.713144
vt 0.744015 0.750000
vt 0.839389 0.714245
vt 0.875000 0.626823
vt 0.840453 0.536856
vt 0.755985 0.500000
vt 0.660611 0.535755
vt 0.375000 0.000000
vt 0.375000 0.035755
vt 0.625000 0.035755
vt 0.625000 0.000000
vt 0.625000 0.123177
vt 0.625000 0.036856
vt 0.375000 0.036856
vt 0.375000 0.123177
vt 0.625000 0.369015
vt 0.625000 0.249856
vt 0.375000 0.249856
vt 0.375000 0.369015
vt 0.375000 0.126823
vt 0.375000 0.247691
vt 0.625000 0.247691
vt 0.625000 0.126823
vt 0.625000 0.502309
vt 0.375000 0.502309
vt 0.375000 0.623177
vt 0.375000 0.380985
vt 0.375000 0.500144
vt 0.625000 0.500144
vt 0.625000 0.380985
vt 0.625000 0.869015
vt 0.625000 0.749856
vt 0.375000 0.749856
vt 0.375000 0.869015
vt 0.375000 0.626823
vt 0.375000 0.747691
vt 0.625000 0.747691
vt 0.625000 0.626823
vt 0.625000 0.623177
vt 0.659547 0.713144
vt 0.744015 0.750000
vt 0.839389 0.714245
vt 0.875000 0.626823
vt 0.840453 0.536856
vt 0.755985 0.500000
vt 0.660611 0.535755
vt 0.375000 0.000000
vt 0.375000 0.035755
vt 0.625000 0.035755
vt 0.625000 0.000000
vt 0.625000 0.123177
vt 0.625000 0.036856
vt 0.375000 0.036856
vt 0.375000 0.123177
vt 0.625000 0.369015
vt 0.625000 0.249856
vt 0.375000 0.249856
vt 0.375000 0.369015
vt 0.375000 0.126823
vt 0.375000 0.247691
vt 0.625000 0.247691
vt 0.625000 0.126823
vt 0.625000 0.502309
vt 0.375000 0.502309
vt 0.375000 0.623177
vt 0.375000 0.380985
vt 0.375000 0.500144
vt 0.625000 0.500144
vt 0.625000 0.380985
vt 0.625000 0.869015
vt 0.625000 0.749856
vt 0.375000 0.749856
vt 0.375000 0.869015
vt 0.375000 0.626823
vt 0.375000 0.747691
vt 0.625000 0.747691
vt 0.625000 0.626823
vt 0.625000 0.623177
vt 0.659547 0.713144
vt 0.744015 0.750000
vt 0.839389 0.714245
vt 0.875000 0.626823
vt 0.840453 0.536856
vt 0.755985 0.500000
vt 0.660611 0.535755
vt 0.375000 0.000000
vt 0.375000 0.035755
vt 0.625000 0.035755
vt 0.625000 0.000000
vt 0.625000 0.123177
vt 0.625000 0.036856
vt 0.375000 0.036856
vt 0.375000 0.123177
vt 0.625000 0.369015
vt 0.625000 0.249856
vt 0.375000 0.249856
vt 0.375000 0.369015
vt 0.375000 0.126823
vt 0.375000 0.247691
vt 0.625000 0.247691
vt 0.625000 0.126823
vt 0.625000 0.502309
vt 0.375000 0.502309
vt 0.375000 0.623177
vt 0.375000 0.380985
vt 0.375000 0.500144
vt 0.625000 0.500144
vt 0.625000 0.380985
vt 0.625000 0.869015
vt 0.625000 0.749856
vt 0.375000 0.749856
vt 0.375000 0.869015
vt 0.375000 0.626823
vt 0.375000 0.747691
vt 0.625000 0.747691
vt 0.625000 0.626823
vt 0.625000 0.623177
vt 0.659547 0.713144
vt 0.744015 0.750000
vt 0.839389 0.714245
vt 0.875000 0.626823
vt 0.840453 0.536856
vt 0.755985 0.500000
vt 0.660611 0.535755
vt 0.375000 0.000000
vt 0.375000 0.035755
vt 0.625000 0.035755
vt 0.625000 0.000000
vt 0.625000 0.123177
vt 0.625000 0.036856
vt 0.375000 0.036856
vt 0.375000 0.123177
vt 0.625000 0.369015
vt 0.625000 0.249856
vt 0.375000 0.249856
vt 0.375000 0.369015
vt 0.375000 0.126823
vt 0.375000 0.247691
vt 0.625000 0.247691
vt 0.625000 0.126823
vt 0.625000 0.502309
vt 0.375000 0.502309
vt 0.375000 0.623177
vt 0.375000 0.380985
vt 0.375000 0.500144
vt 0.625000 0.500144
vt 0.625000 0.380985
vt 0.625000 0.869015
vt 0.625000 0.749856
vt 0.375000 0.749856
vt 0.375000 0.869015
vt 0.375000 0.626823
vt 0.375000 0.747691
vt 0.625000 0.747691
vt 0.625000 0.626823
vt 0.625000 0.623177
vt 0.659547 0.713144
vt 0.744015 0.750000
vt 0.839389 0.714245
vt 0.875000 0.626823
vt 0.840453 0.536856
vt 0.755985 0.500000
vt 0.660611 0.535755
vt 0.375000 0.000000
vt 0.375000 0.035755
vt 0.625000 0.035755
vt 0.625000 0.000000
vt 0.625000 0.123177
vt 0.625000 0.036856
vt 0.375000 0.036856
vt 0.375000 0.123177
vt 0.625000 0.369015
vt 0.625000 0.249856
vt 0.375000 0.249856
vt 0.375000 0.369015
vt 0.375000 0.126823
vt 0.375000 0.247691
vt 0.625000 0.247691
vt 0.625000 0.126823
vt 0.625000 0.502309
vt 0.375000 0.502309
vt 0.375000 0.623177
vt 0.375000 0.380985
vt 0.375000 0.500144
vt 0.625000 0.500144
vt 0.625000 0.380985
vt 0.625000 0.869015
vt 0.625000 0.749856
vt 0.375000 0.749856
vt 0.375000 0.869015
vt 0.375000 0.626823
vt 0.375000 0.747691
vt 0.625000 0.747691
vt 0.625000 0.626823
vn -1.0000 -0.0000 0.0000
vn -0.0000 -1.0000 0.0093
vn -0.0000 -0.6825 0.7309
vn 0.0000 0.7421 0.6703
vn 0.0000 0.0259 0.9997
vn 0.0000 0.6825 -0.7309
vn 0.0000 1.0000 -0.0093
vn -0.0000 -0.7421 -0.6703
vn 0.0000 -0.0259 -0.9997
vn 1.0000 -0.0000 0.0000
vn -0.0000 0.9997 0.0259
vn -0.0000 0.6702 0.7421
vn 0.0000 -0.7531 0.6579
vn 0.0000 -0.0425 0.9991
vn 0.0000 -0.6702 -0.7421
vn 0.0000 -0.9997 -0.0259
vn 0.0000 0.7531 -0.6579
vn 0.0000 0.0425 -0.9991
vn 0.0000 1.0000 0.0093
vn 0.0000 0.6825 0.7309
vn -0.0000 -0.7421 0.6703
vn 0.0000 -0.0259 0.9997
vn 0.0000 -0.6825 -0.7309
vn -0.0000 -1.0000 -0.0093
vn 0.0000 0.7421 -0.6703
vn 0.0000 0.0259 -0.9997
vn 0.0000 0.9998 -0.0193
vn 0.0000 0.7031 0.7111
vn -0.0000 -0.7227 0.6912
vn -0.0000 0.0027 1.0000
vn 0.0000 -0.7031 -0.7111
vn -0.0000 -0.9998 0.0193
vn 0.0000 0.7227 -0.6912
vn 0.0000 -0.0027 -1.0000
vn -0.0000 -0.9997 0.0259
vn 0.0000 -0.6702 0.7421
vn 0.0000 0.7531 0.6579
vn 0.0000 0.0425 0.9991
vn -0.0000 0.6702 -0.7421
vn 0.0000 0.9997 -0.0259
vn -0.0000 -0.7531 -0.6579
vn -0.0000 -0.0425 -0.9991
vn -0.0000 -0.9998 -0.0193
vn 0.0000 -0.7031 0.7111
vn 0.0000 0.7227 0.6912
vn 0.0000 -0.0027 1.0000
vn 0.0000 0.7031 -0.7111
vn 0.0000 0.9998 0.0193
vn 0.0000 -0.7227 -0.6912
vn -0.0000 0.0027 -1.0000
usemtl None
s off
f 14/1/1 13/2/1 6/3/1 5/4/1 4/5/1 10/6/1 9/7/1 16/8/1
f 1/9/2 2/10/2 5/11/2 6/12/2
f 4/13/3 5/14/3 2/15/3 3/16/3
f 9/17/4 10/18/4 7/19/4 8/20/4
f 3/21/5 7/22/5 10/23/5 4/24/5
f 14/1/6 16/25/6 15/26/6 11/27/6
f 8/28/7 15/29/7 16/30/7 9/31/7
f 6/32/8 13/33/8 12/34/8 1/35/8
f 11/36/9 12/37/9 13/38/9 14/39/9
f 30/40/10 29/41/10 22/42/10 21/43/10 20/44/10 26/45/10 25/46/10 32/47/10
f 17/48/11 18/49/11 21/50/11 22/51/11
f 20/52/12 21/53/12 18/54/12 19/55/12
f 25/56/13 26/57/13 23/58/13 24/59/13
f 19/60/14 23/61/14 26/62/14 20/63/14
f 30/40/15 32/64/15 31/65/15 27/66/15
f 24/67/16 31/68/16 32/69/16 25/70/16
f 22/71/17 29/72/17 28/73/17 17/74/17
f 27/75/18 28/76/18 29/77/18 30/78/18
f 46/79/10 45/80/10 38/81/10 37/82/10 36/83/10 42/84/10 41/85/10 48/86/10
f 33/87/19 34/88/19 37/89/19 38/90/19
f 36/91/20 37/92/20 34/93/20 35/94/20
f 41/95/21 42/96/21 39/97/21 40/98/21
f 35/99/22 39/100/22 42/101/22 36/102/22
f 46/79/23 48/103/23 47/104/23 43/105/23
f 40/106/24 47/107/24 48/108/24 41/109/24
f 38/110/25 45/111/25 44/112/25 33/113/25
f 43/114/26 44/115/26 45/116/26 46/117/26
f 62/118/10 61/119/10 54/120/10 53/121/10 52/122/10 58/123/10 57/124/10 64/125/10
f 49/126/27 50/127/27 53/128/27 54/129/27
f 52/130/28 53/131/28 50/132/28 51/133/28
f 57/134/29 58/135/29 55/136/29 56/137/29
f 51/138/30 55/139/30 58/140/30 52/141/30
f 62/118/31 64/142/31 63/143/31 59/144/31
f 56/145/32 63/146/32 64/147/32 57/148/32
f 54/149/33 61/150/33 60/151/33 49/152/33
f 59/153/34 60/154/34 61/155/34 62/156/34
f 78/157/1 77/158/1 70/159/1 69/160/1 68/161/1 74/162/1 73/163/1 80/164/1
f 65/165/35 66/166/35 69/167/35 70/168/35
f 68/169/36 69/170/36 66/171/36 67/172/36
f 73/173/37 74/174/37 71/175/37 72/176/37
f 67/177/38 71/178/38 74/179/38 68/180/38
f 78/157/39 80/181/39 79/182/39 75/183/39
f 72/184/40 79/185/40 80/186/40 73/187/40
f 70/188/41 77/189/41 76/190/41 65/191/41
f 75/192/42 76/193/42 77/194/42 78/195/42
f 94/196/1 93/197/1 86/198/1 85/199/1 84/200/1 90/201/1 89/202/1 96/203/1
f 81/204/43 82/205/43 85/206/43 86/207/43
f 84/208/44 85/209/44 82/210/44 83/211/44
f 89/212/45 90/213/45 87/214/45 88/215/45
f 83/216/46 87/217/46 90/218/46 84/219/46
f 94/196/47 96/220/47 95/221/47 91/222/47
f 88/223/48 95/224/48 96/225/48 89/226/48
f 86/227/49 93/228/49 92/229/49 81/230/49
f 91/231/50 92/232/50 93/233/50 94/234/50
