# Blender v3.2.2 OBJ File: 'lvl_8.blend'
# www.blender.org
mtllib Jets.mtl
o Gun_Barrels_Cube.021
v 13.744123 0.413947 -10.292718
v 13.744123 -0.023108 -9.580149
v 13.744123 -0.733591 -9.149377
v 13.744123 -1.890592 -9.062860
v 13.744123 -2.601075 -9.493632
v 13.744123 -3.038130 -10.292719
v 13.744123 -0.907703 -12.787560
v 13.744122 0.120525 -12.713301
v 13.744122 -3.035897 -11.844043
v 13.744123 -2.269144 -12.651430
v 24.276815 0.448874 -12.651390
v 24.276814 -0.787783 -13.221555
v 24.276814 -2.447985 -13.016183
v 24.276815 -3.156772 -12.051707
v 24.276814 -0.569714 -9.262918
v 20.429108 -0.613672 -8.832762
v 24.276814 0.266417 -9.704600
v 20.429108 0.235045 -9.347345
v 24.276814 0.680971 -10.175935
v 20.429108 0.757134 -10.198554
v 20.429108 -3.360783 -10.198555
v 24.276814 -3.027729 -10.175749
v 24.270069 -2.662747 -9.714260
v 20.435852 -2.844498 -9.392041
v 24.276814 -1.611798 -9.262919
v 20.429108 -1.995782 -8.729412
v 25.050804 -0.355682 -12.765600
v 25.050800 -0.966097 -12.940659
v 25.050800 -2.447985 -12.773148
v 25.050804 -3.032794 -11.926824
v 25.050800 -0.353175 -10.245018
v 25.050800 -2.905956 -10.244833
v 20.314291 -3.363920 -12.051707
v 13.744124 0.413947 10.044137
v 13.744124 -0.023108 9.331567
v 13.744124 -0.733591 8.900796
v 13.744124 -1.890593 8.814279
v 13.744124 -2.601075 9.245049
v 13.744124 -3.038130 10.044137
v 13.744124 -0.907703 12.538978
v 13.744122 0.120525 12.464719
v 13.744122 -3.035897 11.595460
v 13.744124 -2.269144 12.402848
v 24.276817 0.448874 12.402808
v 24.276815 -0.787783 12.972974
v 24.276815 -2.447985 12.767600
v 24.276817 -3.156772 11.803126
v 24.276815 -0.569713 9.014337
v 20.429110 -0.613672 8.584180
v 24.276815 0.266417 9.456017
v 20.429110 0.235045 9.098763
v 24.276815 0.680972 9.927354
v 20.429110 0.757135 9.949971
v 20.429110 -3.360783 9.949973
v 24.276815 -3.027729 9.927167
v 24.270071 -2.662747 9.465678
v 20.435852 -2.844498 9.143460
v 24.276815 -1.611798 9.014337
v 20.429110 -1.995782 8.480830
v 25.050806 -0.355682 12.517018
v 25.050802 -0.966097 12.692077
v 25.050802 -2.447985 12.524566
v 25.050806 -3.032795 11.678241
v 25.050804 -0.353175 9.996436
v 25.050804 -2.905956 9.996251
v 20.314293 -3.363920 11.803126
vt 0.125000 0.679104
vt 0.125000 0.725605
vt 0.371088 0.725605
vt 0.371088 0.679104
vt 0.477801 0.250000
vt 0.477801 0.500000
vt 0.522199 0.500000
vt 0.522199 0.250000
vt 0.625000 0.753912
vt 0.597071 0.753911
vt 0.597071 1.000000
vt 0.625000 1.000000
vt 0.522199 1.000000
vt 0.589626 1.000000
vt 0.589626 0.753912
vt 0.522199 0.753912
vt 0.125000 0.500000
vt 0.125000 0.519261
vt 0.375000 0.519261
vt 0.375000 0.500000
vt 0.589626 0.500000
vt 0.589626 0.375000
vt 0.589626 0.250000
vt 0.375000 0.664585
vt 0.477801 0.753911
vt 0.477801 1.000000
vt 0.125000 0.750000
vt 0.371088 0.750000
vt 0.371088 0.730739
vt 0.125000 0.730739
vt 0.387244 0.725627
vt 0.375000 0.730739
vt 0.477801 0.750000
vt 0.473091 0.744131
vt 0.588141 0.745490
vt 0.620273 0.716592
vt 0.375000 0.679104
vt 0.375000 0.724001
vt 0.523569 0.745641
vt 0.522199 0.750000
vt 0.597071 0.750000
vt 0.000000 0.000000
vt 0.000000 0.000000
vt 0.000000 0.000000
vt 0.000000 0.000000
vt 0.000000 0.000000
vt 0.000000 0.000000
vt 0.000000 0.000000
vt 0.000000 0.000000
vt 0.125000 0.679104
vt 0.125000 0.725605
vt 0.371088 0.725605
vt 0.371088 0.679104
vt 0.477801 0.250000
vt 0.477801 0.500000
vt 0.522199 0.500000
vt 0.522199 0.250000
vt 0.625000 0.753912
vt 0.597071 0.753911
vt 0.597071 1.000000
vt 0.625000 1.000000
vt 0.522199 1.000000
vt 0.589626 1.000000
vt 0.589626 0.753912
vt 0.522199 0.753912
vt 0.125000 0.500000
vt 0.125000 0.519261
vt 0.375000 0.519261
vt 0.375000 0.500000
vt 0.589626 0.500000
vt 0.589626 0.375000
vt 0.589626 0.250000
vt 0.375000 0.664585
vt 0.477801 0.753911
vt 0.477801 1.000000
vt 0.125000 0.750000
vt 0.371088 0.750000
vt 0.371088 0.730739
vt 0.125000 0.730739
vt 0.387244 0.725627
vt 0.375000 0.730739
vt 0.477801 0.750000
vt 0.473091 0.744131
vt 0.588141 0.745490
vt 0.620273 0.716592
vt 0.375000 0.679104
vt 0.375000 0.724001
vt 0.523569 0.745641
vt 0.522199 0.750000
vt 0.597071 0.750000
vt 0.000000 0.000000
vt 0.000000 0.000000
vt 0.000000 0.000000
vt 0.000000 0.000000
vt 0.000000 0.000000
vt 0.000000 0.000000
vt 0.000000 0.000000
vt 0.000000 0.000000
vn -0.0511 0.8513 0.5222
vn -0.0380 -0.1122 -0.9930
vn -0.0438 -0.8589 0.5102
vn -0.0416 -0.5738 0.8180
vn -0.0228 0.2736 -0.9616
vn -0.0287 -0.6997 -0.7139
vn -0.0267 0.9897 -0.1408
vn -0.0485 0.0745 0.9960
vn -0.0490 -0.9988 0.0019
vn -1.0000 0.0000 0.0000
vn -0.0497 0.5178 0.8540
vn 0.0839 0.4919 0.8666
vn 0.0770 -0.8187 0.5690
vn 0.0299 0.8157 0.5777
vn 0.1218 0.0423 0.9917
vn 0.1322 -0.5014 0.8551
vn 1.0000 -0.0013 0.0020
vn 0.0889 0.0001 0.9960
vn 0.3197 0.3545 -0.8787
vn 0.3070 -0.1122 -0.9451
vn 0.1993 -0.7974 -0.5696
vn 0.1539 -0.9855 0.0709
vn 0.7632 0.6455 -0.0303
vn 0.0689 -0.9971 0.0332
vn 1.0000 0.0000 0.0000
vn 0.0511 -0.8513 0.5222
vn 0.0380 0.1122 -0.9930
vn 0.0438 0.8589 0.5102
vn 0.0416 0.5738 0.8180
vn 0.0228 -0.2736 -0.9616
vn 0.0287 0.6997 -0.7139
vn 0.0267 -0.9897 -0.1408
vn 0.0485 -0.0745 0.9960
vn 0.0490 0.9988 0.0019
vn 0.0497 -0.5178 0.8540
vn -0.0839 -0.4919 0.8666
vn -0.0770 0.8187 0.5690
vn -0.0299 -0.8157 0.5777
vn -0.1218 -0.0423 0.9917
vn -0.1322 0.5014 0.8551
vn -1.0000 0.0013 0.0020
vn -0.0889 -0.0001 0.9960
vn -0.3197 -0.3545 -0.8787
vn -0.3070 0.1122 -0.9451
vn -0.1993 0.7974 -0.5696
vn -0.1539 0.9855 0.0709
vn -0.7632 -0.6455 -0.0303
vn -0.0689 0.9971 0.0332
usemtl None
s off
f 1/1/1 2/2/1 18/3/1 20/4/1
f 7/5/2 12/6/2 13/7/2 10/8/2
f 21/9/3 24/10/3 5/11/3 6/12/3
f 4/13/4 5/14/4 24/15/4 26/16/4
f 7/17/5 8/18/5 11/19/5 12/20/5
f 13/7/6 14/21/6 33/22/6 9/23/6 10/8/6
f 1/1/7 20/4/7 19/24/7 11/19/7 8/18/7
f 16/25/8 3/26/8 4/13/8 26/16/8
f 9/23/9 33/22/9 21/9/9 6/12/9
f 8/18/10 7/5/10 10/8/10 9/23/10 6/12/10 5/14/10 4/13/10 3/27/10 2/2/10 1/1/10
f 16/28/11 18/29/11 2/30/11 3/27/11
f 17/31/12 18/32/12 16/33/12 15/34/12
f 23/35/13 24/10/13 21/9/13 22/36/13
f 19/37/14 20/4/14 18/3/14 17/38/14
f 15/34/15 16/25/15 26/16/15 25/39/15
f 25/39/16 26/40/16 24/41/16 23/35/16
f 17/38/17 15/34/17 25/39/17 23/35/17 22/42/17 19/37/17
f 22/42/18 32/43/18 31/44/18 19/45/18
f 11/19/19 27/46/19 28/47/19 12/20/19
f 12/20/20 28/47/20 29/48/20 13/7/20
f 13/7/21 29/48/21 30/49/21 14/21/21
f 22/42/22 14/21/22 30/49/22 32/43/22
f 11/19/23 19/45/23 31/44/23 27/46/23
f 33/22/24 14/21/24 22/36/24 21/9/24
f 29/48/25 28/47/25 27/46/25 31/44/25 32/43/25 30/49/25
f 34/50/26 35/51/26 51/52/26 53/53/26
f 40/54/27 45/55/27 46/56/27 43/57/27
f 54/58/28 57/59/28 38/60/28 39/61/28
f 37/62/29 38/63/29 57/64/29 59/65/29
f 40/66/30 41/67/30 44/68/30 45/69/30
f 46/56/31 47/70/31 66/71/31 42/72/31 43/57/31
f 34/50/32 53/53/32 52/73/32 44/68/32 41/67/32
f 49/74/33 36/75/33 37/62/33 59/65/33
f 42/72/34 66/71/34 54/58/34 39/61/34
f 41/67/25 40/54/25 43/57/25 42/72/25 39/61/25 38/63/25 37/62/25 36/76/25 35/51/25 34/50/25
f 49/77/35 51/78/35 35/79/35 36/76/35
f 50/80/36 51/81/36 49/82/36 48/83/36
f 56/84/37 57/59/37 54/58/37 55/85/37
f 52/86/38 53/53/38 51/52/38 50/87/38
f 48/83/39 49/74/39 59/65/39 58/88/39
f 58/88/40 59/89/40 57/90/40 56/84/40
f 50/87/41 48/83/41 58/88/41 56/84/41 55/91/41 52/86/41
f 55/91/42 65/92/42 64/93/42 52/94/42
f 44/68/43 60/95/43 61/96/43 45/69/43
f 45/69/44 61/96/44 62/97/44 46/56/44
f 46/56/45 62/97/45 63/98/45 47/70/45
f 55/91/46 47/70/46 63/98/46 65/92/46
f 44/68/47 52/94/47 64/93/47 60/95/47
f 66/71/48 47/70/48 55/85/48 54/58/48
f 62/97/10 61/96/10 60/95/10 64/93/10 65/92/10 63/98/10
