# Blender v3.2.2 OBJ File: 'lvl_8.blend'
# www.blender.org
mtllib Side_Cams.mtl
o Side_cams_Cube.027
v 16.975557 0.104760 -12.768881
v 13.181702 -0.009640 -12.878007
v 16.060850 0.109385 -12.311536
v 13.181702 0.070616 -12.311536
v 16.060850 -1.004529 -12.438563
v 16.060850 -0.866892 -12.303156
v 13.181702 -0.866892 -12.303155
v 13.181702 -1.004529 -12.438562
v 16.060850 -0.871521 -12.982978
v 16.060850 -1.006928 -12.732399
v 13.181702 -1.006928 -12.732399
v 13.181702 -0.871520 -12.870036
v 13.181702 -0.470791 -12.577534
v 13.181702 -0.417154 -12.443290
v 13.181702 -0.288377 -12.391800
v 13.181702 -0.160458 -12.445386
v 13.181702 -0.109020 -12.580488
v 13.181702 -0.291434 -12.766222
v 13.181702 -0.419353 -12.712637
v 13.181702 -0.162657 -12.714732
v 13.181702 -0.470791 -12.577534
v 13.181702 -0.417154 -12.443290
v 13.181702 -0.288377 -12.391800
v 12.893947 -0.288377 -12.391800
v 12.893947 -0.417154 -12.443290
v 12.893947 -0.470791 -12.577534
v 13.181702 -0.160458 -12.445386
v 13.181702 -0.109020 -12.580488
v 12.893947 -0.109020 -12.580488
v 12.893947 -0.160458 -12.445386
v 13.181702 -0.291434 -12.766222
v 13.181702 -0.419353 -12.712637
v 12.893947 -0.419353 -12.712637
v 12.893947 -0.291434 -12.766222
v 13.181702 -0.162657 -12.714732
v 12.893947 -0.162657 -12.714732
v 16.975555 0.104760 12.520299
v 13.181701 -0.009640 12.629422
v 16.060850 0.109385 12.062953
v 13.181701 0.070616 12.062951
v 16.060850 -1.004529 12.189981
v 16.060850 -0.866892 12.054574
v 13.181701 -0.866892 12.054574
v 13.181701 -1.004529 12.189981
v 16.060850 -0.871520 12.734395
v 16.060850 -1.006928 12.483815
v 13.181701 -1.006928 12.483815
v 13.181701 -0.871520 12.621453
v 13.181701 -0.470791 12.328952
v 13.181701 -0.417154 12.194707
v 13.181701 -0.288377 12.143218
v 13.181701 -0.160458 12.196803
v 13.181701 -0.109020 12.331904
v 13.181701 -0.291434 12.517638
v 13.181701 -0.419353 12.464051
v 13.181701 -0.162657 12.466149
v 13.181701 -0.470791 12.328952
v 13.181701 -0.417154 12.194707
v 13.181701 -0.288377 12.143218
v 12.893946 -0.288377 12.143218
v 12.893946 -0.417154 12.194707
v 12.893946 -0.470791 12.328952
v 13.181701 -0.160458 12.196803
v 13.181701 -0.109020 12.331904
v 12.893946 -0.109020 12.331904
v 12.893946 -0.160458 12.196803
v 13.181701 -0.291434 12.517638
v 13.181701 -0.419353 12.464051
v 12.893946 -0.419353 12.464051
v 12.893946 -0.291434 12.517638
v 13.181701 -0.162657 12.466149
v 12.893946 -0.162657 12.466149
vt 0.375000 0.356502
vt 0.375000 0.500000
vt 0.625000 0.500000
vt 0.625000 0.356502
vt 0.375000 0.719329
vt 0.625000 0.719329
vt 0.375000 0.810208
vt 0.375000 0.939792
vt 0.625000 0.939792
vt 0.625000 0.810208
vt 0.375000 0.051877
vt 0.625000 0.051877
vt 0.375000 0.000000
vt 0.625000 0.000000
vt 0.125000 0.623177
vt 0.159547 0.713144
vt 0.244015 0.750000
vt 0.339389 0.714245
vt 0.375000 0.626823
vt 0.340453 0.536856
vt 0.255985 0.500000
vt 0.160611 0.535755
vt 0.625000 0.623177
vt 0.659547 0.713144
vt 0.744015 0.750000
vt 0.839389 0.714245
vt 0.875000 0.626823
vt 0.840453 0.536856
vt 0.755985 0.500000
vt 0.660611 0.535755
vt 0.375000 0.000000
vt 0.375000 0.035755
vt 0.625000 0.035755
vt 0.625000 0.000000
vt 0.625000 0.123177
vt 0.625000 0.036856
vt 0.375000 0.036856
vt 0.375000 0.123177
vt 0.625000 0.369015
vt 0.625000 0.249856
vt 0.375000 0.249856
vt 0.375000 0.369015
vt 0.375000 0.126823
vt 0.375000 0.247691
vt 0.625000 0.247691
vt 0.625000 0.126823
vt 0.625000 0.502309
vt 0.375000 0.502309
vt 0.375000 0.623177
vt 0.375000 0.380985
vt 0.375000 0.500144
vt 0.625000 0.500144
vt 0.625000 0.380985
vt 0.625000 0.869015
vt 0.625000 0.749856
vt 0.375000 0.749856
vt 0.375000 0.869015
vt 0.375000 0.626823
vt 0.375000 0.747691
vt 0.625000 0.747691
vt 0.625000 0.626823
vt 0.375000 0.356502
vt 0.375000 0.500000
vt 0.625000 0.500000
vt 0.625000 0.356502
vt 0.375000 0.719329
vt 0.625000 0.719329
vt 0.375000 0.810208
vt 0.375000 0.939792
vt 0.625000 0.939792
vt 0.625000 0.810208
vt 0.375000 0.051877
vt 0.625000 0.051877
vt 0.375000 0.000000
vt 0.625000 0.000000
vt 0.125000 0.623177
vt 0.159547 0.713144
vt 0.244015 0.750000
vt 0.339389 0.714245
vt 0.375000 0.626823
vt 0.340453 0.536856
vt 0.255985 0.500000
vt 0.160611 0.535755
vt 0.625000 0.623177
vt 0.659547 0.713144
vt 0.744015 0.750000
vt 0.839389 0.714245
vt 0.875000 0.626823
vt 0.840453 0.536856
vt 0.755985 0.500000
vt 0.660611 0.535755
vt 0.375000 0.000000
vt 0.375000 0.035755
vt 0.625000 0.035755
vt 0.625000 0.000000
vt 0.625000 0.123177
vt 0.625000 0.036856
vt 0.375000 0.036856
vt 0.375000 0.123177
vt 0.625000 0.369015
vt 0.625000 0.249856
vt 0.375000 0.249856
vt 0.375000 0.369015
vt 0.375000 0.126823
vt 0.375000 0.247691
vt 0.625000 0.247691
vt 0.625000 0.126823
vt 0.625000 0.502309
vt 0.375000 0.502309
vt 0.375000 0.623177
vt 0.375000 0.380985
vt 0.375000 0.500144
vt 0.625000 0.500144
vt 0.625000 0.380985
vt 0.625000 0.869015
vt 0.625000 0.749856
vt 0.375000 0.749856
vt 0.375000 0.869015
vt 0.375000 0.626823
vt 0.375000 0.747691
vt 0.625000 0.747691
vt 0.625000 0.626823
vn -0.0212 0.9946 -0.1014
vn -0.0025 0.1127 -0.9936
vn -0.0000 -1.0000 0.0082
vn -0.0001 0.0088 1.0000
vn -0.0000 -0.7013 0.7129
vn -0.0112 -0.8201 -0.5721
vn -1.0000 0.0000 0.0000
vn 0.7526 -0.3720 0.5434
vn 1.0000 0.0000 0.0000
vn 0.0000 -0.9286 0.3710
vn 0.0000 -0.3713 0.9285
vn 0.0000 0.9346 0.3558
vn 0.0000 0.3864 0.9223
vn -0.0000 0.3713 -0.9285
vn 0.0000 0.9286 -0.3710
vn 0.0000 -0.9346 -0.3558
vn 0.0000 -0.3864 -0.9223
vn 0.0212 -0.9946 -0.1014
vn 0.0025 -0.1127 -0.9936
vn 0.0000 1.0000 0.0082
vn 0.0001 -0.0088 1.0000
vn 0.0000 0.7013 0.7129
vn 0.0112 0.8201 -0.5721
vn -0.7526 0.3720 0.5434
vn 0.0000 0.9286 0.3710
vn 0.0000 0.3713 0.9285
vn 0.0000 -0.9346 0.3558
vn 0.0000 -0.3864 0.9223
vn 0.0000 -0.3713 -0.9285
vn 0.0000 -0.9286 -0.3710
vn 0.0000 0.9346 -0.3558
vn 0.0000 0.3864 -0.9223
usemtl None
s off
f 3/1/1 1/2/1 2/3/1 4/4/1
f 1/2/2 9/5/2 12/6/2 2/3/2
f 10/7/3 5/8/3 8/9/3 11/10/3
f 6/11/4 3/1/4 4/4/4 7/12/4
f 5/13/5 6/11/5 7/12/5 8/14/5
f 11/10/6 12/6/6 9/5/6 10/7/6
f 4/4/7 2/3/7 12/6/7 11/10/7 8/14/7 7/12/7
f 3/1/8 6/11/8 5/8/8 10/7/8 9/5/8 1/2/8
f 15/15/9 14/16/9 13/17/9 19/18/9 18/19/9 20/20/9 17/21/9 16/22/9
f 34/23/7 33/24/7 26/25/7 25/26/7 24/27/7 30/28/7 29/29/7 36/30/7
f 21/31/10 22/32/10 25/33/10 26/34/10
f 24/35/11 25/36/11 22/37/11 23/38/11
f 29/39/12 30/40/12 27/41/12 28/42/12
f 23/43/13 27/44/13 30/45/13 24/46/13
f 34/23/14 36/47/14 35/48/14 31/49/14
f 28/50/15 35/51/15 36/52/15 29/53/15
f 26/54/16 33/55/16 32/56/16 21/57/16
f 31/58/17 32/59/17 33/60/17 34/61/17
f 39/62/18 37/63/18 38/64/18 40/65/18
f 37/63/19 45/66/19 48/67/19 38/64/19
f 46/68/20 41/69/20 44/70/20 47/71/20
f 42/72/21 39/62/21 40/65/21 43/73/21
f 41/74/22 42/72/22 43/73/22 44/75/22
f 47/71/23 48/67/23 45/66/23 46/68/23
f 40/65/9 38/64/9 48/67/9 47/71/9 44/75/9 43/73/9
f 39/62/24 42/72/24 41/69/24 46/68/24 45/66/24 37/63/24
f 51/76/7 50/77/7 49/78/7 55/79/7 54/80/7 56/81/7 53/82/7 52/83/7
f 70/84/9 69/85/9 62/86/9 61/87/9 60/88/9 66/89/9 65/90/9 72/91/9
f 57/92/25 58/93/25 61/94/25 62/95/25
f 60/96/26 61/97/26 58/98/26 59/99/26
f 65/100/27 66/101/27 63/102/27 64/103/27
f 59/104/28 63/105/28 66/106/28 60/107/28
f 70/84/29 72/108/29 71/109/29 67/110/29
f 64/111/30 71/112/30 72/113/30 65/114/30
f 62/115/31 69/116/31 68/117/31 57/118/31
f 67/119/32 68/120/32 69/121/32 70/122/32
