# Blender v3.2.2 OBJ File: 'lvl_8.blend'
# www.blender.org
mtllib Side_Fins.mtl
o Side_Fins_Cube.025
v 19.001541 -2.368625 -12.483801
v 21.220997 -2.691346 -13.853513
v 23.537249 -2.386074 -12.557853
v 23.449062 -2.708794 -13.927565
v 19.001541 -2.537379 -12.374651
v 21.220997 -2.860100 -13.744363
v 23.537249 -2.554827 -12.448704
v 23.449062 -2.877548 -13.818415
v 19.001541 -1.732479 -12.708364
v 21.220997 -2.055200 -14.284701
v 23.537247 -1.749927 -12.782416
v 23.449060 -2.072647 -14.358753
v 19.001541 -1.901233 -12.599215
v 21.220997 -2.223953 -14.175551
v 23.537247 -1.918681 -12.673267
v 23.449060 -2.241401 -14.249603
v 19.001539 -2.368626 12.235218
v 21.220997 -2.691346 13.604929
v 23.537247 -2.386074 12.309269
v 23.449060 -2.708794 13.678982
v 19.001537 -2.537380 12.126068
v 21.220997 -2.860100 13.495779
v 23.537247 -2.554828 12.200121
v 23.449060 -2.877548 13.569832
v 19.001541 -1.732480 12.459784
v 21.220999 -2.055200 14.036119
v 23.537249 -1.749928 12.533834
v 23.449062 -2.072648 14.110170
v 19.001541 -1.901234 12.350634
v 21.220997 -2.223954 13.926970
v 23.537249 -1.918682 12.424685
v 23.449062 -2.241402 14.001020
vt 0.375000 0.000000
vt 0.375000 0.250000
vt 0.625000 0.250000
vt 0.625000 0.000000
vt 0.375000 0.500000
vt 0.625000 0.500000
vt 0.375000 0.750000
vt 0.625000 0.750000
vt 0.375000 1.000000
vt 0.625000 1.000000
vt 0.875000 0.750000
vt 0.875000 0.500000
vt 0.375000 0.000000
vt 0.375000 0.250000
vt 0.625000 0.250000
vt 0.625000 0.000000
vt 0.375000 0.500000
vt 0.625000 0.500000
vt 0.375000 0.750000
vt 0.625000 0.750000
vt 0.375000 1.000000
vt 0.625000 1.000000
vt 0.875000 0.750000
vt 0.875000 0.500000
vt 0.375000 0.000000
vt 0.375000 0.250000
vt 0.625000 0.250000
vt 0.625000 0.000000
vt 0.375000 0.500000
vt 0.625000 0.500000
vt 0.375000 0.750000
vt 0.625000 0.750000
vt 0.375000 1.000000
vt 0.625000 1.000000
vt 0.875000 0.750000
vt 0.875000 0.500000
vt 0.375000 0.000000
vt 0.375000 0.250000
vt 0.625000 0.250000
vt 0.625000 0.000000
vt 0.375000 0.500000
vt 0.625000 0.500000
vt 0.375000 0.750000
vt 0.625000 0.750000
vt 0.375000 1.000000
vt 0.625000 1.000000
vt 0.875000 0.750000
vt 0.875000 0.500000
vn 0.0000 0.9733 -0.2293
vn 0.9978 -0.0361 -0.0557
vn -0.0000 -0.9733 0.2293
vn -0.5127 -0.4663 -0.7209
vn -0.0321 -0.5428 -0.8392
vn 0.0007 0.9798 -0.2001
vn 0.9983 -0.0319 -0.0493
vn -0.0007 -0.9798 0.2001
vn -0.5597 -0.4501 -0.6959
vn -0.0000 -0.9733 -0.2293
vn -0.9978 0.0361 -0.0557
vn 0.0000 0.9733 0.2293
vn 0.5127 0.4663 -0.7209
vn 0.0321 0.5428 -0.8392
vn -0.0007 -0.9798 -0.2001
vn -0.9983 0.0319 -0.0493
vn 0.0007 0.9798 0.2001
vn 0.5597 0.4501 -0.6959
usemtl None
s off
f 1/1/1 3/2/1 4/3/1 2/4/1
f 3/2/2 7/5/2 8/6/2 4/3/2
f 7/5/3 5/7/3 6/8/3 8/6/3
f 5/7/4 1/9/4 2/10/4 6/8/4
f 8/6/5 6/8/5 2/11/5 4/12/5
f 9/13/6 11/14/6 12/15/6 10/16/6
f 11/14/7 15/17/7 16/18/7 12/15/7
f 15/17/8 13/19/8 14/20/8 16/18/8
f 13/19/9 9/21/9 10/22/9 14/20/9
f 16/18/5 14/20/5 10/23/5 12/24/5
f 17/25/10 19/26/10 20/27/10 18/28/10
f 19/26/11 23/29/11 24/30/11 20/27/11
f 23/29/12 21/31/12 22/32/12 24/30/12
f 21/31/13 17/33/13 18/34/13 22/32/13
f 24/30/14 22/32/14 18/35/14 20/36/14
f 25/37/15 27/38/15 28/39/15 26/40/15
f 27/38/16 31/41/16 32/42/16 28/39/16
f 31/41/17 29/43/17 30/44/17 32/42/17
f 29/43/18 25/45/18 26/46/18 30/44/18
f 32/42/14 30/44/14 26/47/14 28/48/14
