# Blender v3.2.2 OBJ File: 'lvl_8.blend'
# www.blender.org
mtllib Wings.mtl
o Cube.014_Cube.020
v 20.512873 1.042190 -3.083882
v 19.914286 -1.807924 -9.943995
v 19.933895 -0.028745 -9.943995
v 14.720623 1.196057 -3.083883
v 16.165804 -1.287468 -9.943996
v 16.339794 0.028857 -9.945057
v 16.636833 -2.501136 -9.943996
v 17.609957 -2.734697 -9.943996
v 19.384661 -2.374341 -9.943995
v 18.473509 -2.734697 -9.943996
v 20.279655 -1.247180 -4.164859
v 18.432146 -2.135891 -4.098366
v 16.676640 -2.099960 -2.971429
v 19.522818 -1.910079 -3.590211
v 15.379498 -1.437981 -4.534277
v 14.348799 0.068732 -3.364475
v 20.164616 -1.106908 -9.943995
v 17.247824 1.393458 -3.083883
v 19.121120 1.422695 -3.083883
v 20.906319 -0.382559 -4.164859
v 17.529066 0.414402 -10.572880
v 18.871899 0.413818 -10.572880
v 16.029240 0.588630 -7.933700
v 15.892660 -0.609368 -8.073465
v 16.338793 -1.969558 -7.239137
v 20.512875 1.042190 2.835300
v 19.914286 -1.807924 9.695414
v 19.933895 -0.028745 9.695414
v 14.720623 1.196057 2.835301
v 16.165804 -1.287468 9.695414
v 16.339794 0.028857 9.696474
v 16.636833 -2.501136 9.695414
v 17.609957 -2.734697 9.695414
v 19.384663 -2.374341 9.695414
v 18.473511 -2.734697 9.695414
v 20.279655 -1.247180 3.916276
v 18.432148 -2.135891 3.849783
v 16.676641 -2.099960 2.722847
v 19.522820 -1.910079 3.341629
v 15.379498 -1.437981 4.285696
v 14.348800 0.068732 3.115892
v 20.164616 -1.106908 9.695414
v 17.247826 1.417903 2.835300
v 19.121122 1.422695 2.835300
v 20.906321 -0.382559 3.916276
v 17.529066 0.414403 10.324297
v 18.871899 0.413819 10.324297
v 16.029242 0.588630 7.685117
v 15.892660 -0.609368 7.824883
v 16.338793 -1.969558 6.990553
vt 0.000000 0.000000
vt 0.000000 0.000000
vt 0.375000 0.312500
vt 0.375000 0.250000
vt 0.000000 0.000000
vt 0.000000 0.000000
vt 0.875000 0.750000
vt 0.875000 0.500000
vt 0.000000 0.000000
vt 0.375000 0.375000
vt 0.000000 0.000000
vt 0.375000 0.437500
vt 0.000000 0.000000
vt 0.187500 0.234375
vt 0.375000 0.468750
vt 0.000000 0.000000
vt 0.000000 0.000000
vt 0.625000 0.750000
vt 0.625000 0.625000
vt 0.000000 0.000000
vt 0.000000 0.000000
vt 0.000000 0.000000
vt 0.000000 0.000000
vt 0.625000 0.500000
vt 0.000000 0.000000
vt 0.000000 0.000000
vt 0.000000 0.000000
vt 0.375000 0.312500
vt 0.375000 0.250000
vt 0.000000 0.000000
vt 0.000000 0.000000
vt 0.875000 0.750000
vt 0.875000 0.500000
vt 0.000000 0.000000
vt 0.375000 0.375000
vt 0.000000 0.000000
vt 0.375000 0.437500
vt 0.000000 0.000000
vt 0.187500 0.234375
vt 0.375000 0.468750
vt 0.000000 0.000000
vt 0.000000 0.000000
vt 0.625000 0.750000
vt 0.625000 0.625000
vt 0.000000 0.000000
vt 0.000000 0.000000
vt 0.000000 0.000000
vt 0.000000 0.000000
vt 0.625000 0.500000
vt 0.000000 0.000000
vn 0.6978 -0.7156 0.0315
vn 0.3495 0.9242 -0.1541
vn 0.2609 -0.9619 0.0818
vn 0.0285 -0.9948 0.0979
vn -0.4408 -0.8968 0.0382
vn -0.9163 0.2560 -0.3079
vn 0.8721 -0.4885 -0.0292
vn 0.9446 0.2964 -0.1408
vn -0.1320 0.9788 -0.1569
vn -0.0088 0.9913 -0.1316
vn -0.9734 0.1306 -0.1880
vn -0.8764 -0.4250 -0.2266
vn -0.9389 -0.3432 -0.0265
vn -0.6978 0.7156 0.0315
vn -0.3495 -0.9242 -0.1541
vn -0.2609 0.9619 0.0818
vn -0.0285 0.9948 0.0979
vn 0.4408 0.8968 0.0382
vn 0.9163 -0.2560 -0.3079
vn -0.8721 0.4885 -0.0292
vn -0.9446 -0.2964 -0.1408
vn 0.1390 -0.9774 -0.1594
vn 0.0013 -0.9911 -0.1332
vn 0.9734 -0.1306 -0.1880
vn 0.8764 0.4250 -0.2266
vn 0.9389 0.3432 -0.0265
usemtl None
s off
f 11/1/1 14/2/1 9/3/1 2/4/1
f 22/5/2 19/6/2 1/7/2 3/8/2
f 12/9/3 10/10/3 9/3/3 14/2/3
f 13/11/4 8/12/4 10/10/4 12/9/4
f 15/13/5 25/14/5 7/15/5 8/12/5 13/11/5
f 24/16/6 16/17/6 4/18/6 23/19/6
f 11/1/7 2/4/7 17/20/7 20/21/7
f 3/8/8 1/7/8 20/21/8 17/20/8
f 4/18/9 18/22/9 21/23/9 6/24/9 23/19/9
f 22/5/10 21/23/10 18/22/10 19/6/10
f 5/25/11 24/16/11 23/19/11 6/24/11
f 24/16/12 25/14/12 15/13/12 16/17/12
f 25/14/13 24/16/13 5/25/13 7/15/13
f 36/26/14 39/27/14 34/28/14 27/29/14
f 47/30/15 44/31/15 26/32/15 28/33/15
f 37/34/16 35/35/16 34/28/16 39/27/16
f 38/36/17 33/37/17 35/35/17 37/34/17
f 40/38/18 50/39/18 32/40/18 33/37/18 38/36/18
f 49/41/19 41/42/19 29/43/19 48/44/19
f 36/26/20 27/29/20 42/45/20 45/46/20
f 28/33/21 26/32/21 45/46/21 42/45/21
f 29/43/22 43/47/22 46/48/22 31/49/22 48/44/22
f 47/30/23 46/48/23 43/47/23 44/31/23
f 30/50/24 49/41/24 48/44/24 31/49/24
f 49/41/25 50/39/25 40/38/25 41/42/25
f 50/39/26 49/41/26 30/50/26 32/40/26
