# Blender v3.2.2 OBJ File: 'lvl_6.blend'
# www.blender.org
mtllib lvl_6_intakes.mtl
o Intakes_Cube.011
v 0.743411 1.659197 6.518323
v 1.384667 1.886646 5.909521
v 0.852417 1.659184 6.667970
v 1.424737 1.852301 6.141607
v 0.743411 1.776398 6.518323
v 1.384667 2.003847 5.909521
v 0.852417 1.776385 6.667970
v 1.424737 1.969502 6.141607
v -0.222133 1.590476 -5.119140
v 0.964424 2.010681 -3.996359
v -0.021206 1.590452 -5.395940
v 1.037743 1.947230 -4.425253
v -0.222133 1.807001 -5.119140
v 0.964424 2.227206 -3.996359
v -0.021206 1.806977 -5.395940
v 1.037743 2.163755 -4.425253
v 0.141546 1.607703 -5.637269
v 1.146783 1.963696 -4.686064
v 0.311769 1.607683 -5.871771
v 1.208898 1.909941 -5.049417
v 0.141546 1.791140 -5.637269
v 1.146783 2.147133 -4.686064
v 0.311769 1.791120 -5.871771
v 1.208898 2.093378 -5.049417
v 0.446142 1.633341 -6.089856
v 1.242893 1.915501 -5.335931
v 0.581060 1.633325 -6.275723
v 1.292125 1.872895 -5.623923
v 0.446142 1.778734 -6.089856
v 1.242893 2.060894 -5.335931
v 0.581060 1.778718 -6.275723
v 1.292125 2.018288 -5.623923
v 0.735961 1.659197 -6.507225
v 1.378223 1.886646 -5.899485
v 0.844719 1.659184 -6.657052
v 1.417909 1.852301 -6.131637
v 0.735961 1.776398 -6.507225
v 1.378223 2.003847 -5.899485
v 0.844719 1.776385 -6.657052
v 1.417909 1.969502 -6.131637
v 0.147571 1.607703 5.649353
v 1.151233 1.963696 4.696486
v 0.318181 1.607683 5.883574
v 1.213949 1.909941 5.059736
v 0.147571 1.791140 5.649353
v 1.151233 2.147133 4.696486
v 0.318181 1.791120 5.883574
v 1.213949 2.093378 5.059736
v 0.452907 1.633341 6.101436
v 1.248411 1.915501 5.346193
v 0.588133 1.633325 6.287079
v 1.298119 1.872895 5.634105
v 0.452907 1.778734 6.101436
v 1.248411 2.060894 5.346193
v 0.588133 1.778718 6.287079
v 1.298119 2.018288 5.634105
v -0.216958 1.590476 5.131828
v 0.967741 2.010681 4.007088
v -0.015574 1.590452 5.408297
v 1.041769 1.947230 4.435859
v -0.216958 1.807001 5.131828
v 0.967741 2.227206 4.007088
v -0.015574 1.806977 5.408297
v 1.041769 2.163755 4.435859
vt 0.000000 0.000000
vt 0.000000 0.000000
vt 0.000000 0.000000
vt 0.000000 0.000000
vt 0.000000 0.000000
vt 0.000000 0.000000
vt 0.000000 0.000000
vt 0.000000 0.000000
vt 0.000000 0.000000
vt 0.000000 0.000000
vt 0.000000 0.000000
vt 0.000000 0.000000
vt 0.000000 0.000000
vt 0.000000 0.000000
vt 0.000000 0.000000
vt 0.000000 0.000000
vt 0.000000 0.000000
vt 0.000000 0.000000
vt 0.000000 0.000000
vt 0.000000 0.000000
vt 0.000000 0.000000
vt 0.000000 0.000000
vt 0.000000 0.000000
vt 0.000000 0.000000
vt 0.000000 0.000000
vt 0.000000 0.000000
vt 0.000000 0.000000
vt 0.000000 0.000000
vt 0.000000 0.000000
vt 0.000000 0.000000
vt 0.000000 0.000000
vt 0.000000 0.000000
vt 0.000000 0.000000
vt 0.000000 0.000000
vt 0.000000 0.000000
vt 0.000000 0.000000
vt 0.000000 0.000000
vt 0.000000 0.000000
vt 0.000000 0.000000
vt 0.000000 0.000000
vt 0.000000 0.000000
vt 0.000000 0.000000
vt 0.000000 0.000000
vt 0.000000 0.000000
vt 0.000000 0.000000
vt 0.000000 0.000000
vt 0.000000 0.000000
vt 0.000000 0.000000
vt 0.000000 0.000000
vt 0.000000 0.000000
vt 0.000000 0.000000
vt 0.000000 0.000000
vt 0.000000 0.000000
vt 0.000000 0.000000
vt 0.000000 0.000000
vt 0.000000 0.000000
vt 0.000000 0.000000
vt 0.000000 0.000000
vt 0.000000 0.000000
vt 0.000000 0.000000
vt 0.000000 0.000000
vt 0.000000 0.000000
vt 0.000000 0.000000
vt 0.000000 0.000000
vn -0.1863 0.9694 0.1600
vn 0.1863 -0.9694 -0.1600
vn -0.6885 0.0000 -0.7252
vn -0.8083 0.0000 0.5888
vn 0.6769 0.0000 0.7360
vn 0.9854 0.0000 -0.1701
vn 0.1865 -0.9694 0.1597
vn -0.1865 0.9694 -0.1597
vn 0.6873 0.0000 -0.7264
vn 0.8093 0.0000 0.5874
vn -0.6757 0.0000 0.7372
vn -0.9857 0.0000 -0.1685
usemtl Material
s off
f 5/1/1 7/2/1 8/3/1 6/4/1
f 2/5/2 4/6/2 3/7/2 1/8/2
f 2/5/3 1/8/3 5/1/3 6/4/3
f 1/8/4 3/7/4 7/2/4 5/1/4
f 3/7/5 4/6/5 8/3/5 7/2/5
f 4/6/6 2/5/6 6/4/6 8/3/6
f 13/9/7 15/10/7 16/11/7 14/12/7
f 10/13/8 12/14/8 11/15/8 9/16/8
f 10/13/9 9/16/9 13/9/9 14/12/9
f 9/16/10 11/15/10 15/10/10 13/9/10
f 11/15/11 12/14/11 16/11/11 15/10/11
f 12/14/12 10/13/12 14/12/12 16/11/12
f 21/17/7 23/18/7 24/19/7 22/20/7
f 18/21/8 20/22/8 19/23/8 17/24/8
f 18/21/9 17/24/9 21/17/9 22/20/9
f 17/24/10 19/23/10 23/18/10 21/17/10
f 19/23/11 20/22/11 24/19/11 23/18/11
f 20/22/12 18/21/12 22/20/12 24/19/12
f 29/25/7 31/26/7 32/27/7 30/28/7
f 26/29/8 28/30/8 27/31/8 25/32/8
f 26/29/9 25/32/9 29/25/9 30/28/9
f 25/32/10 27/31/10 31/26/10 29/25/10
f 27/31/11 28/30/11 32/27/11 31/26/11
f 28/30/12 26/29/12 30/28/12 32/27/12
f 37/33/7 39/34/7 40/35/7 38/36/7
f 34/37/8 36/38/8 35/39/8 33/40/8
f 34/37/9 33/40/9 37/33/9 38/36/9
f 33/40/10 35/39/10 39/34/10 37/33/10
f 35/39/11 36/38/11 40/35/11 39/34/11
f 36/38/12 34/37/12 38/36/12 40/35/12
f 45/41/1 47/42/1 48/43/1 46/44/1
f 42/45/2 44/46/2 43/47/2 41/48/2
f 42/45/3 41/48/3 45/41/3 46/44/3
f 41/48/4 43/47/4 47/42/4 45/41/4
f 43/47/5 44/46/5 48/43/5 47/42/5
f 44/46/6 42/45/6 46/44/6 48/43/6
f 53/49/1 55/50/1 56/51/1 54/52/1
f 50/53/2 52/54/2 51/55/2 49/56/2
f 50/53/3 49/56/3 53/49/3 54/52/3
f 49/56/4 51/55/4 55/50/4 53/49/4
f 51/55/5 52/54/5 56/51/5 55/50/5
f 52/54/6 50/53/6 54/52/6 56/51/6
f 61/57/1 63/58/1 64/59/1 62/60/1
f 58/61/2 60/62/2 59/63/2 57/64/2
f 58/61/3 57/64/3 61/57/3 62/60/3
f 57/64/4 59/63/4 63/58/4 61/57/4
f 59/63/5 60/62/5 64/59/5 63/58/5
f 60/62/6 58/61/6 62/60/6 64/59/6
