# Blender v3.2.2 OBJ File: 'lvl_6.blend'
# www.blender.org
mtllib lvl_6_front.mtl
o Front_Cube
v -0.494888 1.697515 -5.007226
v -0.294531 -0.050973 -4.543207
v -0.494888 1.697515 5.007226
v -0.323253 -0.051233 4.802876
v -7.194706 1.657824 -2.936368
v -6.701938 0.174854 -2.936368
v -7.194706 1.657824 2.893061
v -6.701938 0.174854 2.893061
v -8.279526 -0.061561 1.225970
v -8.365959 1.320811 -1.337888
v -8.279526 -0.061561 -1.269278
v -8.365959 1.320811 1.294581
v -7.368523 0.174854 2.292956
v -7.861290 1.657824 -2.336263
v -7.368523 0.174854 -2.336263
v -7.861290 1.657824 2.292956
v -6.723646 0.050925 2.364043
v -5.260759 -0.083926 1.639612
v -2.502072 2.189543 2.602801
v -6.723646 1.926345 -2.407350
v -5.260759 1.698514 -1.860984
v -2.502072 2.189543 -2.601751
v -5.260759 -0.083926 -1.682920
v -6.723646 0.050925 -2.407350
v -2.573613 -0.305383 -2.614329
v -5.260759 1.698514 1.817676
v -6.723646 1.926345 2.364043
v -2.569379 -0.328686 2.602801
v -8.792130 1.656327 -0.021654
v -1.043438 2.213358 3.422759
v -1.043438 2.213358 -3.419491
v -1.114455 -0.305383 -3.535575
v -1.110222 -0.328686 3.521828
v 0.915472 2.038631 -3.794792
v 0.915472 2.038631 3.794792
v 0.447133 2.140593 1.319646
v 0.447133 2.140593 -1.316377
vt 0.375000 0.875000
vt 0.625000 0.875000
vt 0.625000 1.000000
vt 0.375000 1.000000
vt 0.375000 0.234375
vt 0.625000 0.234375
vt 0.625000 0.250000
vt 0.375000 0.250000
vt 0.375000 0.187500
vt 0.625000 0.187500
vt 0.625000 0.203992
vt 0.375000 0.203992
vt 0.375000 0.015625
vt 0.625000 0.015625
vt 0.625000 0.022793
vt 0.375000 0.022793
vt 0.375000 0.227207
vt 0.625000 0.227207
vt 0.375000 0.000000
vt 0.625000 0.000000
vt 0.625000 0.046008
vt 0.375000 0.046008
vt 0.625000 0.062500
vt 0.375000 0.062500
vt 0.625000 0.375000
vt 0.375000 0.375000
vt 0.625000 0.125000
vt 0.000000 0.000000
vt 0.000000 0.000000
vt 0.000000 0.000000
vt 0.000000 0.000000
vt 0.000000 0.000000
vt 0.000000 0.000000
vt 0.000000 0.000000
vt 0.000000 0.000000
vt 0.000000 0.000000
vt 0.000000 0.000000
vt 0.000000 0.000000
vt 0.000000 0.000000
vn 0.0656 0.0070 0.9978
vn -0.6531 -0.2170 -0.7255
vn -0.1461 -0.0808 -0.9860
vn 0.0786 0.0115 -0.9968
vn 0.0786 0.0115 0.9968
vn -0.6531 -0.2170 0.7255
vn -0.3933 0.0447 -0.9183
vn -0.3933 0.0447 0.9183
vn -0.1461 -0.0808 0.9860
vn 0.0742 0.0110 -0.9972
vn -0.1017 -0.9677 0.2309
vn -0.2081 -0.9504 -0.2312
vn -0.0869 -0.9962 -0.0032
vn -0.0074 -1.0000 0.0000
vn -0.1640 0.9419 -0.2932
vn -0.1640 0.9419 0.2932
vn -0.0119 0.9999 0.0000
vn -0.0341 0.8868 0.4610
vn -0.2372 0.9351 -0.2634
vn -0.2372 0.9351 0.2634
vn -0.0794 0.9156 0.3941
vn -0.0753 0.9146 -0.3972
vn -0.9541 -0.0741 -0.2901
vn -0.9582 -0.2859 0.0000
vn -0.9541 -0.0741 0.2901
vn -0.9069 -0.0325 0.4200
vn -0.8854 -0.0644 -0.4604
vn -0.5119 0.0304 0.8585
vn -0.5118 0.0366 -0.8583
vn -0.0840 -0.9961 0.0251
vn -0.0279 -0.9533 -0.3007
vn -0.0488 -0.9988 0.0000
vn -0.0275 -0.9535 0.3003
vn -0.0841 -0.9961 -0.0251
vn -0.1098 0.9940 -0.0000
vn -0.0300 0.8915 -0.4521
vn -0.2081 -0.9504 0.2312
vn -0.0947 -0.9684 -0.2307
vn 0.3144 -0.9493 -0.0009
vn -0.0000 -1.0000 -0.0038
usemtl Material
s off
f 28/1/1 19/2/1 7/3/1 8/4/1
f 15/5/2 14/6/2 5/7/2 6/8/2
f 11/9/3 10/10/3 21/11/3 23/12/3
f 13/13/4 16/14/4 27/15/4 17/16/4
f 24/17/5 20/18/5 14/6/5 15/5/5
f 8/19/6 7/20/6 16/14/6 13/13/6
f 26/21/7 18/22/7 17/16/7 27/15/7
f 20/18/8 24/17/8 23/12/8 21/11/8
f 18/22/9 26/21/9 12/23/9 9/24/9
f 6/8/10 5/7/10 22/25/10 25/26/10
f 28/1/11 8/4/11 17/16/11
f 15/5/12 6/8/12 24/17/12
f 18/22/13 23/12/13 24/17/13 25/26/13 28/1/13 17/16/13
f 11/9/14 23/12/14 18/22/14 9/24/14
f 10/10/15 29/27/15 21/11/15
f 12/23/16 26/21/16 29/27/16
f 29/27/17 26/21/17 21/11/17
f 20/18/18 21/11/18 22/25/18
f 14/6/19 20/18/19 5/7/19
f 16/14/20 7/20/20 27/15/20
f 7/20/21 19/2/21 27/15/21
f 22/25/22 5/7/22 20/18/22
f 10/10/23 11/9/23 29/27/23
f 11/9/24 9/24/24 29/27/24
f 9/24/25 12/23/25 29/27/25
f 33/28/26 4/29/26 3/30/26 30/31/26
f 31/32/27 1/33/27 2/34/27 32/35/27
f 28/1/28 33/28/28 30/31/28 19/2/28
f 22/25/29 31/32/29 32/35/29 25/26/29
f 37/36/30 31/32/30 34/37/30
f 3/30/31 30/31/31 35/38/31
f 30/31/32 31/32/32 37/36/32 36/39/32
f 31/32/33 1/33/33 34/37/33
f 35/38/34 30/31/34 36/39/34
f 26/21/35 19/2/35 30/31/35 31/32/35 22/25/35 21/11/35
f 27/15/36 19/2/36 26/21/36
f 13/13/37 17/16/37 8/4/37
f 6/8/38 25/26/38 24/17/38
f 32/35/39 2/34/39 4/29/39 33/28/39
f 25/26/40 32/35/40 33/28/40 28/1/40
