# Blender v3.2.2 OBJ File: 'lvl_6.blend'
# www.blender.org
mtllib lvl_6_middle.mtl
o Intake_Cube.002
v -0.494888 1.697515 -5.007226
v -0.494888 0.215776 -5.007226
v 6.331279 1.406913 7.809898
v 1.185622 2.274499 3.495762
v 7.116831 1.166202 3.982355
v 6.326588 1.166202 8.373534
v 7.072858 1.406913 -4.012506
v 7.116831 1.408071 3.929346
v 9.179749 1.774342 -2.098200
v 9.179749 1.774342 2.098200
v 1.889016 1.273357 -8.629654
v 1.889016 1.166202 8.617023
v 6.387441 1.273357 -8.251706
v 7.072858 0.122651 -4.012506
v 9.179749 0.199922 -2.098200
v 9.179749 0.199922 2.098200
v 9.977343 1.774342 -1.416469
v 9.495073 1.774342 -2.098200
v 9.495073 1.774342 2.098200
v 9.977343 1.774342 1.416469
v 9.495073 0.199922 -2.098200
v 9.977343 0.199922 -1.416469
v 9.977343 0.199922 1.416469
v 9.495073 0.199922 2.098200
v 1.125475 2.274499 -3.503892
v -0.475336 1.697515 4.954120
v 6.387441 1.406913 -7.675374
v 1.889016 1.697515 -8.124602
v 4.006222 2.226284 -3.767755
v 4.759530 1.518168 -7.818146
v 4.767970 1.697243 -7.818146
v 1.822231 1.697515 8.135664
v 4.058055 2.226284 3.838482
v 4.700066 1.518168 7.907999
v 4.708554 1.697243 7.904512
v -0.490786 0.241082 4.983869
vt 0.000000 0.000000
vt 0.000000 0.000000
vt 0.000000 0.000000
vt 0.000000 0.000000
vt 0.000000 0.000000
vt 0.000000 0.000000
vt 0.000000 0.000000
vt 0.000000 0.000000
vt 0.000000 0.000000
vt 0.000000 0.000000
vt 0.000000 0.000000
vt 0.000000 0.000000
vt 0.000000 0.000000
vt 0.000000 0.000000
vt 0.000000 0.000000
vt 0.000000 0.000000
vt 0.000000 0.000000
vt 0.000000 0.000000
vt 0.000000 0.000000
vt 0.000000 0.000000
vt 0.000000 0.000000
vt 0.000000 0.000000
vt 0.000000 0.000000
vt 0.000000 0.000000
vt 0.000000 0.000000
vt 0.000000 0.000000
vt 0.000000 0.000000
vt 0.000000 0.000000
vt 0.000000 0.000000
vt 0.000000 0.000000
vt 0.000000 0.000000
vt 0.000000 0.000000
vt 0.000000 0.000000
vt 0.000000 0.000000
vt 0.000000 0.000000
vt 0.000000 0.000000
vn 0.0000 0.0000 1.0000
vn 1.0000 0.0000 0.0000
vn 0.0000 1.0000 -0.0000
vn 0.0000 -1.0000 0.0000
vn 0.8164 0.0000 -0.5775
vn 0.8164 0.0000 0.5775
vn 0.0000 0.0000 -1.0000
vn 0.8182 -0.1473 0.5557
vn 0.0637 0.8045 0.5906
vn -0.9847 -0.0656 0.1613
vn 0.9574 0.2238 0.1824
vn 0.2056 -0.9673 -0.1485
vn 0.0059 0.9921 0.1252
vn -0.2015 0.9673 -0.1541
vn -0.0093 -0.9921 0.1249
vn 0.0798 0.0156 0.9967
vn -0.1058 0.0050 0.9944
vn -0.0707 -0.8865 0.4572
vn 0.8260 -0.1203 -0.5506
vn -0.3318 0.9434 0.0016
usemtl Material
s off
f 19/1/1 10/2/1 16/3/1 24/4/1
f 20/5/2 23/6/2 22/7/2 17/8/2
f 19/1/3 20/5/3 17/8/3 18/9/3 9/10/3 10/2/3
f 23/6/4 24/4/4 16/3/4 15/11/4 21/12/4 22/7/4
f 17/8/5 22/7/5 21/12/5 18/9/5
f 19/1/6 24/4/6 23/6/6 20/5/6
f 18/9/7 21/12/7 15/11/7 9/10/7
f 28/13/8 1/14/8 2/15/8 11/16/8
f 32/17/9 12/18/9 6/19/9 3/20/9
f 7/21/10 27/22/10 13/23/10 14/24/10
f 8/25/11 3/20/11 6/19/11 5/26/11
f 4/27/12 32/17/12 26/28/12
f 35/29/13 33/30/13 4/27/13 32/17/13
f 25/31/14 28/13/14 1/14/14
f 31/32/15 29/33/15 25/31/15 28/13/15
f 34/34/16 35/29/16 32/17/16
f 30/35/17 31/32/17 28/13/17
f 13/23/18 27/22/18 28/13/18 11/16/18
f 12/18/19 36/36/19 26/28/19 32/17/19
f 1/14/20 26/28/20 4/27/20 25/31/20
l 8 4
l 7 25
