# Blender v3.2.2 OBJ File: 'lvl_6.blend'
# www.blender.org
mtllib lvl_6_center_back.mtl
o CenterBack_Cube.001
v -0.137713 0.652422 1.357467
v -0.137713 2.298661 1.357467
v -0.137713 0.652422 -1.357467
v -0.137713 2.298661 -1.357467
v 7.055567 0.652422 4.057876
v 7.055567 2.219588 4.057876
v 7.055567 0.652422 -4.057876
v 7.055567 2.219588 -4.057876
v 1.132888 2.470865 -3.545411
v 1.132889 0.652422 -3.545411
v 9.695787 0.652422 -1.143954
v 9.695787 2.075222 1.143954
v 9.695787 0.652422 1.143954
v 9.695787 2.075222 -1.143954
v 1.132888 0.652422 3.545411
v 1.132889 2.470865 3.545411
vt 0.375000 0.000000
vt 0.625000 0.000000
vt 0.625000 0.250000
vt 0.375000 0.250000
vt 0.375000 0.375000
vt 0.625000 0.375000
vt 0.625000 0.500000
vt 0.375000 0.500000
vt 0.375000 0.687500
vt 0.625000 0.687500
vt 0.625000 0.750000
vt 0.375000 0.750000
vt 0.375000 0.875000
vt 0.625000 0.875000
vt 0.625000 1.000000
vt 0.375000 1.000000
vt 0.375000 0.562500
vt 0.625000 0.562500
vn -1.0000 0.0000 0.0000
vn -0.0862 0.0000 -0.9963
vn 0.7411 0.0000 0.6714
vn -0.8648 0.0000 0.5022
vn 1.0000 0.0000 0.0000
vn -0.0862 0.0000 0.9963
vn 0.7411 0.0000 -0.6714
vn -0.8648 -0.0000 -0.5022
vn -0.1343 0.9909 -0.0000
vn 0.0452 0.9990 0.0000
usemtl None
s off
f 1/1/1 2/2/1 4/3/1 3/4/1
f 10/5/2 9/6/2 8/7/2 7/8/2
f 13/9/3 12/10/3 6/11/3 5/12/3
f 15/13/4 16/14/4 2/15/4 1/16/4
f 11/17/5 14/18/5 12/10/5 13/9/5
f 5/12/6 6/11/6 16/14/6 15/13/6
f 7/8/7 8/7/7 14/18/7 11/17/7
f 3/4/8 4/3/8 9/6/8 10/5/8
f 4/3/9 2/15/9 16/14/9 9/6/9
f 9/6/10 16/14/10 6/11/10 12/10/10 14/18/10 8/7/10
