# Blender v3.2.2 OBJ File: 'lvl_6.blend'
# www.blender.org
mtllib lvl_6_exhausts.mtl
o RightExhaust.001_Cube.013
v 4.674455 1.613338 -7.644786
v 7.072858 1.406913 -4.012506
v 6.387441 1.406913 -7.675374
v 4.714084 1.590926 -7.643063
v 4.133403 1.490098 -3.767755
v 4.006222 2.226284 -3.767755
v 4.059605 2.097080 -3.941559
v 4.134857 1.565207 -3.942065
v 4.759530 1.518168 -7.818146
v 4.767970 1.697243 -7.818146
v 3.962923 2.068385 -3.954730
v 4.038175 1.536512 -3.955235
v 4.528310 1.584643 -7.657957
v 4.617402 1.562231 -7.656234
v 6.331279 1.406913 7.809898
v 7.116831 1.406913 4.167193
v 4.185189 1.490098 3.841969
v 4.058055 2.226284 3.838482
v 4.664165 1.584362 7.747669
v 4.629294 1.647267 7.747426
v 4.700066 1.518168 7.907999
v 4.708554 1.697243 7.904512
v 4.541588 1.550411 7.761100
v 4.100657 2.135258 3.997190
v 4.183603 1.558436 4.000253
v 4.446986 1.613317 7.760856
v 3.978080 2.101307 4.010621
v 4.061027 1.524485 4.013683
vt 0.000000 0.000000
vt 0.000000 0.000000
vt 0.000000 0.000000
vt 0.000000 0.000000
vt 0.000000 0.000000
vt 0.000000 0.000000
vt 0.000000 0.000000
vt 0.000000 0.000000
vt 0.000000 0.000000
vt 0.000000 0.000000
vt 0.000000 0.000000
vt 0.000000 0.000000
vt 0.000000 0.000000
vt 0.000000 0.000000
vt 0.000000 0.000000
vt 0.000000 0.000000
vt 0.000000 0.000000
vt 0.000000 0.000000
vt 0.000000 0.000000
vt 0.000000 0.000000
vt 0.000000 0.000000
vt 0.000000 0.000000
vt 0.000000 0.000000
vt 0.000000 0.000000
vt 0.000000 0.000000
vt 0.000000 0.000000
vt 0.000000 0.000000
vt 0.000000 0.000000
vn 0.2797 -0.9594 0.0371
vn -0.0426 -0.9991 -0.0033
vn -0.9791 -0.1563 -0.1300
vn -0.9638 0.1819 -0.1949
vn -0.9174 -0.1452 -0.3705
vn -0.9479 -0.2812 -0.1494
vn -0.9506 -0.2821 -0.1295
vn -0.2106 0.9645 -0.1595
vn 0.0745 0.1380 -0.9876
vn -0.1293 -0.0192 0.9914
vn 0.0427 0.9991 -0.0021
vn -0.2641 0.9641 0.0272
vn 0.9372 0.0970 -0.3351
vn 0.9522 -0.2496 -0.1761
vn 0.9564 0.2646 -0.1237
vn 0.9809 0.1564 -0.1157
vn 0.9584 0.2654 -0.1050
vn -0.0706 -0.0765 -0.9946
vn 0.2020 -0.9674 -0.1527
vn 0.1034 0.0201 0.9944
usemtl Material
s off
f 4/1/1 8/2/1 12/3/1 14/4/1
f 3/5/2 2/6/2 5/7/2 9/8/2
f 7/9/3 8/2/3 5/7/3 6/10/3
f 1/11/4 7/9/4 6/10/4 10/12/4
f 4/1/5 1/11/5 10/12/5 9/8/5
f 8/2/6 4/1/6 9/8/6 5/7/6
f 11/13/7 13/14/7 14/4/7 12/3/7
f 7/9/8 1/11/8 13/14/8 11/13/8
f 1/11/9 4/1/9 14/4/9 13/14/9
f 8/2/10 7/9/10 11/13/10 12/3/10
f 15/15/11 16/16/11 17/17/11 21/18/11
f 19/19/12 25/20/12 28/21/12 23/22/12
f 19/19/13 20/23/13 22/24/13 21/18/13
f 20/23/14 24/25/14 18/26/14 22/24/14
f 25/20/15 19/19/15 21/18/15 17/17/15
f 24/25/16 25/20/16 17/17/16 18/26/16
f 23/22/17 28/21/17 27/27/17 26/28/17
f 20/23/18 19/19/18 23/22/18 26/28/18
f 24/25/19 20/23/19 26/28/19 27/27/19
f 25/20/20 24/25/20 27/27/20 28/21/20
