# Blender v3.2.0 OBJ File: 'lvl_3_v2.blend'
# www.blender.org
mtllib PrimaryColorParts.mtl
o Hull_Cube.001
v 0.775576 0.656121 -0.751624
v 0.925387 -0.497815 -0.558813
v 0.366432 0.297841 1.776066
v 0.561276 -0.368110 1.722808
v -0.902910 0.656121 -0.751624
v -1.052721 -0.497815 -0.558813
v -0.493767 0.297841 1.776066
v -0.688610 -0.368110 1.722808
v 0.355954 0.848872 -0.751624
v -0.483289 0.848872 -0.751624
v -0.063667 -0.740588 -0.751624
v -0.063667 -0.489826 1.915619
v 0.775576 0.656121 -4.297942
v -0.902910 0.656121 -4.297942
v 0.355954 0.848872 -4.297942
v -0.483289 0.848872 -4.297942
v -0.063667 -0.312326 -4.181267
v -0.063667 -0.615190 -3.980119
v -1.013708 -0.197316 -4.251406
v -1.052721 -0.497815 -3.949103
v 0.925387 -0.497815 -3.949103
v 0.886374 -0.197316 -4.251406
vt 0.625000 0.250000
vt 0.625000 0.000000
vt 0.625000 0.312500
vt 0.375000 0.750000
vt 0.625000 0.750000
vt 0.625000 1.000000
vt 0.375000 1.000000
vt 0.375000 0.875000
vt 0.375000 0.000000
vt 0.375000 0.250000
vt 0.250000 0.500000
vt 0.375000 0.500000
vt 0.625000 0.500000
vt 0.000000 0.000000
vt 0.000000 0.000000
vt 0.000000 0.000000
vt 0.000000 0.000000
vt 0.000000 0.000000
vt 0.029166 0.038887
vt 0.000000 0.000000
vt 0.000000 0.000000
vt 0.000000 0.000000
vt 0.020325 0.040649
vt 0.029166 0.019444
vn -0.4096 0.8917 0.1927
vn -0.0000 0.0823 0.9966
vn -0.9667 0.1957 0.1647
vn -0.2194 -0.9714 0.0908
vn 0.9667 0.1957 0.1647
vn 0.4096 0.8917 0.1927
vn 0.0000 0.9771 0.2130
vn 0.0000 1.0000 0.0000
vn -0.4174 0.9087 0.0000
vn 0.4174 0.9087 0.0000
vn 0.9917 0.1287 -0.0000
vn 0.0000 -0.0795 -0.9968
vn 0.1811 -0.9833 -0.0186
vn -0.9917 0.1287 0.0000
vn 0.2194 -0.9714 0.0908
vn 0.0609 -0.6372 -0.7683
vn -0.0609 -0.6372 -0.7683
vn -0.1811 -0.9833 -0.0186
usemtl Material.001
s off
f 5/1/1 7/2/1 10/3/1
f 4/4/2 3/5/2 7/6/2 8/7/2 12/8/2
f 8/9/3 7/2/3 5/1/3 6/10/3
f 8/7/4 6/10/4 11/11/4 12/8/4
f 2/12/5 1/13/5 3/5/5 4/4/5
f 1/13/6 9/14/6 3/5/6
f 7/2/7 3/5/7 9/14/7 10/3/7
f 10/3/8 9/14/8 15/15/8 16/16/8
f 16/16/9 14/17/9 5/1/9 10/3/9
f 13/18/10 15/15/10 9/14/10 1/13/10
f 21/19/11 22/20/11 13/18/11 1/13/11 2/12/11
f 16/16/12 15/15/12 13/18/12 22/20/12 17/21/12 19/22/12 14/17/12
f 11/11/13 18/23/13 21/19/13 2/12/13
f 19/22/14 20/24/14 6/10/14 5/1/14 14/17/14
f 12/8/15 11/11/15 2/12/15 4/4/15
f 21/19/16 18/23/16 17/21/16 22/20/16
f 19/22/17 17/21/17 18/23/17 20/24/17
f 11/11/18 6/10/18 20/24/18 18/23/18
o Cube.002_Cube
v 0.853106 -0.274152 -2.293822
v 0.853106 0.100894 -2.293822
v 0.977501 -0.364206 -4.638037
v 0.977501 0.381930 -4.638037
v 1.912726 -0.265503 -2.293822
v 1.912726 0.100894 -2.293822
v 1.879818 -0.364206 -4.638037
v 1.879818 0.381930 -4.638037
v 1.445807 -0.419356 -2.704676
v 0.902052 0.295379 -2.468720
v 1.823566 0.295379 -2.468720
v 0.836769 0.008862 -4.638037
v 1.428659 -0.480579 -4.638037
v 1.428659 0.498304 -4.638037
v 2.020550 0.008862 -4.638037
v 1.428659 0.008862 -4.638037
v 1.385151 0.412288 -2.500408
vt 0.500000 0.375000
vt 0.625000 0.375000
vt 0.625000 0.500000
vt 0.500000 0.500000
vt 0.375000 1.000000
vt 0.375000 0.250000
vt 0.375000 0.875000
vt 0.000000 0.000000
vt 0.875000 0.625000
vt 0.625000 0.625000
vt 0.375000 0.750000
vt 0.375000 0.500000
vt 0.375000 0.375000
vt 0.500000 0.250000
vt 0.625000 0.250000
vt 0.000000 0.000000
vt 0.875000 0.750000
vt 0.625000 0.750000
vn 0.0000 0.0000 -1.0000
vn -0.2210 -0.9749 0.0257
vn 0.0000 0.2616 0.9652
vn 0.2837 -0.9582 0.0364
vn -0.2496 -0.9678 0.0329
vn 0.0077 -0.9393 0.3430
vn 0.2495 0.9674 0.0440
vn 0.2544 0.9661 0.0451
vn -0.2496 0.9678 0.0339
vn -0.2332 0.9719 0.0307
vn 0.9352 0.3528 0.0292
vn 0.8938 0.4466 0.0410
vn -0.9745 0.2228 -0.0250
vn -0.9356 0.3529 -0.0073
vn 0.0000 0.0000 1.0000
vn 0.9821 -0.1869 0.0233
vn -0.9826 -0.1849 -0.0155
vn 0.2497 -0.9679 0.0284
vn 0.0000 0.6687 0.7436
usemtl None
s off
f 38/25/19 36/26/19 30/27/19 37/28/19
f 23/29/20 25/30/20 31/31/20
f 39/32/21 32/33/21 33/34/21
f 27/35/22 31/31/22 29/36/22
f 25/30/23 35/37/23 31/31/23
f 31/31/24 27/35/24 23/29/24
f 35/37/19 38/25/19 37/28/19 29/36/19
f 25/30/19 34/38/19 38/25/19 35/37/19
f 34/38/19 26/39/19 36/26/19 38/25/19
f 39/32/25 30/27/25 36/26/25
f 39/32/26 33/34/26 30/27/26
f 36/26/27 26/39/27 39/32/27
f 39/32/28 26/39/28 32/33/28
f 30/27/29 28/40/29 37/28/29
f 28/40/30 30/27/30 33/34/30
f 32/33/31 26/39/31 24/41/31
f 26/39/32 34/38/32 24/41/32
f 24/41/33 23/29/33 27/35/33 28/42/33
f 29/36/34 37/28/34 28/42/34 27/35/34
f 23/29/35 24/41/35 34/38/35 25/30/35
f 31/31/36 35/37/36 29/36/36
f 33/34/37 32/33/37 24/41/37 28/42/37
o BottomGunHolder_Cube.009
v 2.665089 -0.292448 -0.300659
v 2.811468 -0.248265 -0.400191
v 1.930553 -0.246705 -0.400191
v 2.076405 -0.291405 -0.300659
v 2.513799 0.061953 0.191820
v 2.473068 0.072591 -1.081634
v 2.229856 0.062456 0.191820
v 2.270419 0.072950 -1.081634
v 2.626169 -0.172602 0.138833
v 2.622072 -0.245023 0.003277
v 2.671089 -0.125531 0.138833
v 2.811718 -0.130930 -0.142478
v 2.071515 -0.124470 0.138833
v 1.930803 -0.129371 -0.142478
v 2.116268 -0.171699 0.138833
v 2.119977 -0.244134 0.003277
v 2.671520 0.063825 0.191820
v 2.812115 0.075069 -0.092748
v 1.931201 0.076628 -0.092748
v 2.071945 0.064887 0.191820
v 2.812479 -0.200348 -1.081634
v 2.811475 -0.268021 -0.938191
v 2.788032 -0.210376 -1.081634
v 2.665096 -0.312204 -0.963558
v 1.954273 -0.208900 -1.081634
v 2.076412 -0.311161 -0.963558
v 1.929862 -0.198785 -1.081634
v 1.930560 -0.266461 -0.938191
v 2.812115 0.075069 -0.941390
v 2.813025 0.073393 -1.081634
v 1.930407 0.074955 -1.081634
v 1.931201 0.076628 -0.941390
vt 0.666467 0.543655
vt 0.666467 0.750000
vt 0.561437 0.716457
vt 0.563834 0.544758
vt 0.625000 0.791467
vt 0.530136 0.791467
vt 0.478409 0.742100
vt 0.833533 0.543655
vt 0.833533 0.750000
vt 0.375000 0.270681
vt 0.384761 0.263995
vt 0.527603 0.311289
vt 0.532270 0.314970
vt 0.532270 0.435030
vt 0.527603 0.438711
vt 0.384761 0.486005
vt 0.375000 0.479319
vt 0.354319 0.750000
vt 0.354319 0.500000
vt 0.370766 0.500000
vt 0.404232 0.532294
vt 0.398411 0.727709
vt 0.373647 0.750000
vt 0.625000 0.958533
vt 0.530136 0.958533
vt 0.398411 0.022291
vt 0.478409 0.007900
vt 0.561437 0.033543
vt 0.563834 0.205242
vt 0.404232 0.217706
vt 0.145681 0.500000
vt 0.145681 0.750000
vt 0.136477 0.750000
vt 0.125000 0.727709
vt 0.125000 0.532294
vt 0.138995 0.500000
vt 0.375000 0.770681
vt 0.385124 0.761477
vt 0.431677 0.789988
vt 0.443101 0.803757
vt 0.443101 0.946243
vt 0.431677 0.960011
vt 0.385124 0.988523
vt 0.375000 0.979319
vt 0.500000 0.958533
vt 0.460731 0.993056
vt 0.452832 1.000000
vt 0.397747 1.000000
vt 0.530136 0.000000
vt 0.625000 0.000000
vt 0.564459 0.250000
vt 0.625000 0.291467
vt 0.625000 0.458533
vt 0.564459 0.500000
vt 0.625000 0.206345
vn -0.3002 -0.9534 0.0314
vn -0.5686 -0.7764 0.2719
vn -0.0018 -0.9996 0.0298
vn -0.0000 0.0000 -1.0000
vn 0.0248 0.9997 0.0060
vn -0.0017 -0.9881 0.1539
vn 1.0000 -0.0019 0.0000
vn -1.0000 0.0019 -0.0000
vn -0.0213 0.9998 0.0060
vn -0.0004 -0.2232 0.9748
vn 0.0018 1.0000 0.0083
vn 0.6672 -0.6617 0.3420
vn -0.6697 -0.6590 0.3424
vn -0.0016 -0.8820 0.4713
vn -0.8902 -0.1128 0.4414
vn 0.8899 -0.1165 0.4410
vn 0.5652 -0.7790 0.2716
vn 0.3307 -0.8558 -0.3979
vn -0.3343 -0.8543 -0.3981
vn -0.0013 -0.7566 -0.6539
vn 1.0000 -0.0019 0.0063
vn -1.0000 0.0020 0.0057
vn 0.2961 -0.9546 0.0314
usemtl None
s off
f 65/43/38 43/44/38 42/45/38 67/46/38
f 43/47/39 55/48/39 53/49/39 42/45/39
f 65/43/40 63/50/40 40/51/40 43/44/40
f 45/52/41 69/53/41 60/54/41 62/55/41 64/56/41 66/57/41 70/58/41 47/59/41
f 46/60/42 47/61/42 70/62/42 71/63/42 58/64/42 59/65/42
f 55/48/43 43/47/43 40/66/43 49/67/43
f 57/68/44 51/69/44 41/70/44 61/71/44 68/72/44
f 71/63/45 67/46/45 42/45/45 53/49/45 58/64/45
f 45/73/46 44/74/46 56/75/46 57/76/46 68/77/46 69/78/46
f 46/79/47 59/80/47 52/81/47 54/82/47 48/83/47 50/84/47 56/85/47 44/86/47
f 45/73/48 47/61/48 46/60/48 44/74/48
f 50/84/49 48/83/49 49/87/49 51/88/49
f 54/82/50 52/81/50 53/49/50 55/48/50
f 48/83/51 54/82/51 55/48/51 49/67/51
f 58/64/52 53/49/52 52/81/52 59/80/52
f 51/89/53 57/90/53 56/85/53 50/84/53
f 49/91/54 40/92/54 41/70/54 51/69/54
f 62/55/55 60/54/55 61/93/55 63/94/55
f 66/57/56 64/56/56 65/95/56 67/96/56
f 64/56/57 62/55/57 63/94/57 65/95/57
f 60/54/58 69/53/58 68/72/58 61/71/58
f 67/46/59 71/63/59 70/58/59 66/57/59
f 40/92/60 63/97/60 61/71/60 41/70/60
o TopGunHolder_Cube.005
v 2.076923 0.238790 -0.278492
v 1.930809 0.196235 -0.403391
v 2.811716 0.196235 -0.403391
v 2.665602 0.238790 -0.278492
v 2.229292 0.051242 0.191820
v 2.269939 0.063059 -1.081634
v 2.513233 0.051242 0.191820
v 2.472586 0.063059 -1.081634
v 2.116314 0.159290 0.191820
v 2.120217 0.193938 0.078433
v 2.071478 0.143368 0.191820
v 1.930809 0.149940 -0.092690
v 2.671047 0.143368 0.191820
v 2.811716 0.149940 -0.092690
v 2.626211 0.159290 0.191820
v 2.622308 0.193938 0.078433
v 2.071478 0.065255 0.191820
v 1.930809 0.075543 -0.092748
v 2.811716 0.075543 -0.092748
v 2.671047 0.065255 0.191820
v 1.929958 0.168548 -1.081634
v 1.930809 0.196235 -0.941390
v 1.954387 0.171949 -1.081634
v 2.076923 0.238790 -0.941390
v 2.788137 0.171949 -1.081634
v 2.665602 0.238790 -0.941390
v 2.812567 0.168548 -1.081634
v 2.811716 0.196235 -0.941390
v 1.930809 0.075543 -0.941390
v 1.929958 0.067095 -1.081634
v 2.812567 0.067095 -1.081634
v 2.811716 0.075543 -0.941390
vt 0.666467 0.543655
vt 0.666467 0.750000
vt 0.561437 0.716457
vt 0.563834 0.544758
vt 0.625000 0.791467
vt 0.530136 0.791467
vt 0.478409 0.742100
vt 0.833533 0.543655
vt 0.833533 0.750000
vt 0.375000 0.270681
vt 0.384761 0.263995
vt 0.527603 0.311289
vt 0.532270 0.314970
vt 0.532270 0.435030
vt 0.527603 0.438711
vt 0.384761 0.486005
vt 0.375000 0.479319
vt 0.354319 0.750000
vt 0.354319 0.500000
vt 0.370766 0.500000
vt 0.404232 0.532294
vt 0.398411 0.727709
vt 0.373647 0.750000
vt 0.625000 0.958533
vt 0.530136 0.958533
vt 0.398411 0.022291
vt 0.478409 0.007900
vt 0.561437 0.033543
vt 0.563834 0.205242
vt 0.404232 0.217706
vt 0.145681 0.500000
vt 0.145681 0.750000
vt 0.136477 0.750000
vt 0.125000 0.727709
vt 0.125000 0.532294
vt 0.138995 0.500000
vt 0.375000 0.770681
vt 0.385124 0.761477
vt 0.431677 0.789988
vt 0.443101 0.803757
vt 0.443101 0.946243
vt 0.431677 0.960011
vt 0.385124 0.988523
vt 0.375000 0.979319
vt 0.500000 0.958533
vt 0.460731 0.993056
vt 0.452832 1.000000
vt 0.397747 1.000000
vt 0.530136 0.000000
vt 0.625000 0.000000
vt 0.564459 0.250000
vt 0.625000 0.291467
vt 0.625000 0.458533
vt 0.564459 0.500000
vt 0.625000 0.206345
vn 0.2796 0.9601 0.0000
vn 0.3683 0.9177 0.1492
vn 0.0000 1.0000 0.0000
vn -0.0000 0.0000 -1.0000
vn 0.0553 -0.9985 -0.0017
vn 0.0000 0.9922 0.1247
vn -1.0000 -0.0000 0.0000
vn 1.0000 0.0000 0.0000
vn -0.0553 -0.9985 -0.0017
vn -0.0000 0.0000 1.0000
vn 0.0000 -1.0000 -0.0093
vn -0.3941 0.8904 0.2277
vn 0.3941 0.8904 0.2277
vn 0.0000 0.9563 0.2922
vn 0.8964 -0.0002 0.4432
vn -0.8964 -0.0002 0.4432
vn -0.3683 0.9177 0.1492
vn -0.2546 0.9448 -0.2064
vn 0.2546 0.9448 -0.2064
vn 0.0000 0.9027 -0.4302
vn -1.0000 0.0000 0.0061
vn 1.0000 0.0000 0.0061
vn -0.2796 0.9601 0.0000
usemtl None
s off
f 97/98/61 75/99/61 74/100/61 99/101/61
f 75/102/62 87/103/62 85/104/62 74/100/62
f 97/98/63 95/105/63 72/106/63 75/99/63
f 77/107/64 101/108/64 92/109/64 94/110/64 96/111/64 98/112/64 102/113/64 79/114/64
f 78/115/65 79/116/65 102/117/65 103/118/65 90/119/65 91/120/65
f 87/103/66 75/102/66 72/121/66 81/122/66
f 89/123/67 83/124/67 73/125/67 93/126/67 100/127/67
f 103/118/68 99/101/68 74/100/68 85/104/68 90/119/68
f 77/128/69 76/129/69 88/130/69 89/131/69 100/132/69 101/133/69
f 78/134/70 91/135/70 84/136/70 86/137/70 80/138/70 82/139/70 88/140/70 76/141/70
f 77/128/71 79/116/71 78/115/71 76/129/71
f 82/139/72 80/138/72 81/142/72 83/143/72
f 86/137/73 84/136/73 85/104/73 87/103/73
f 80/138/74 86/137/74 87/103/74 81/122/74
f 90/119/75 85/104/75 84/136/75 91/135/75
f 83/144/76 89/145/76 88/140/76 82/139/76
f 81/146/77 72/147/77 73/125/77 83/124/77
f 94/110/78 92/109/78 93/148/78 95/149/78
f 98/112/79 96/111/79 97/150/79 99/151/79
f 96/111/80 94/110/80 95/149/80 97/150/80
f 92/109/81 101/108/81 100/127/81 93/126/81
f 99/101/82 103/118/82 102/113/82 98/112/82
f 72/147/83 95/152/83 93/126/83 73/125/83
o Cube.003_Cube.010
v -0.961863 -0.275735 -2.293822
v -0.961863 0.100894 -2.293822
v -1.086258 -0.364206 -4.638037
v -1.086258 0.381930 -4.638037
v -2.021483 -0.267086 -2.293822
v -2.021483 0.100894 -2.293822
v -1.988574 -0.364206 -4.638037
v -1.988574 0.381930 -4.638037
v -1.554563 -0.382953 -2.704676
v -1.010809 0.295379 -2.468720
v -1.932322 0.295379 -2.468720
v -0.945525 0.008862 -4.638037
v -1.537416 -0.480579 -4.638037
v -1.537416 0.498304 -4.638037
v -2.129306 0.008862 -4.638037
v -1.537416 0.008862 -4.638037
v -1.493908 0.412288 -2.500408
vt 0.500000 0.375000
vt 0.500000 0.500000
vt 0.625000 0.500000
vt 0.625000 0.375000
vt 0.375000 1.000000
vt 0.375000 0.875000
vt 0.375000 0.250000
vt 0.000000 0.000000
vt 0.625000 0.625000
vt 0.875000 0.625000
vt 0.375000 0.750000
vt 0.375000 0.500000
vt 0.375000 0.375000
vt 0.500000 0.250000
vt 0.625000 0.250000
vt 0.000000 0.000000
vt 0.875000 0.750000
vt 0.625000 0.750000
vn 0.0000 0.0000 -1.0000
vn 0.1585 -0.9869 0.0288
vn 0.0000 0.2616 0.9652
vn -0.2094 -0.9771 0.0375
vn 0.2494 -0.9670 0.0510
vn -0.0079 -0.9647 0.2631
vn -0.2495 0.9674 0.0440
vn -0.2544 0.9661 0.0451
vn 0.2496 0.9678 0.0339
vn 0.2332 0.9719 0.0307
vn -0.9352 0.3528 0.0292
vn -0.8938 0.4466 0.0410
vn 0.9745 0.2228 -0.0250
vn 0.9356 0.3529 -0.0073
vn 0.0000 0.0000 1.0000
vn -0.9822 -0.1865 0.0232
vn 0.9827 -0.1845 -0.0155
vn -0.2495 -0.9673 0.0466
vn 0.0000 0.6687 0.7436
usemtl None
s off
f 119/153/84 118/154/84 111/155/84 117/156/84
f 104/157/85 112/158/85 106/159/85
f 120/160/86 114/161/86 113/162/86
f 108/163/87 110/164/87 112/158/87
f 106/159/88 112/158/88 116/165/88
f 112/158/89 104/157/89 108/163/89
f 116/165/84 110/164/84 118/154/84 119/153/84
f 106/159/84 116/165/84 119/153/84 115/166/84
f 115/166/84 119/153/84 117/156/84 107/167/84
f 120/160/90 117/156/90 111/155/90
f 120/160/91 111/155/91 114/161/91
f 117/156/92 120/160/92 107/167/92
f 120/160/93 113/162/93 107/167/93
f 111/155/94 118/154/94 109/168/94
f 109/168/95 114/161/95 111/155/95
f 113/162/96 105/169/96 107/167/96
f 107/167/97 105/169/97 115/166/97
f 105/169/98 109/170/98 108/163/98 104/157/98
f 110/164/99 108/163/99 109/170/99 118/154/99
f 104/157/100 106/159/100 115/166/100 105/169/100
f 112/158/101 110/164/101 116/165/101
f 114/161/102 109/170/102 105/169/102 113/162/102
o BottomGunHolder.001_Cube.013
v -2.727079 -0.292448 -0.300659
v -2.873458 -0.248265 -0.400191
v -1.992543 -0.246705 -0.400191
v -2.138395 -0.291405 -0.300659
v -2.575789 0.061953 0.191820
v -2.535058 0.072591 -1.081634
v -2.291846 0.062456 0.191820
v -2.332408 0.072950 -1.081634
v -2.688159 -0.172602 0.138833
v -2.684062 -0.245023 0.003277
v -2.733079 -0.125531 0.138833
v -2.873708 -0.130930 -0.142478
v -2.133505 -0.124470 0.138833
v -1.992793 -0.129371 -0.142478
v -2.178258 -0.171699 0.138833
v -2.181966 -0.244134 0.003277
v -2.733510 0.063825 0.191820
v -2.874105 0.075069 -0.092748
v -1.993190 0.076628 -0.092748
v -2.133935 0.064887 0.191820
v -2.874469 -0.200348 -1.081634
v -2.873465 -0.268021 -0.938191
v -2.850022 -0.210376 -1.081634
v -2.727086 -0.312204 -0.963558
v -2.016263 -0.208900 -1.081634
v -2.138402 -0.311161 -0.963558
v -1.991852 -0.198785 -1.081634
v -1.992550 -0.266461 -0.938191
v -2.874105 0.075069 -0.941390
v -2.875014 0.073393 -1.081634
v -1.992397 0.074955 -1.081634
v -1.993190 0.076628 -0.941390
vt 0.666467 0.543655
vt 0.563834 0.544758
vt 0.561437 0.716457
vt 0.666467 0.750000
vt 0.625000 0.791467
vt 0.478409 0.742100
vt 0.530136 0.791467
vt 0.833533 0.750000
vt 0.833533 0.543655
vt 0.375000 0.270681
vt 0.375000 0.479319
vt 0.384761 0.486005
vt 0.527603 0.438711
vt 0.532270 0.435030
vt 0.532270 0.314970
vt 0.527603 0.311289
vt 0.384761 0.263995
vt 0.354319 0.750000
vt 0.373647 0.750000
vt 0.398411 0.727709
vt 0.404232 0.532294
vt 0.370766 0.500000
vt 0.354319 0.500000
vt 0.530136 0.958533
vt 0.625000 0.958533
vt 0.398411 0.022291
vt 0.404232 0.217706
vt 0.563834 0.205242
vt 0.561437 0.033543
vt 0.478409 0.007900
vt 0.145681 0.500000
vt 0.138995 0.500000
vt 0.125000 0.532294
vt 0.125000 0.727709
vt 0.136477 0.750000
vt 0.145681 0.750000
vt 0.375000 0.770681
vt 0.375000 0.979319
vt 0.385124 0.988523
vt 0.431677 0.960011
vt 0.443101 0.946243
vt 0.443101 0.803757
vt 0.431677 0.789988
vt 0.385124 0.761477
vt 0.460731 0.993056
vt 0.500000 0.958533
vt 0.452832 1.000000
vt 0.397747 1.000000
vt 0.530136 0.000000
vt 0.625000 0.000000
vt 0.625000 0.291467
vt 0.564459 0.250000
vt 0.564459 0.500000
vt 0.625000 0.458533
vt 0.625000 0.206345
vn 0.3002 -0.9534 0.0314
vn 0.5686 -0.7764 0.2719
vn 0.0018 -0.9996 0.0298
vn 0.0000 0.0000 -1.0000
vn -0.0248 0.9997 0.0060
vn 0.0017 -0.9881 0.1539
vn -1.0000 -0.0019 0.0000
vn 1.0000 0.0019 -0.0000
vn 0.0213 0.9998 0.0060
vn 0.0004 -0.2232 0.9748
vn -0.0018 1.0000 0.0083
vn -0.6672 -0.6617 0.3420
vn 0.6697 -0.6590 0.3424
vn 0.0016 -0.8820 0.4713
vn 0.8902 -0.1128 0.4414
vn -0.8899 -0.1165 0.4410
vn -0.5652 -0.7790 0.2716
vn -0.3307 -0.8558 -0.3979
vn 0.3343 -0.8543 -0.3981
vn 0.0013 -0.7566 -0.6539
vn -1.0000 -0.0019 0.0063
vn 1.0000 0.0020 0.0057
vn -0.2961 -0.9546 0.0314
usemtl None
s off
f 146/171/103 148/172/103 123/173/103 124/174/103
f 124/175/104 123/173/104 134/176/104 136/177/104
f 146/171/105 124/174/105 121/178/105 144/179/105
f 126/180/106 128/181/106 151/182/106 147/183/106 145/184/106 143/185/106 141/186/106 150/187/106
f 127/188/107 140/189/107 139/190/107 152/191/107 151/192/107 128/193/107
f 136/177/108 130/194/108 121/195/108 124/175/108
f 138/196/109 149/197/109 142/198/109 122/199/109 132/200/109
f 152/191/110 139/190/110 134/176/110 123/173/110 148/172/110
f 126/201/111 150/202/111 149/203/111 138/204/111 137/205/111 125/206/111
f 127/207/112 125/208/112 137/209/112 131/210/112 129/211/112 135/212/112 133/213/112 140/214/112
f 126/201/113 125/206/113 127/188/113 128/193/113
f 131/210/114 132/215/114 130/216/114 129/211/114
f 135/212/115 136/177/115 134/176/115 133/213/115
f 129/211/116 130/194/116 136/177/116 135/212/116
f 139/190/117 140/214/117 133/213/117 134/176/117
f 132/217/118 131/210/118 137/209/118 138/218/118
f 130/219/119 132/200/119 122/199/119 121/220/119
f 143/185/120 144/221/120 142/222/120 141/186/120
f 147/183/121 148/223/121 146/224/121 145/184/121
f 145/184/122 146/224/122 144/221/122 143/185/122
f 141/186/123 142/198/123 149/197/123 150/187/123
f 148/172/124 147/183/124 151/182/124 152/191/124
f 121/220/125 122/199/125 142/198/125 144/225/125
o TopGunHolder.001_Cube.014
v -2.138913 0.238790 -0.278492
v -1.992799 0.196235 -0.403391
v -2.873705 0.196235 -0.403391
v -2.727592 0.238790 -0.278492
v -2.291282 0.051242 0.191820
v -2.331928 0.063059 -1.081634
v -2.575222 0.051242 0.191820
v -2.534576 0.063059 -1.081634
v -2.178304 0.159290 0.191820
v -2.182207 0.193938 0.078433
v -2.133468 0.143368 0.191820
v -1.992799 0.149940 -0.092690
v -2.733037 0.143368 0.191820
v -2.873705 0.149940 -0.092690
v -2.688200 0.159290 0.191820
v -2.684298 0.193938 0.078433
v -2.133468 0.065255 0.191820
v -1.992799 0.075543 -0.092748
v -2.873705 0.075543 -0.092748
v -2.733037 0.065255 0.191820
v -1.991948 0.168548 -1.081634
v -1.992799 0.196235 -0.941390
v -2.016377 0.171949 -1.081634
v -2.138913 0.238790 -0.941390
v -2.850127 0.171949 -1.081634
v -2.727592 0.238790 -0.941390
v -2.874556 0.168548 -1.081634
v -2.873705 0.196235 -0.941390
v -1.992799 0.075543 -0.941390
v -1.991948 0.067095 -1.081634
v -2.874556 0.067095 -1.081634
v -2.873705 0.075543 -0.941390
vt 0.666467 0.543655
vt 0.563834 0.544758
vt 0.561437 0.716457
vt 0.666467 0.750000
vt 0.625000 0.791467
vt 0.478409 0.742100
vt 0.530136 0.791467
vt 0.833533 0.750000
vt 0.833533 0.543655
vt 0.375000 0.270681
vt 0.375000 0.479319
vt 0.384761 0.486005
vt 0.527603 0.438711
vt 0.532270 0.435030
vt 0.532270 0.314970
vt 0.527603 0.311289
vt 0.384761 0.263995
vt 0.354319 0.750000
vt 0.373647 0.750000
vt 0.398411 0.727709
vt 0.404232 0.532294
vt 0.370766 0.500000
vt 0.354319 0.500000
vt 0.530136 0.958533
vt 0.625000 0.958533
vt 0.398411 0.022291
vt 0.404232 0.217706
vt 0.563834 0.205242
vt 0.561437 0.033543
vt 0.478409 0.007900
vt 0.145681 0.500000
vt 0.138995 0.500000
vt 0.125000 0.532294
vt 0.125000 0.727709
vt 0.136477 0.750000
vt 0.145681 0.750000
vt 0.375000 0.770681
vt 0.375000 0.979319
vt 0.385124 0.988523
vt 0.431677 0.960011
vt 0.443101 0.946243
vt 0.443101 0.803757
vt 0.431677 0.789988
vt 0.385124 0.761477
vt 0.460731 0.993056
vt 0.500000 0.958533
vt 0.452832 1.000000
vt 0.397747 1.000000
vt 0.530136 0.000000
vt 0.625000 0.000000
vt 0.625000 0.291467
vt 0.564459 0.250000
vt 0.564459 0.500000
vt 0.625000 0.458533
vt 0.625000 0.206345
vn -0.2796 0.9601 0.0000
vn -0.3683 0.9177 0.1492
vn 0.0000 1.0000 0.0000
vn 0.0000 0.0000 -1.0000
vn -0.0553 -0.9985 -0.0017
vn 0.0000 0.9922 0.1247
vn 1.0000 -0.0000 0.0000
vn -1.0000 0.0000 0.0000
vn 0.0553 -0.9985 -0.0017
vn 0.0000 0.0000 1.0000
vn 0.0000 -1.0000 -0.0093
vn 0.3941 0.8904 0.2277
vn -0.3941 0.8904 0.2277
vn 0.0000 0.9563 0.2922
vn -0.8964 -0.0002 0.4432
vn 0.8964 -0.0002 0.4432
vn 0.3683 0.9177 0.1492
vn 0.2546 0.9448 -0.2064
vn -0.2546 0.9448 -0.2064
vn 0.0000 0.9027 -0.4302
vn 1.0000 0.0000 0.0061
vn -1.0000 0.0000 0.0061
vn 0.2796 0.9601 0.0000
usemtl None
s off
f 178/226/126 180/227/126 155/228/126 156/229/126
f 156/230/127 155/228/127 166/231/127 168/232/127
f 178/226/128 156/229/128 153/233/128 176/234/128
f 158/235/129 160/236/129 183/237/129 179/238/129 177/239/129 175/240/129 173/241/129 182/242/129
f 159/243/130 172/244/130 171/245/130 184/246/130 183/247/130 160/248/130
f 168/232/131 162/249/131 153/250/131 156/230/131
f 170/251/132 181/252/132 174/253/132 154/254/132 164/255/132
f 184/246/133 171/245/133 166/231/133 155/228/133 180/227/133
f 158/256/134 182/257/134 181/258/134 170/259/134 169/260/134 157/261/134
f 159/262/135 157/263/135 169/264/135 163/265/135 161/266/135 167/267/135 165/268/135 172/269/135
f 158/256/136 157/261/136 159/243/136 160/248/136
f 163/265/137 164/270/137 162/271/137 161/266/137
f 167/267/138 168/232/138 166/231/138 165/268/138
f 161/266/139 162/249/139 168/232/139 167/267/139
f 171/245/140 172/269/140 165/268/140 166/231/140
f 164/272/141 163/265/141 169/264/141 170/273/141
f 162/274/142 164/255/142 154/254/142 153/275/142
f 175/240/143 176/276/143 174/277/143 173/241/143
f 179/238/144 180/278/144 178/279/144 177/239/144
f 177/239/145 178/279/145 176/276/145 175/240/145
f 173/241/146 174/253/146 181/252/146 182/242/146
f 180/227/147 179/238/147 183/237/147 184/246/147
f 153/275/148 154/254/148 174/253/148 176/280/148
