# Blender v3.2.2 OBJ File: 'lvl_9.blend'
# www.blender.org
mtllib FinScrews.mtl
o Fin_Screws_Cylinder
v 7.903487 1.402758 -11.253939
v 7.903487 -0.445509 -11.253939
v 7.846910 1.402758 -11.265193
v 7.846910 -0.445509 -11.265193
v 7.780559 1.402758 -11.319646
v 7.780559 -0.445509 -11.319646
v 7.755643 1.402758 -11.401784
v 7.755643 -0.445509 -11.401784
v 7.766897 1.402758 -11.458362
v 7.766897 -0.445509 -11.458362
v 7.821349 1.402758 -11.524712
v 7.821349 -0.445509 -11.524712
v 7.874644 1.402758 -11.546787
v 7.874644 -0.445509 -11.546787
v 7.932331 1.402758 -11.546787
v 7.932331 -0.445509 -11.546787
v 8.008029 1.402758 -11.506326
v 8.008029 -0.445509 -11.506326
v 8.040078 1.402758 -11.458362
v 8.040078 -0.445509 -11.458362
v 8.048491 1.402758 -11.372941
v 8.048491 -0.445509 -11.372941
v 8.008029 1.402758 -11.297242
v 8.008029 -0.445509 -11.297242
v 7.960065 1.402758 -11.265193
v 7.960065 -0.445509 -11.265193
v 7.903487 1.402758 11.264299
v 7.903487 -0.445509 11.264299
v 7.846910 1.402758 11.275555
v 7.846910 -0.445509 11.275555
v 7.780559 1.402758 11.330006
v 7.780559 -0.445509 11.330006
v 7.755643 1.402758 11.412144
v 7.755643 -0.445509 11.412144
v 7.766897 1.402758 11.468723
v 7.766897 -0.445509 11.468723
v 7.821349 1.402758 11.535072
v 7.821349 -0.445509 11.535072
v 7.874644 1.402758 11.557148
v 7.874644 -0.445509 11.557148
v 7.932331 1.402758 11.557148
v 7.932331 -0.445509 11.557148
v 8.008029 1.402758 11.516685
v 8.008029 -0.445509 11.516685
v 8.040078 1.402758 11.468723
v 8.040078 -0.445509 11.468723
v 8.048491 1.402758 11.383301
v 8.048491 -0.445509 11.383301
v 8.008029 1.402758 11.307602
v 8.008029 -0.445509 11.307602
v 7.960065 1.402758 11.275555
v 7.960065 -0.445509 11.275555
vt 0.593750 1.000000
vt 0.593750 0.500000
vt 0.531250 0.500000
vt 0.531250 1.000000
vt 0.843750 1.000000
vt 0.843750 0.500000
vt 0.750000 0.500000
vt 0.750000 1.000000
vt 0.468750 1.000000
vt 0.468750 0.500000
vt 0.375000 0.500000
vt 0.375000 1.000000
vt 1.000000 1.000000
vt 1.000000 0.500000
vt 0.937500 0.500000
vt 0.937500 1.000000
vt 0.312500 1.000000
vt 0.312500 0.500000
vt 0.218750 0.500000
vt 0.218750 1.000000
vt 0.125000 0.500000
vt 0.125000 1.000000
vt 0.687500 1.000000
vt 0.687500 0.500000
vt 0.062500 1.000000
vt 0.062500 0.500000
vt 0.000000 0.500000
vt 0.000000 1.000000
vt 0.250000 0.490000
vt 0.341844 0.471731
vt 0.449553 0.383337
vt 0.490000 0.250000
vt 0.471731 0.158156
vt 0.383337 0.050447
vt 0.296822 0.014612
vt 0.203178 0.014612
vt 0.080294 0.080294
vt 0.028269 0.158156
vt 0.014612 0.296822
vt 0.080294 0.419706
vt 0.158156 0.471731
vt 0.750000 0.490000
vt 0.658156 0.471731
vt 0.580294 0.419706
vt 0.514612 0.296822
vt 0.528269 0.158156
vt 0.580294 0.080294
vt 0.703178 0.014612
vt 0.796822 0.014612
vt 0.883337 0.050447
vt 0.971731 0.158156
vt 0.990000 0.250000
vt 0.949553 0.383337
vt 0.841844 0.471731
vt 0.593750 1.000000
vt 0.593750 0.500000
vt 0.531250 0.500000
vt 0.531250 1.000000
vt 0.843750 1.000000
vt 0.843750 0.500000
vt 0.750000 0.500000
vt 0.750000 1.000000
vt 0.468750 1.000000
vt 0.468750 0.500000
vt 0.375000 0.500000
vt 0.375000 1.000000
vt 1.000000 1.000000
vt 1.000000 0.500000
vt 0.937500 0.500000
vt 0.937500 1.000000
vt 0.312500 1.000000
vt 0.312500 0.500000
vt 0.218750 0.500000
vt 0.218750 1.000000
vt 0.125000 0.500000
vt 0.125000 1.000000
vt 0.687500 1.000000
vt 0.687500 0.500000
vt 0.062500 1.000000
vt 0.062500 0.500000
vt 0.000000 0.500000
vt 0.000000 1.000000
vt 0.250000 0.490000
vt 0.341844 0.471731
vt 0.449553 0.383337
vt 0.490000 0.250000
vt 0.471731 0.158156
vt 0.383337 0.050447
vt 0.296822 0.014612
vt 0.203178 0.014612
vt 0.080294 0.080294
vt 0.028269 0.158156
vt 0.014612 0.296822
vt 0.080294 0.419706
vt 0.158156 0.471731
vt 0.750000 0.490000
vt 0.658156 0.471731
vt 0.580294 0.419706
vt 0.514612 0.296822
vt 0.528269 0.158156
vt 0.580294 0.080294
vt 0.703178 0.014612
vt 0.796822 0.014612
vt 0.883337 0.050447
vt 0.971731 0.158156
vt 0.990000 0.250000
vt 0.949553 0.383337
vt 0.841844 0.471731
vn -0.3827 0.0000 -0.9239
vn -0.9569 0.0000 0.2903
vn 0.4714 0.0000 -0.8819
vn -0.1951 0.0000 0.9808
vn 0.9952 0.0000 -0.0980
vn 0.8819 0.0000 0.4714
vn -0.7730 0.0000 -0.6344
vn -0.9808 0.0000 -0.1951
vn 0.8315 0.0000 -0.5556
vn 0.1951 0.0000 0.9808
vn -0.6344 0.0000 0.7730
vn 0.0000 0.0000 -1.0000
vn 0.0000 -1.0000 0.0000
vn 0.5556 0.0000 0.8315
vn 0.0000 1.0000 -0.0000
vn 0.3827 0.0000 -0.9239
vn 0.9569 0.0000 0.2903
vn -0.4714 0.0000 -0.8819
vn -0.9952 0.0000 -0.0980
vn -0.8819 0.0000 0.4714
vn 0.7730 0.0000 -0.6344
vn 0.9808 0.0000 -0.1951
vn -0.8315 0.0000 -0.5556
vn 0.6344 0.0000 0.7730
vn -0.5556 0.0000 0.8315
usemtl None
s off
f 12/1/1 11/2/1 13/3/1 14/4/1
f 6/5/2 5/6/2 7/7/2 8/8/2
f 16/9/3 15/10/3 17/11/3 18/12/3
f 2/13/4 1/14/4 3/15/4 4/16/4
f 20/17/5 19/18/5 21/19/5 22/20/5
f 22/20/6 21/19/6 23/21/6 24/22/6
f 10/23/7 9/24/7 11/2/7 12/1/7
f 8/8/8 7/7/8 9/24/8 10/23/8
f 18/12/9 17/11/9 19/18/9 20/17/9
f 26/25/10 25/26/10 1/27/10 2/28/10
f 4/16/11 3/15/11 5/6/11 6/5/11
f 14/4/12 13/3/12 15/10/12 16/9/12
f 2/29/13 4/30/13 6/31/13 8/32/13 10/33/13 12/34/13 14/35/13 16/36/13 18/37/13 20/38/13 22/39/13 24/40/13 26/41/13
f 24/22/14 23/21/14 25/26/14 26/25/14
f 1/42/15 25/43/15 23/44/15 21/45/15 19/46/15 17/47/15 15/48/15 13/49/15 11/50/15 9/51/15 7/52/15 5/53/15 3/54/15
f 38/55/16 37/56/16 39/57/16 40/58/16
f 32/59/17 31/60/17 33/61/17 34/62/17
f 42/63/18 41/64/18 43/65/18 44/66/18
f 28/67/10 27/68/10 29/69/10 30/70/10
f 46/71/19 45/72/19 47/73/19 48/74/19
f 48/74/20 47/73/20 49/75/20 50/76/20
f 36/77/21 35/78/21 37/56/21 38/55/21
f 34/62/22 33/61/22 35/78/22 36/77/22
f 44/66/23 43/65/23 45/72/23 46/71/23
f 52/79/4 51/80/4 27/81/4 28/82/4
f 30/70/24 29/69/24 31/60/24 32/59/24
f 40/58/12 39/57/12 41/64/12 42/63/12
f 28/83/15 30/84/15 32/85/15 34/86/15 36/87/15 38/88/15 40/89/15 42/90/15 44/91/15 46/92/15 48/93/15 50/94/15 52/95/15
f 50/76/25 49/75/25 51/80/25 52/79/25
f 27/96/13 51/97/13 49/98/13 47/99/13 45/100/13 43/101/13 41/102/13 39/103/13 37/104/13 35/105/13 33/106/13 31/107/13 29/108/13
