# Blender v3.2.2 OBJ File: 'lvl_9.blend'
# www.blender.org
mtllib FrontJet.mtl
o FrontJet_Cube.015
v -5.539204 2.153837 -8.222653
v -5.539574 1.983725 -7.750596
v -5.539574 1.173607 -7.313937
v -5.539574 -0.145649 -7.320259
v -5.539574 -0.955768 -7.713808
v -5.539204 -1.173131 -8.199830
v -5.539637 1.983725 -8.687997
v -5.540228 1.173606 -9.124656
v -5.540220 -0.145649 -9.118333
v -5.539687 -0.955767 -8.724786
v -4.744505 2.153837 -8.222653
v -4.744874 1.983725 -7.750596
v -4.744874 1.173607 -7.313937
v -4.744874 -0.145649 -7.320259
v -4.744874 -0.955768 -7.713808
v -4.744505 -1.173131 -8.199830
v -4.744938 1.983725 -8.687997
v -4.745529 1.173606 -9.124656
v -4.745522 -0.145649 -9.118333
v -4.744988 -0.955767 -8.724786
v -5.539204 2.153837 8.233018
v -5.539574 1.983725 7.760961
v -5.539574 1.173606 7.324302
v -5.539574 -0.145649 7.330625
v -5.539574 -0.955768 7.724174
v -5.539204 -1.173132 8.210196
v -5.539637 1.983726 8.698361
v -5.540228 1.173607 9.135020
v -5.540220 -0.145649 9.128699
v -5.539687 -0.955767 8.735150
v -4.744505 2.153837 8.233018
v -4.744874 1.983725 7.760961
v -4.744874 1.173606 7.324302
v -4.744874 -0.145649 7.330625
v -4.744874 -0.955768 7.724174
v -4.744505 -1.173132 8.210196
v -4.744938 1.983726 8.698361
v -4.745529 1.173607 9.135020
v -4.745522 -0.145649 9.128699
v -4.744988 -0.955767 8.735150
vt 0.000000 0.000000
vt 0.000000 0.000000
vt 0.000000 0.000000
vt 0.000000 0.000000
vt 0.000000 0.000000
vt 0.000000 0.000000
vt 0.000000 0.000000
vt 0.000000 0.000000
vt 0.000000 0.000000
vt 0.000000 0.000000
vt 0.000000 0.000000
vt 0.000000 0.000000
vt 0.000000 0.000000
vt 0.000000 0.000000
vt 0.000000 0.000000
vt 0.000000 0.000000
vt 0.000000 0.000000
vt 0.000000 0.000000
vt 0.000000 0.000000
vt 0.000000 0.000000
vt 0.000000 0.000000
vt 0.000000 0.000000
vt 0.000000 0.000000
vt 0.000000 0.000000
vt 0.000000 0.000000
vt 0.000000 0.000000
vt 0.000000 0.000000
vt 0.000000 0.000000
vt 0.000000 0.000000
vt 0.000000 0.000000
vt 0.000000 0.000000
vt 0.000000 0.000000
vt 0.000000 0.000000
vt 0.000000 0.000000
vt 0.000000 0.000000
vt 0.000000 0.000000
vt 0.000000 0.000000
vt 0.000000 0.000000
vt 0.000000 0.000000
vt 0.000000 0.000000
vn -1.0000 -0.0000 0.0003
vn 0.0000 0.9408 0.3390
vn 0.0000 0.4745 0.8803
vn 0.0000 -0.0048 1.0000
vn 0.0000 -0.4370 0.8995
vn 0.0000 -0.9129 0.4083
vn 0.0000 -0.9239 -0.3826
vn 0.0000 -0.4370 -0.8995
vn 0.0000 -0.0048 -1.0000
vn 0.0000 0.4745 -0.8803
vn 0.0000 0.9392 -0.3433
vn 1.0000 0.0000 0.0003
vn 0.0000 -0.9408 0.3390
vn 0.0000 -0.4745 0.8803
vn 0.0000 0.0048 1.0000
vn 0.0000 0.4370 0.8995
vn 0.0000 0.9129 0.4083
vn 0.0000 0.9239 -0.3826
vn 0.0000 0.4370 -0.8995
vn 0.0000 0.0048 -1.0000
vn 0.0000 -0.4745 -0.8803
vn 0.0000 -0.9392 -0.3433
usemtl None
s off
f 2/1/1 1/2/1 7/3/1 8/4/1 9/5/1 10/6/1 6/7/1 5/8/1 4/9/1 3/10/1
f 1/2/2 2/1/2 12/11/2 11/12/2
f 2/1/3 3/10/3 13/13/3 12/11/3
f 3/10/4 4/9/4 14/14/4 13/13/4
f 4/9/5 5/8/5 15/15/5 14/14/5
f 5/8/6 6/7/6 16/16/6 15/15/6
f 6/7/7 10/6/7 20/17/7 16/16/7
f 10/6/8 9/5/8 19/18/8 20/17/8
f 9/5/9 8/4/9 18/19/9 19/18/9
f 8/4/10 7/3/10 17/20/10 18/19/10
f 7/3/11 1/2/11 11/12/11 17/20/11
f 22/21/12 21/22/12 27/23/12 28/24/12 29/25/12 30/26/12 26/27/12 25/28/12 24/29/12 23/30/12
f 21/22/13 22/21/13 32/31/13 31/32/13
f 22/21/14 23/30/14 33/33/14 32/31/14
f 23/30/15 24/29/15 34/34/15 33/33/15
f 24/29/16 25/28/16 35/35/16 34/34/16
f 25/28/17 26/27/17 36/36/17 35/35/17
f 26/27/18 30/26/18 40/37/18 36/36/18
f 30/26/19 29/25/19 39/38/19 40/37/19
f 29/25/20 28/24/20 38/39/20 39/38/20
f 28/24/21 27/23/21 37/40/21 38/39/21
f 27/23/22 21/22/22 31/32/22 37/40/22
