# Blender v3.2.2 OBJ File: 'lvl_9.blend'
# www.blender.org
mtllib FrontSpikes.mtl
o FrontSpikes_Cube.002
v -9.370199 2.566543 2.223775
v -9.370199 -1.661662 2.223775
v -9.919991 -1.617748 3.051172
v -9.919991 2.538480 3.051172
v -13.008203 2.091330 0.670380
v -13.008203 -1.186449 0.670380
v -9.370199 -1.661662 -2.175430
v -9.370199 2.566542 -2.175430
v -9.919991 2.538480 -3.002826
v -9.919991 -1.617748 -3.002827
v -13.008204 -1.186449 -0.622035
v -13.008204 2.091330 -0.622035
v -23.727442 1.446912 1.843839
v -22.350754 2.091330 1.693130
v -22.350754 -1.186449 1.693130
v -23.727442 -0.542031 1.843839
v -12.075154 2.035517 4.833524
v -12.579686 1.446912 5.250779
v -12.579686 -0.542032 5.250779
v -12.075154 -1.193564 4.833523
v -23.727440 -0.542031 -1.795493
v -22.350754 -1.186449 -1.644785
v -22.350754 2.091330 -1.644785
v -23.727440 1.446912 -1.795494
v -12.075155 -1.193564 -4.785179
v -12.579686 -0.542031 -5.202433
v -12.579686 1.446913 -5.202433
v -12.075155 2.035517 -4.785179
vt 0.375000 0.437500
vt 0.625000 0.437500
vt 0.625000 0.500000
vt 0.375000 0.500000
vt 0.687500 0.500000
vt 0.738144 0.500000
vt 0.858946 0.750000
vt 0.750000 0.750000
vt 0.375000 0.875000
vt 0.625000 0.875000
vt 0.625000 0.983946
vt 0.575850 1.000000
vt 0.424150 1.000000
vt 0.375000 0.983946
vt 0.375000 0.386856
vt 0.424150 0.375000
vt 0.575850 0.375000
vt 0.625000 0.386856
vt 0.141054 0.532108
vt 0.261856 0.500000
vt 0.312500 0.500000
vt 0.375000 0.750000
vt 0.250000 0.750000
vt 0.424150 0.250000
vt 0.575850 0.250000
vt 0.575850 0.375000
vt 0.424150 0.375000
vt 0.625000 0.750000
vt 0.375000 0.437500
vt 0.625000 0.437500
vt 0.625000 0.500000
vt 0.375000 0.500000
vt 0.687500 0.500000
vt 0.738144 0.500000
vt 0.858946 0.750000
vt 0.750000 0.750000
vt 0.375000 0.875000
vt 0.625000 0.875000
vt 0.625000 0.983946
vt 0.575850 1.000000
vt 0.424150 1.000000
vt 0.375000 0.983946
vt 0.375000 0.386856
vt 0.625000 0.386856
vt 0.141054 0.532108
vt 0.261856 0.500000
vt 0.312500 0.500000
vt 0.375000 0.750000
vt 0.250000 0.750000
vt 0.625000 0.750000
vt 0.125000 0.500000
vt 0.250000 0.500000
vt 0.750000 0.500000
vt 0.875000 0.750000
vt 0.125000 0.500000
vt 0.250000 0.500000
vt 0.625000 0.262741
vt 0.625000 0.375000
vt 0.424150 0.250000
vt 0.575849 0.250000
vn 0.8329 -0.0000 0.5534
vn -0.0413 -0.9991 0.0039
vn -0.1088 0.0000 -0.9941
vn 0.6373 -0.0000 0.7706
vn -0.0436 0.9989 0.0175
vn -0.2923 0.0000 -0.9563
vn 0.3927 0.0000 -0.9197
vn 0.8329 0.0000 -0.5534
vn -0.0436 0.9989 -0.0175
vn -0.1088 0.0000 0.9941
vn 0.6373 0.0000 -0.7706
vn -0.0413 -0.9991 -0.0039
vn 0.3927 0.0000 0.9197
vn -0.2175 0.6621 0.7172
vn -0.2236 -0.6449 0.7309
vn -0.2236 -0.6449 -0.7309
vn -0.2175 0.6621 -0.7172
vn -0.2923 0.0000 0.9563
usemtl None
s off
f 4/1/1 3/2/1 2/3/1 1/4/1
f 2/3/2 3/5/2 20/6/2 15/7/2 6/8/2
f 5/9/3 6/10/3 15/11/3 16/12/3 13/13/3 14/14/3
f 17/15/4 18/16/4 19/17/4 20/18/4 3/2/4 4/1/4
f 14/19/5 17/20/5 4/21/5 1/22/5 5/23/5
f 21/24/6 24/25/6 27/26/6 26/27/6
f 1/22/7 2/28/7 6/10/7 5/9/7
f 10/29/8 9/30/8 8/31/8 7/32/8
f 8/31/9 9/33/9 28/34/9 23/35/9 12/36/9
f 11/37/10 12/38/10 23/39/10 24/40/10 21/41/10 22/42/10
f 25/43/11 26/27/11 27/26/11 28/44/11 9/30/11 10/29/11
f 22/45/12 25/46/12 10/47/12 7/48/12 11/49/12
f 7/48/13 8/50/13 12/38/13 11/37/13
f 17/20/14 14/19/14 13/51/14 18/52/14
f 15/7/15 20/6/15 19/53/15 16/54/15
f 25/46/16 22/45/16 21/55/16 26/56/16
f 23/57/17 28/58/17 27/26/17 24/25/17
f 13/59/18 16/60/18 19/17/18 18/16/18
