# Blender v3.2.2 OBJ File: 'lvl_9.blend'
# www.blender.org
mtllib Gem.mtl
o Gem_Cube.004
v -12.678117 -0.292515 2.906531
v -12.678117 1.093243 2.906531
v -12.678117 -0.292515 -2.823572
v -12.678117 1.093243 -2.823572
v -16.276009 0.191852 0.041480
v -16.276009 0.608876 0.041480
v -12.589057 1.912951 0.041480
v -12.589057 -1.112222 0.041480
vt 0.375000 0.125000
vt 0.625000 0.125000
vt 0.625000 0.250000
vt 0.375000 0.250000
vt 0.375000 0.000000
vt 0.625000 0.000000
vt 0.000000 0.000000
vt 0.000000 0.000000
vn -0.6229 0.0000 -0.7823
vn -0.6229 0.0000 0.7823
vn -0.3228 0.9126 0.2511
vn -0.3228 0.9126 -0.2511
vn -0.3228 -0.9126 0.2511
vn -0.3228 -0.9126 -0.2511
usemtl None
s off
f 5/1/1 6/2/1 4/3/1 3/4/1
f 1/5/2 2/6/2 6/2/2 5/1/2
f 6/2/3 2/6/3 7/7/3
f 4/3/4 6/2/4 7/7/4
f 1/5/5 5/1/5 8/8/5
f 5/1/6 3/4/6 8/8/6
