# Blender v3.2.2 OBJ File: 'lvl_9.blend'
# www.blender.org
mtllib InnerFins.mtl
o Inner_Fins_Cube.020
v 6.525207 -0.407516 6.057151
v 6.525207 1.480248 6.057151
v 6.525207 -1.217200 6.519874
v 6.525207 2.289933 6.519874
v 9.867649 -0.407516 6.057151
v 9.867649 1.480248 6.057151
v 9.867649 -1.217200 6.730184
v 9.867649 2.289933 6.730184
v 6.525207 -0.407516 -6.046785
v 6.525207 1.480248 -6.046785
v 6.525207 -1.217200 -6.509509
v 6.525207 2.289933 -6.509509
v 9.867649 -0.407516 -6.046785
v 9.867649 1.480248 -6.046785
v 9.867649 -1.217200 -6.719818
v 9.867649 2.289933 -6.719818
vt 0.375000 0.000000
vt 0.375000 0.250000
vt 0.625000 0.250000
vt 0.625000 0.000000
vt 0.375000 0.500000
vt 0.625000 0.500000
vt 0.375000 0.750000
vt 0.625000 0.750000
vt 0.375000 1.000000
vt 0.625000 1.000000
vt 0.125000 0.500000
vt 0.125000 0.750000
vt 0.875000 0.750000
vt 0.875000 0.500000
vt 0.375000 0.000000
vt 0.375000 0.250000
vt 0.625000 0.250000
vt 0.625000 0.000000
vt 0.375000 0.500000
vt 0.625000 0.500000
vt 0.375000 0.750000
vt 0.625000 0.750000
vt 0.375000 1.000000
vt 0.625000 1.000000
vt 0.125000 0.500000
vt 0.125000 0.750000
vt 0.875000 0.750000
vt 0.875000 0.500000
vn -1.0000 0.0000 0.0000
vn -0.0628 0.0000 0.9980
vn 1.0000 0.0000 0.0000
vn 0.0000 0.0000 -1.0000
vn 0.0257 -0.5740 -0.8184
vn 0.0257 0.5740 -0.8184
vn 0.0628 0.0000 0.9980
vn -0.0257 0.5740 -0.8184
vn -0.0257 -0.5740 -0.8184
usemtl None
s off
f 1/1/1 3/2/1 4/3/1 2/4/1
f 3/2/2 7/5/2 8/6/2 4/3/2
f 7/5/3 5/7/3 6/8/3 8/6/3
f 5/7/4 1/9/4 2/10/4 6/8/4
f 3/11/5 1/12/5 5/7/5 7/5/5
f 8/6/6 6/8/6 2/13/6 4/14/6
f 9/15/3 11/16/3 12/17/3 10/18/3
f 11/16/7 15/19/7 16/20/7 12/17/7
f 15/19/1 13/21/1 14/22/1 16/20/1
f 13/21/4 9/23/4 10/24/4 14/22/4
f 11/25/8 9/26/8 13/21/8 15/19/8
f 16/20/9 14/22/9 10/27/9 12/28/9
