# Blender v3.2.2 OBJ File: 'lvl_9.blend'
# www.blender.org
mtllib OuterFins.mtl
o Outer_Fins_Cube.022
v 0.228944 0.030533 3.740277
v 0.228944 0.935068 3.740277
v 7.327441 -0.084268 13.524141
v 7.327441 0.789270 13.524141
v 5.647127 0.030533 11.007895
v 5.647127 0.934621 11.007895
v 6.442743 -0.084268 11.814356
v 6.442743 0.789270 11.814356
v 5.908982 0.934621 11.724309
v 5.908982 0.030533 11.724309
v -1.463070 0.152201 4.329732
v -0.953622 -0.144859 4.152253
v -0.284244 0.900196 4.034039
v -1.463070 0.547709 4.329732
v 6.219855 -0.132858 13.103342
v 6.148267 0.152201 13.513125
v 6.976427 -0.084269 13.524138
v 6.148267 0.547709 13.513125
v 5.999830 0.929939 11.828748
v 7.306471 0.789269 13.524137
v 7.387820 0.934844 11.409071
v 7.387820 0.030533 11.409071
v 6.391699 0.934956 10.787795
v 6.391699 0.030533 10.787795
v 8.713735 0.934844 10.743793
v 8.713734 0.030533 10.743793
v 8.989129 0.934844 11.041842
v 8.770224 0.934844 11.267513
v 8.770224 0.030533 11.267512
v 8.989130 0.030533 11.041841
v 0.228943 0.030533 -3.729914
v 0.228943 0.935068 -3.729914
v 7.327441 -0.084268 -13.513778
v 7.327441 0.789270 -13.513778
v 5.647127 0.030533 -10.997531
v 5.647127 0.934621 -10.997531
v 6.442743 -0.084268 -11.803992
v 6.442743 0.789270 -11.803992
v 5.908982 0.934621 -11.713944
v 5.908982 0.030533 -11.713944
v -1.463071 0.152201 -4.319368
v -0.953622 -0.144859 -4.141889
v -0.284245 0.900196 -4.023675
v -1.463071 0.547709 -4.319368
v 6.219856 -0.132858 -13.092978
v 6.148268 0.152201 -13.502761
v 6.976427 -0.084269 -13.513774
v 6.148268 0.547709 -13.502761
v 5.999831 0.929939 -11.818383
v 7.306472 0.789269 -13.513774
v 7.387821 0.934844 -11.398707
v 7.387821 0.030533 -11.398707
v 6.391699 0.934956 -10.777431
v 6.391699 0.030533 -10.777431
v 8.713736 0.934844 -10.733428
v 8.713735 0.030533 -10.733428
v 8.989130 0.934844 -11.031476
v 8.770224 0.934844 -11.257148
v 8.770224 0.030533 -11.257148
v 8.989130 0.030533 -11.031476
vt 0.375000 0.750000
vt 0.375000 0.924727
vt 0.395894 1.000000
vt 0.604106 1.000000
vt 0.625000 0.874590
vt 0.625000 0.750000
vt 0.375000 0.500000
vt 0.375000 0.499928
vt 0.375000 0.369940
vt 0.375000 0.593750
vt 0.375000 0.562500
vt 0.625000 0.570601
vt 0.625000 0.593750
vt 0.625000 0.625000
vt 0.625000 0.687500
vt 0.625000 0.718750
vt 0.375000 0.625000
vt 0.625000 0.562500
vt 0.625000 0.500000
vt 0.625000 0.499929
vt 0.604106 0.250000
vt 0.395894 0.250000
vt 0.395894 0.000000
vt 0.604106 0.000000
vt 0.375000 0.305979
vt 0.625000 0.250000
vt 0.625000 0.207022
vt 0.375000 0.250000
vt 0.375000 1.000000
vt 0.625000 0.005978
vt 0.375000 0.718750
vt 0.375000 0.687500
vt 0.000000 0.000000
vt 0.000000 0.000000
vt 0.055420 0.060962
vt 0.033252 0.060962
vt 0.000000 0.000000
vt 0.000000 0.000000
vt 0.375000 0.750000
vt 0.375000 0.924727
vt 0.395894 1.000000
vt 0.604106 1.000000
vt 0.625000 0.874590
vt 0.625000 0.750000
vt 0.375000 0.500000
vt 0.375000 0.499928
vt 0.375000 0.369940
vt 0.375000 0.593750
vt 0.375000 0.562500
vt 0.625000 0.570601
vt 0.625000 0.593750
vt 0.625000 0.625000
vt 0.625000 0.687500
vt 0.625000 0.718750
vt 0.375000 0.625000
vt 0.625000 0.562500
vt 0.625000 0.500000
vt 0.625000 0.499929
vt 0.604106 0.250000
vt 0.395894 0.250000
vt 0.395894 0.000000
vt 0.604106 0.000000
vt 0.375000 0.305979
vt 0.625000 0.250000
vt 0.625000 0.207022
vt 0.375000 0.250000
vt 0.375000 1.000000
vt 0.625000 0.005978
vt 0.375000 0.718750
vt 0.375000 0.687500
vt 0.000000 0.000000
vt 0.000000 0.000000
vt 0.055420 0.060962
vt 0.033252 0.060962
vt 0.000000 0.000000
vt 0.000000 0.000000
vn -0.3416 0.0656 -0.9375
vn -0.0254 -0.9991 -0.0326
vn -0.0214 0.9997 0.0155
vn 0.9392 0.0000 -0.3433
vn 0.8881 0.0000 -0.4596
vn 0.1664 0.0000 -0.9861
vn -0.0088 0.0023 1.0000
vn 0.2836 0.9476 -0.1469
vn -0.7699 0.0000 0.6381
vn -0.2400 -0.8161 0.5258
vn -0.2007 0.9514 0.2336
vn -0.4479 -0.8159 0.3657
vn -0.2621 0.9413 0.2129
vn 0.1014 -0.9919 -0.0765
vn -0.2246 0.0000 0.9745
vn 0.0000 1.0000 0.0001
vn 0.1019 -0.0000 0.9948
vn 0.0000 -1.0000 0.0000
vn 0.7178 -0.0000 0.6963
vn 0.7345 0.0000 -0.6786
vn 0.3416 -0.0656 -0.9375
vn 0.0254 0.9991 -0.0326
vn 0.0214 -0.9997 0.0155
vn -0.9392 0.0000 -0.3433
vn -0.8881 0.0000 -0.4596
vn -0.1664 0.0000 -0.9861
vn 0.0088 -0.0023 1.0000
vn -0.2836 -0.9476 -0.1469
vn 0.7699 0.0000 0.6381
vn 0.2400 0.8161 0.5258
vn 0.2007 -0.9514 0.2336
vn 0.4479 0.8159 0.3657
vn 0.2621 -0.9413 0.2129
vn -0.1014 0.9919 -0.0765
vn 0.2246 0.0000 0.9745
vn -0.0000 -1.0000 0.0001
vn -0.1019 0.0000 0.9948
vn 0.0000 1.0000 -0.0000
vn -0.7178 0.0000 0.6963
vn -0.7345 0.0000 -0.6786
usemtl None
s off
f 1/1/1 12/2/1 11/3/1 14/4/1 13/5/1 2/6/1
f 3/7/2 17/8/2 15/9/2 10/10/2 7/11/2
f 13/5/3 19/12/3 9/13/3 6/14/3 21/15/3 23/16/3 2/6/3
f 10/10/4 5/17/4 6/14/4 9/13/4
f 3/7/5 7/11/5 8/18/5 4/19/5
f 7/11/6 10/10/6 9/13/6 8/18/6
f 17/8/7 3/7/7 4/19/7 20/20/7 18/21/7 16/22/7
f 20/20/8 4/19/8 8/18/8 9/13/8 19/12/8
f 11/23/9 16/22/9 18/21/9 14/24/9
f 15/9/10 17/8/10 16/25/10
f 18/21/11 20/26/11 19/27/11
f 15/9/12 16/28/12 11/29/12 12/2/12
f 13/30/13 14/24/13 18/21/13 19/27/13
f 15/9/14 12/2/14 1/1/14 24/31/14 22/32/14 5/17/14 10/10/14
f 5/17/15 22/32/15 21/15/15 6/14/15
f 27/33/16 25/34/16 23/16/16 21/15/16 28/35/16
f 28/35/17 21/15/17 22/32/17 29/36/17
f 24/31/18 26/37/18 30/38/18 29/36/18 22/32/18
f 29/36/19 30/38/19 27/33/19 28/35/19
f 27/33/20 30/38/20 26/37/20 25/34/20
f 31/39/21 42/40/21 41/41/21 44/42/21 43/43/21 32/44/21
f 33/45/22 47/46/22 45/47/22 40/48/22 37/49/22
f 43/43/23 49/50/23 39/51/23 36/52/23 51/53/23 53/54/23 32/44/23
f 40/48/24 35/55/24 36/52/24 39/51/24
f 33/45/25 37/49/25 38/56/25 34/57/25
f 37/49/26 40/48/26 39/51/26 38/56/26
f 47/46/27 33/45/27 34/57/27 50/58/27 48/59/27 46/60/27
f 50/58/28 34/57/28 38/56/28 39/51/28 49/50/28
f 41/61/29 46/60/29 48/59/29 44/62/29
f 45/47/30 47/46/30 46/63/30
f 48/59/31 50/64/31 49/65/31
f 45/47/32 46/66/32 41/67/32 42/40/32
f 43/68/33 44/62/33 48/59/33 49/65/33
f 45/47/34 42/40/34 31/39/34 54/69/34 52/70/34 35/55/34 40/48/34
f 35/55/35 52/70/35 51/53/35 36/52/35
f 57/71/36 55/72/36 53/54/36 51/53/36 58/73/36
f 58/73/37 51/53/37 52/70/37 59/74/37
f 54/69/38 56/75/38 60/76/38 59/74/38 52/70/38
f 59/74/39 60/76/39 57/71/39 58/73/39
f 57/71/40 60/76/40 56/75/40 55/72/40
