# Blender v3.2.2 OBJ File: 'lvl_5.blend'
# www.blender.org
mtllib lvl_5_wing_blades.mtl
o Wing_Blades_Circle.002
v -2.528699 1.033660 5.930579
v -2.198601 0.672793 4.369336
v -4.931105 0.911627 5.237146
v -5.208385 0.672793 3.754098
v 1.894290 1.139055 4.950163
v 1.991935 0.672793 3.940742
v -2.742017 0.240954 6.250928
v -6.638795 0.658794 2.978462
v -5.261908 0.194017 4.903497
v 2.227126 0.562768 5.759917
v -2.528699 1.060364 5.797832
v -2.198601 0.659300 4.236589
v -4.931105 0.956990 5.104399
v -5.208385 0.659300 3.621351
v 1.894290 1.177499 4.817416
v 1.991935 0.659300 3.807995
v -2.742017 0.140718 6.118182
v -6.638795 0.659483 2.845716
v -5.261908 0.087526 4.764590
v 2.227126 0.508718 5.627171
v -4.938623 0.976553 -5.236126
v -5.207963 0.658110 -3.596379
v -2.471772 1.077405 -5.803838
v -2.282725 0.658110 -4.279745
v 2.018081 1.279789 -4.804488
v 2.112983 0.658110 -3.802122
v -2.810875 0.082328 -6.362268
v -5.096608 0.082328 -5.236126
v -6.598191 0.660090 -2.953242
v 2.018779 0.499544 -5.816787
v -4.938623 0.897892 -5.512553
v -5.207962 0.661008 -3.872805
v -2.471772 1.018931 -6.080264
v -2.282725 0.661008 -4.556171
v 2.018081 1.123466 -5.059870
v 2.112983 0.661008 -4.078548
v -2.810875 0.232691 -6.638694
v -5.096608 0.232691 -5.512553
v -6.598190 0.662480 -3.229668
v 2.018778 0.543052 -6.093213
vt 0.000000 0.000000
vt 0.000000 0.000000
vt 0.000000 0.000000
vt 0.000000 0.000000
vt 0.000000 0.000000
vt 0.000000 0.000000
vt 0.000000 0.000000
vt 0.000000 0.000000
vt 0.000000 0.000000
vt 0.000000 0.000000
vt 0.000000 0.000000
vt 0.000000 0.000000
vt 0.000000 0.000000
vt 0.000000 0.000000
vt 0.000000 0.000000
vt 0.000000 0.000000
vt 0.000000 0.000000
vt 0.000000 0.000000
vt 0.000000 0.000000
vt 0.000000 0.000000
vt 0.000000 0.000000
vt 0.000000 0.000000
vt 0.000000 0.000000
vt 0.000000 0.000000
vt 0.000000 0.000000
vt 0.000000 0.000000
vt 0.000000 0.000000
vt 0.000000 0.000000
vt 0.000000 0.000000
vt 0.000000 0.000000
vt 0.000000 0.000000
vt 0.000000 0.000000
vt 0.000000 0.000000
vt 0.000000 0.000000
vt 0.000000 0.000000
vt 0.000000 0.000000
vt 0.000000 0.000000
vt 0.000000 0.000000
vt 0.000000 0.000000
vt 0.000000 0.000000
vn 0.0847 0.9811 -0.1738
vn -0.0631 0.9469 -0.3152
vn 0.0245 0.9809 -0.1928
vn -0.2083 0.9063 0.3678
vn 0.1031 -0.9580 -0.2675
vn 0.0204 -0.9895 -0.1432
vn 0.1175 0.9692 -0.2165
vn -0.0693 0.9356 -0.3461
vn 0.0353 0.9742 -0.2230
vn -0.2312 0.8744 0.4265
vn 0.1213 -0.9412 -0.3153
vn 0.0219 -0.9841 -0.1761
vn -0.9863 -0.1640 -0.0154
vn -0.9255 -0.3670 0.0934
vn -0.1090 0.8595 -0.4995
vn 0.2950 0.7604 -0.5786
vn -0.6509 -0.7074 0.2755
vn 0.3591 -0.9195 -0.1595
vn 0.1200 -0.9581 -0.2601
vn -0.0284 -0.9708 -0.2382
vn 0.0347 0.9731 0.2278
vn -0.0854 0.9178 0.3878
vn 0.1544 -0.9289 0.3367
vn 0.0962 0.9740 0.2050
vn 0.0986 -0.9537 0.2840
vn 0.0254 -0.9847 0.1726
vn 0.0209 0.9825 0.1852
vn -0.0646 0.9462 0.3171
vn 0.1186 -0.9587 0.2585
vn 0.0724 0.9854 0.1542
vn 0.0749 -0.9736 0.2157
vn 0.0190 -0.9914 0.1293
vn -0.0986 0.9659 -0.2396
vn -0.3326 0.9342 -0.1289
vn -0.5887 -0.7792 -0.2153
vn -0.2292 -0.8551 -0.4651
vn 0.1078 -0.9382 -0.3290
vn 0.9558 -0.2929 -0.0246
vn 0.9930 0.1138 -0.0328
vn 0.0525 0.9259 -0.3740
usemtl None
s off
f 4/1/1 8/2/1 3/3/1
f 1/4/2 5/5/2 6/6/2 2/7/2
f 2/7/3 4/1/3 3/3/3 1/4/3
f 4/1/4 8/2/4 9/8/4
f 2/7/5 7/9/5 9/8/5 4/1/5
f 2/7/6 6/6/6 10/10/6 7/9/6
f 14/11/7 18/12/7 13/13/7
f 11/14/8 15/15/8 16/16/8 12/17/8
f 12/17/9 14/11/9 13/13/9 11/14/9
f 14/11/10 18/12/10 19/18/10
f 12/17/11 17/19/11 19/18/11 14/11/11
f 12/17/12 16/16/12 20/20/12 17/19/12
f 5/5/13 15/15/13 16/16/13 6/6/13
f 10/10/14 6/6/14 16/16/14 20/20/14
f 7/9/15 10/10/15 20/20/15 17/19/15
f 7/9/16 17/19/16 19/18/16 9/8/16
f 8/2/17 18/12/17 19/18/17 9/8/17
f 3/3/18 8/2/18 18/12/18 13/13/18
f 1/4/19 3/3/19 13/13/19 11/14/19
f 5/5/20 1/4/20 11/14/20 15/15/20
f 22/21/21 24/22/21 23/23/21 21/24/21
f 24/22/22 26/25/22 25/26/22 23/23/22
f 22/21/23 29/27/23 28/28/23
f 21/24/24 29/27/24 22/21/24
f 22/21/25 28/28/25 27/29/25 24/22/25
f 26/25/26 24/22/26 27/29/26 30/30/26
f 32/31/27 34/32/27 33/33/27 31/34/27
f 34/32/28 36/35/28 35/36/28 33/33/28
f 32/31/29 39/37/29 38/38/29
f 31/34/30 39/37/30 32/31/30
f 32/31/31 38/38/31 37/39/31 34/32/31
f 36/35/32 34/32/32 37/39/32 40/40/32
f 23/23/33 33/33/33 31/34/33 21/24/33
f 21/24/34 31/34/34 39/37/34 29/27/34
f 29/27/35 39/37/35 38/38/35 28/28/35
f 28/28/36 38/38/36 37/39/36 27/29/36
f 27/29/37 37/39/37 40/40/37 30/30/37
f 30/30/38 40/40/38 36/35/38 26/25/38
f 26/25/39 36/35/39 35/36/39 25/26/39
f 25/26/40 35/36/40 33/33/40 23/23/40
