# Blender v3.2.2 OBJ File: 'lvl_5.blend'
# www.blender.org
mtllib lvl_5_back.mtl
o Back_Cube.006
v 6.044810 1.451881 2.063269
v 6.044810 1.451881 -2.063269
v 7.562742 1.061573 2.063269
v 7.364959 1.451881 2.063269
v 7.364959 1.451881 -2.063269
v 7.562742 1.061573 -2.063269
v 6.044810 0.479684 1.881663
v 6.044810 0.600712 2.063269
v 6.044810 0.600712 -2.063269
v 6.044810 0.479684 -1.881663
v 7.562742 0.600712 2.063269
v 7.431009 0.479684 1.881663
v 7.562742 0.600712 -2.063269
v 7.431009 0.479684 -1.881663
vt 0.415032 0.750000
vt 0.567468 0.750000
vt 0.625000 0.791162
vt 0.625000 1.000000
vt 0.406122 1.000000
vt 0.406122 0.250000
vt 0.625000 0.250000
vt 0.625000 0.458838
vt 0.567468 0.500000
vt 0.415032 0.500000
vt 0.375000 0.011002
vt 0.406122 0.000000
vt 0.625000 0.000000
vt 0.375000 0.238998
vt 0.666162 0.500000
vt 0.666162 0.750000
vt 0.875000 0.500000
vt 0.875000 0.750000
vt 0.350340 0.511002
vt 0.125000 0.511002
vt 0.125000 0.500000
vt 0.375000 0.500000
vt 0.350340 0.738998
vt 0.125000 0.738998
vt 0.375000 0.750000
vt 0.125000 0.750000
vn 0.0000 0.0000 1.0000
vn 0.0000 0.0000 -1.0000
vn 1.0000 0.0000 0.0000
vn -1.0000 -0.0000 0.0000
vn 0.8920 0.4520 0.0000
vn 0.0000 1.0000 0.0000
vn 0.0000 -0.8321 -0.5546
vn 0.6766 -0.7364 0.0000
vn 0.0000 -0.8321 0.5546
vn 0.0000 -1.0000 0.0000
usemtl None
s off
f 11/1/1 3/2/1 4/3/1 1/4/1 8/5/1
f 9/6/2 2/7/2 5/8/2 6/9/2 13/10/2
f 13/10/3 6/9/3 3/2/3 11/1/3
f 7/11/4 8/12/4 1/13/4 2/7/4 9/6/4 10/14/4
f 5/15/5 4/16/5 3/2/5 6/9/5
f 5/15/6 2/17/6 1/18/6 4/16/6
f 14/19/7 10/20/7 9/21/7 13/22/7
f 12/23/8 14/19/8 13/10/8 11/1/8
f 7/24/9 12/23/9 11/25/9 8/26/9
f 10/20/10 14/19/10 12/23/10 7/24/10
