# Blender v3.2.2 OBJ File: 'lvl_5.blend'
# www.blender.org
mtllib lvl_5_middle.mtl
o Middle_Cube.003
v 3.578522 0.325280 2.152042
v 4.262758 1.938600 2.489817
v 4.262758 2.294103 2.074408
v 3.579900 1.938600 2.174695
v 3.578522 0.325280 -2.152042
v 4.262758 2.294103 -2.074408
v 4.262758 1.938600 -2.489817
v 3.579900 1.938600 -2.174695
v 6.300046 2.294103 1.826670
v 6.300046 1.938600 2.489817
v 6.300046 1.938600 -2.489817
v 6.300046 2.294103 -1.826670
v 6.298766 0.527285 2.489817
v 6.749654 0.411343 2.293670
v 6.749654 0.411343 -2.293670
v 6.298766 0.527285 -2.489817
v 1.703532 0.425422 2.175162
v 1.703532 0.425422 -2.175162
vt 0.390085 0.500000
vt 0.585449 0.500000
vt 0.625000 0.533293
vt 0.625000 0.716707
vt 0.585449 0.750000
vt 0.390085 0.750000
vt 0.389215 0.300617
vt 0.585449 0.300617
vt 0.824383 0.533293
vt 0.824383 0.716707
vt 0.375000 0.033293
vt 0.585449 0.033293
vt 0.585449 0.216707
vt 0.375000 0.216707
vt 0.000000 0.000000
vt 0.360057 0.509848
vt 0.360057 0.740152
vt 0.000000 0.000000
vt 0.585449 0.000000
vt 0.625000 0.033293
vt 0.625000 0.216707
vt 0.585449 0.250000
vt 0.389215 0.949383
vt 0.625000 0.300617
vt 0.625000 0.500000
vt 0.625000 0.750000
vt 0.625000 0.949383
vt 0.585449 0.949383
vn 1.0000 -0.0007 0.0000
vn -0.0463 -0.0667 -0.9967
vn 0.0000 1.0000 0.0000
vn -1.0000 0.0009 0.0000
vn 0.0271 -0.9996 0.0000
vn -0.2874 0.7277 0.6228
vn -0.2874 0.7277 -0.6228
vn -0.0165 -0.7940 0.6076
vn -0.4618 0.8870 0.0000
vn 0.0334 0.8344 -0.5501
vn 0.0334 0.8344 0.5501
vn -0.0463 -0.0667 0.9967
vn 0.2490 0.9685 0.0000
vn -0.2378 0.2947 -0.9255
vn -0.2378 0.2947 0.9255
vn -0.0165 -0.7940 -0.6076
usemtl None
s off
f 16/1/1 11/2/1 12/3/1 9/4/1 10/5/1 13/6/1
f 18/7/2 7/8/2 11/2/2 16/1/2
f 12/3/3 6/9/3 3/10/3 9/4/3
f 1/11/4 4/12/4 8/13/4 5/14/4
f 5/15/5 15/16/5 14/17/5 1/18/5
f 2/19/6 3/20/6 4/12/6
f 6/21/7 7/22/7 8/13/7
f 13/6/8 17/23/8 1/18/8 14/17/8
f 3/20/9 6/21/9 8/13/9 4/12/9
f 6/24/10 12/25/10 11/2/10 7/8/10
f 9/26/11 3/27/11 2/28/11 10/5/11
f 13/6/12 10/5/12 2/28/12 17/23/12
f 14/17/13 15/16/13 16/1/13 13/6/13
f 2/28/14 4/12/14 1/18/14 17/23/14
f 7/8/15 18/7/15 5/15/15 8/13/15
f 16/1/16 15/16/16 5/15/16 18/7/16
