# Blender v3.2.2 OBJ File: 'lvl_5.blend'
# www.blender.org
mtllib lvl_5_body.mtl
o Body_Circle
v -5.012277 0.996274 -5.472841
v -5.289402 0.657384 -3.770740
v -2.474127 1.169433 -6.299154
v -2.279617 0.657384 -4.480092
v 1.813275 1.318982 -5.149729
v 1.910919 0.657384 -3.984307
v -2.609715 1.169433 6.269261
v -2.279617 0.657384 4.469191
v -5.012121 0.996274 5.469752
v -5.289402 0.657384 3.759839
v 1.813275 1.318982 5.138868
v 1.910919 0.657384 3.975034
v 2.968075 0.396686 -0.003906
v 3.011930 1.318982 -0.003906
v -1.555008 0.660730 -7.817419
v -2.823032 0.044630 -6.641806
v -3.656886 0.659491 -7.233970
v -5.174828 0.044630 -5.472841
v -5.539209 0.659491 -5.965523
v -2.823033 0.044630 6.638615
v -1.555008 0.660730 7.676253
v -5.484432 0.658252 5.962333
v -3.656887 0.658252 7.230779
v -6.719810 0.659491 -2.954372
v -6.719811 0.659491 2.858449
v -5.342924 0.000000 5.077961
v 3.999988 1.318982 6.563253
v 6.026528 1.318982 5.225564
v 7.392429 1.318982 2.080530
v 7.392324 1.318982 -2.082188
v 6.026530 1.318982 -5.227032
v 3.999986 1.318982 -6.564724
v 1.581209 1.318982 -6.909298
v -0.165404 1.318982 -6.886371
v 1.581059 1.318982 6.906132
v -0.165409 1.318982 6.883180
v 4.130970 0.957031 6.889525
v 4.077958 0.571510 5.323837
v 6.292897 0.960267 5.472299
v 6.186523 0.571510 4.086403
v 7.281730 0.630427 2.333711
v 7.484334 0.965947 3.059120
v 7.484268 0.965923 -3.060795
v 7.281724 0.630430 -2.335149
v 6.186525 0.571510 -4.087833
v 6.292925 0.960232 -5.473790
v 4.077997 0.563743 -5.325296
v 4.130988 0.956982 -6.891040
v 1.546634 0.945201 -7.264468
v 2.146212 0.488635 -6.075583
v 0.843236 0.536723 -7.713969
v 2.146110 0.501265 6.072492
v 1.546901 0.955981 7.257682
v 0.843096 0.549188 7.710778
vt 0.000000 0.000000
vt 0.000000 0.000000
vt 0.000000 0.000000
vt 0.000000 0.000000
vt 0.000000 0.000000
vt 0.000000 0.000000
vt 0.000000 0.000000
vt 0.000000 0.000000
vt 0.000000 0.000000
vt 0.000000 0.000000
vt 0.000000 0.000000
vt 0.000000 0.000000
vt 0.000000 0.000000
vt 0.000000 0.000000
vt 0.000000 0.000000
vt 0.000000 0.000000
vt 0.000000 0.000000
vt 0.000000 0.000000
vt 0.000000 0.000000
vt 0.000000 0.000000
vt 0.000000 0.000000
vt 0.000000 0.000000
vt 0.000000 0.000000
vt 0.000000 0.000000
vt 0.000000 0.000000
vt 0.000000 0.000000
vt 0.000000 0.000000
vt 0.000000 0.000000
vt 0.000000 0.000000
vt 0.000000 0.000000
vt 0.000000 0.000000
vt 0.000000 0.000000
vt 0.000000 0.000000
vt 0.000000 0.000000
vt 0.000000 0.000000
vt 0.000000 0.000000
vt 0.000000 0.000000
vt 0.000000 0.000000
vt 0.000000 0.000000
vt 0.000000 0.000000
vt 0.000000 0.000000
vt 0.000000 0.000000
vt 0.000000 0.000000
vt 0.000000 0.000000
vt 0.000000 0.000000
vt 0.000000 0.000000
vt 0.000000 0.000000
vt 0.000000 0.000000
vt 0.000000 0.000000
vt 0.000000 0.000000
vt 0.000000 0.000000
vt 0.000000 0.000000
vt 0.000000 0.000000
vt 0.000000 0.000000
vn 0.1362 0.9673 -0.2138
vn -0.0314 0.9989 0.0358
vn -0.4440 0.8784 0.1771
vn 0.1022 0.6866 0.7198
vn 0.0349 0.9712 0.2355
vn -0.0885 0.9240 0.3720
vn -0.9595 0.1448 -0.2414
vn -0.0872 0.9218 -0.3776
vn 0.0344 0.9714 -0.2350
vn -0.3116 -0.7810 -0.5412
vn -0.1993 0.9225 0.3305
vn -0.1894 0.9272 -0.3231
vn 0.7626 0.5714 -0.3033
vn -0.2645 0.8673 0.4218
vn 0.1949 -0.9186 0.3438
vn 0.1230 0.9693 0.2130
vn -0.3125 -0.8120 0.4930
vn 0.6538 -0.5345 0.5356
vn -0.0304 0.9989 -0.0345
vn 0.9677 0.2520 -0.0000
vn 0.1022 0.6831 -0.7231
vn 0.5875 0.7624 0.2711
vn 0.3946 0.6952 -0.6008
vn 0.5875 0.7625 -0.2711
vn 0.4459 -0.8647 0.2314
vn 0.4459 -0.8647 -0.2313
vn 0.1519 -0.9580 0.2431
vn 0.1549 -0.9570 -0.2452
vn 0.0955 -0.9457 -0.3107
vn 0.0910 -0.9472 0.3074
vn 0.3946 0.6952 0.6008
vn 0.0000 1.0000 -0.0000
vn 0.1303 0.7745 -0.6191
vn 0.0628 -0.9685 0.2411
vn 0.6531 -0.5358 -0.5351
vn 0.0631 -0.9711 -0.2300
vn -0.1634 -0.7903 -0.5905
vn -0.1338 0.9124 -0.3867
vn 0.0142 0.7355 0.6774
vn 0.0374 0.7433 -0.6679
vn -0.1281 0.8981 0.4207
vn 0.1381 -0.9380 -0.3180
vn 0.0288 -0.9841 -0.1753
vn -0.9596 0.1450 0.2413
vn 0.8561 -0.5169 -0.0000
vn 0.0138 -0.9999 0.0006
vn -0.7114 -0.6451 -0.2789
vn 0.1018 -0.9515 0.2905
vn 0.0269 -0.9835 0.1788
vn -0.4179 0.8936 -0.1639
usemtl None
s off
f 10/1/1 25/2/1 9/3/1
f 33/4/2 34/5/2 3/6/2 5/7/2
f 9/3/3 25/2/3 22/8/3
f 27/9/4 35/10/4 53/11/4 37/12/4
f 2/13/5 4/14/5 3/6/5 1/15/5
f 4/14/6 6/16/6 5/7/6 3/6/6
f 13/17/7 12/18/7 11/19/7 14/20/7
f 7/21/8 11/19/8 12/18/8 8/22/8
f 8/22/9 10/1/9 9/3/9 7/21/9
f 19/23/10 17/24/10 16/25/10 18/26/10
f 22/8/11 23/27/11 7/21/11 9/3/11
f 17/24/12 19/23/12 1/15/12 3/6/12
f 25/2/13 22/8/13 26/28/13
f 10/1/14 25/2/14 26/28/14
f 2/13/15 24/29/15 18/26/15
f 1/15/16 24/29/16 2/13/16
f 23/27/17 22/8/17 26/28/17 20/30/17
f 53/11/18 54/31/18 52/32/18
f 7/21/19 36/33/19 35/10/19 11/19/19
f 30/34/20 29/35/20 42/36/20 43/37/20
f 48/38/21 49/39/21 33/4/21 32/40/21
f 39/41/22 42/36/22 29/35/22 28/42/22
f 46/43/23 48/38/23 32/40/23 31/44/23
f 43/37/24 46/43/24 31/44/24 30/34/24
f 40/45/25 41/46/25 42/36/25 39/41/25
f 44/47/26 45/48/26 46/43/26 43/37/26
f 38/49/27 40/45/27 39/41/27 37/12/27
f 45/48/28 47/50/28 48/38/28 46/43/28
f 49/39/29 48/38/29 47/50/29 50/51/29
f 37/12/30 53/11/30 52/32/30 38/49/30
f 37/12/31 39/41/31 28/42/31 27/9/31
f 14/20/32 11/19/32 35/10/32 27/9/32 28/42/32 29/35/32 30/34/32 31/44/32 32/40/32 33/4/32 5/7/32
f 23/27/33 21/52/33 20/30/33
f 52/32/34 54/31/34 21/52/34 20/30/34
f 50/51/35 51/53/35 49/39/35
f 51/53/36 50/51/36 16/25/36 15/54/36
f 15/54/37 16/25/37 17/24/37
f 17/24/38 3/6/38 34/5/38 15/54/38
f 36/33/39 21/52/39 54/31/39 53/11/39 35/10/39
f 51/53/40 15/54/40 34/5/40 33/4/40 49/39/40
f 23/27/41 21/52/41 36/33/41 7/21/41
f 8/22/42 20/30/42 26/28/42 10/1/42
f 8/22/43 12/18/43 52/32/43 20/30/43
f 5/7/44 6/16/44 13/17/44 14/20/44
f 41/46/45 44/47/45 43/37/45 42/36/45
f 13/17/46 6/16/46 50/51/46 47/50/46 45/48/46 44/47/46 41/46/46 40/45/46 38/49/46 52/32/46 12/18/46
f 18/26/47 24/29/47 19/23/47
f 2/13/48 18/26/48 16/25/48 4/14/48
f 6/16/49 4/14/49 16/25/49 50/51/49
f 1/15/50 19/23/50 24/29/50
