# Blender v3.1.2 OBJ File: 'lvl_2_v2.blend'
# www.blender.org
mtllib AccentWing1R.mtl
o AccentWing.001_Cube.004
v -0.763790 -0.452913 -1.521830
v -0.710545 -0.490993 -3.227939
v -0.710545 0.258929 -3.258220
v -1.066095 -0.259265 -1.640600
v -1.236753 -0.296146 -3.253032
v -0.929059 0.258929 -3.258220
v -1.216904 0.075101 -3.258220
v -0.763790 -0.001184 -1.561284
v -0.710545 0.258929 -2.212126
v -1.179772 0.075101 -2.212126
v -1.061370 -0.014785 -1.645758
v -0.856338 -0.001184 -1.561284
v -0.929059 0.258929 -2.212126
v -1.183761 -0.277706 -2.219254
v -0.979131 -0.431009 -3.240485
v -0.947544 -0.393528 -1.583611
v -0.069288 -0.529476 -1.500910
v -0.016044 -0.490993 -3.227939
v -0.016044 0.258929 -3.258220
v -0.069288 -0.001184 -1.561284
v -0.016044 0.258929 -2.212126
vt 0.768773 0.500000
vt 0.768773 0.658037
vt 0.875000 0.658037
vt 0.875000 0.500000
vt 0.375000 0.000000
vt 0.375000 0.250000
vt 0.625000 0.250000
vt 0.625000 0.091963
vt 0.555610 0.000000
vt 0.375000 0.375000
vt 0.375000 0.500000
vt 0.481168 0.500000
vt 0.625000 0.356227
vt 0.250000 0.500000
vt 0.250000 0.746061
vt 0.375000 0.742122
vt 0.375000 0.621061
vt 0.419041 0.750000
vt 0.481168 0.658037
vt 0.375000 0.871061
vt 0.375000 1.000000
vt 0.555610 1.000000
vt 0.554426 0.948151
vt 0.000000 0.000000
vt 0.000000 0.000000
vt 0.000000 0.000000
vt 0.000000 0.000000
vt 0.000000 0.000000
vt 0.000000 0.000000
vt 0.125000 0.500000
vt 0.125000 0.750000
vt 0.000000 0.000000
vt 0.000000 0.000000
vt 0.000000 0.000000
vt 0.000000 0.000000
vt 0.000000 0.000000
vt 0.000000 0.000000
vt 0.000000 0.000000
vt 0.000000 0.000000
vt 0.000000 0.000000
vn 0.0000 1.0000 0.0000
vn 0.9994 -0.0225 0.0277
vn 0.0231 -0.0292 -0.9993
vn -0.5270 -0.8483 0.0515
vn -0.9952 0.0268 0.0938
vn -0.5638 0.8259 0.0100
vn -0.2994 0.0384 0.9534
vn 0.0000 0.9286 0.3711
vn -0.4257 0.8497 0.3112
vn -0.9791 0.0136 0.2027
vn -0.9985 0.0328 0.0430
vn -0.2582 -0.9659 0.0200
vn -0.9994 0.0208 -0.0278
vn 0.0094 -0.1013 -0.9948
vn 0.0550 0.9985 0.0018
vn 0.0000 0.0403 0.9992
usemtl None
s off
f 6/1/1 13/2/1 9/3/1 3/4/1
f 1/5/2 2/6/2 3/7/2 9/8/2 8/9/2
f 2/6/3 15/10/3 5/11/3 7/12/3 6/13/3 3/7/3
f 15/14/4 16/15/4 4/16/4 14/17/4 5/11/4
f 5/11/5 14/17/5 4/16/5 11/18/5 10/19/5 7/12/5
f 6/1/6 7/12/6 10/19/6 13/2/6
f 4/16/7 16/20/7 1/21/7 8/22/7 12/23/7 11/18/7
f 9/3/8 13/2/8 12/23/8 8/22/8
f 12/23/9 13/2/9 10/19/9 11/18/9
f 11/24/10 10/25/10 14/26/10 4/27/10
f 10/25/11 7/28/11 5/29/11 14/26/11
f 2/30/12 1/31/12 16/15/12 15/14/12
f 17/32/13 20/33/13 21/34/13 19/35/13 18/36/13
f 20/33/14 17/32/14 1/37/14 8/38/14
f 2/39/15 1/37/15 17/32/15 18/36/15
f 3/40/16 2/39/16 18/36/16 19/35/16
l 9 21
