# Blender v3.1.2 OBJ File: 'lvl_2_v2.blend'
# www.blender.org
mtllib WingDetails.mtl
o Cube.002_Cube.009
v -2.863823 0.270052 -2.263596
v -2.768689 0.129135 -2.279387
v -2.768689 0.129135 -3.359399
v -2.863823 0.270052 -3.359399
v -3.342242 0.129135 -2.279387
v -3.247108 0.270052 -2.263596
v -3.247108 0.270052 -3.359399
v -3.342242 0.129135 -3.359399
v -2.863823 0.074346 -1.621905
v -2.768689 -0.071387 -1.621905
v -3.342242 -0.071387 -1.621905
v -3.247108 0.074346 -1.621905
v -2.768689 -0.270519 -1.621905
v -2.989494 -0.311858 -1.621905
v -2.989494 -0.311858 -3.359399
v -2.768689 -0.270519 -3.359399
v -3.121437 -0.311858 -1.621905
v -3.342242 -0.270519 -1.621905
v -3.342242 -0.270519 -3.359399
v -3.121437 -0.311858 -3.359399
vt 0.666467 0.500000
vt 0.666467 0.750000
vt 0.833533 0.750000
vt 0.833533 0.500000
vt 0.397747 0.000000
vt 0.405194 0.250000
vt 0.564459 0.250000
vt 0.561437 0.033543
vt 0.452832 0.000000
vt 0.375000 0.270681
vt 0.375000 0.479319
vt 0.405194 0.500000
vt 0.564459 0.500000
vt 0.625000 0.458533
vt 0.625000 0.291467
vt 0.375000 0.770681
vt 0.375000 0.979319
vt 0.397747 1.000000
vt 0.452832 1.000000
vt 0.500000 0.958533
vt 0.500000 0.791467
vt 0.452832 0.750000
vt 0.397747 0.750000
vt 0.561437 0.716457
vt 0.500000 0.000000
vt 0.625000 0.000000
vt 0.625000 0.250000
vt 0.625000 0.791467
vt 0.625000 0.958533
vt 0.145681 0.500000
vt 0.125000 0.500000
vt 0.125000 0.750000
vt 0.145681 0.750000
vt 0.354319 0.750000
vt 0.354319 0.500000
vn 0.0000 1.0000 0.0000
vn 1.0000 0.0000 0.0000
vn 0.0000 0.0000 -1.0000
vn 0.0000 0.0000 1.0000
vn -1.0000 0.0000 0.0000
vn 0.8260 0.5392 0.1644
vn 0.8288 0.5595 0.0000
vn -0.8288 0.5595 0.0000
vn -0.8260 0.5392 0.1644
vn 0.0000 0.9565 0.2917
vn 0.1840 -0.9829 0.0000
vn -0.1840 -0.9829 0.0000
vn 0.0000 -1.0000 0.0000
usemtl None
s off
f 7/1/1 6/2/1 1/3/1 4/4/1
f 13/5/2 16/6/2 3/7/2 2/8/2 10/9/2
f 15/10/3 20/11/3 19/12/3 8/13/3 7/14/3 4/15/3 3/7/3 16/6/3
f 17/16/4 14/17/4 13/18/4 10/19/4 9/20/4 12/21/4 11/22/4 18/23/4
f 19/12/5 18/23/5 11/22/5 5/24/5 8/13/5
f 9/25/6 10/9/6 2/8/6 1/26/6
f 1/26/7 2/8/7 3/7/7 4/27/7
f 7/1/8 8/13/8 5/24/8 6/2/8
f 6/28/9 5/24/9 11/22/9 12/21/9
f 12/21/10 9/20/10 1/29/10 6/28/10
f 15/30/11 16/31/11 13/32/11 14/33/11
f 17/34/12 18/23/12 19/12/12 20/35/12
f 15/30/13 14/33/13 17/34/13 20/35/13
o Cube.003_Cube.010
v -2.997907 -0.275856 -1.086414
v -2.932735 -0.147090 -1.039766
v -2.988066 -0.275597 -1.079370
v -2.978252 -0.274099 -1.072346
v -2.968585 -0.270444 -1.065426
v -2.959332 -0.263812 -1.058803
v -2.950950 -0.253618 -1.052804
v -2.943990 -0.239867 -1.047822
v -2.938831 -0.223306 -1.044129
v -2.935474 -0.205025 -1.041726
v -2.933625 -0.185924 -1.040403
v -2.932866 -0.166535 -1.039860
v -2.997907 -0.027016 -1.086414
v -2.932735 -0.155783 -1.039766
v -2.988066 -0.027276 -1.079370
v -2.978252 -0.028774 -1.072346
v -2.968585 -0.032428 -1.065426
v -2.959332 -0.039061 -1.058803
v -2.950950 -0.049255 -1.052804
v -2.943990 -0.063006 -1.047822
v -2.938831 -0.079567 -1.044129
v -2.935474 -0.097848 -1.041726
v -2.933625 -0.116948 -1.040403
v -2.932866 -0.136337 -1.039860
v -2.997907 -0.275856 -1.852550
v -2.932735 -0.147090 -1.852550
v -2.988066 -0.275597 -1.852550
v -2.978252 -0.274099 -1.852550
v -2.968585 -0.270444 -1.852550
v -2.959332 -0.263812 -1.852550
v -2.950950 -0.253618 -1.852550
v -2.943990 -0.239867 -1.852550
v -2.938831 -0.223306 -1.852550
v -2.935474 -0.205025 -1.852550
v -2.933625 -0.185924 -1.852550
v -2.932866 -0.166535 -1.852550
v -2.932735 -0.155783 -1.852550
v -2.997907 -0.027016 -1.852550
v -2.932866 -0.136337 -1.852550
v -2.933625 -0.116948 -1.852550
v -2.935474 -0.097848 -1.852550
v -2.938831 -0.079567 -1.852550
v -2.943990 -0.063006 -1.852550
v -2.950950 -0.049255 -1.852550
v -2.959332 -0.039061 -1.852550
v -2.968585 -0.032428 -1.852550
v -2.978252 -0.028774 -1.852550
v -2.988066 -0.027276 -1.852550
v -3.115619 -0.275856 -1.086414
v -3.180792 -0.147090 -1.039766
v -3.125461 -0.275597 -1.079370
v -3.135274 -0.274099 -1.072346
v -3.144942 -0.270444 -1.065426
v -3.154194 -0.263812 -1.058803
v -3.162576 -0.253618 -1.052804
v -3.169536 -0.239867 -1.047822
v -3.174695 -0.223306 -1.044129
v -3.178052 -0.205025 -1.041726
v -3.179902 -0.185924 -1.040403
v -3.180660 -0.166535 -1.039860
v -3.115619 -0.027016 -1.086414
v -3.180792 -0.155783 -1.039766
v -3.125461 -0.027276 -1.079370
v -3.135274 -0.028774 -1.072346
v -3.144942 -0.032428 -1.065426
v -3.154194 -0.039061 -1.058803
v -3.162576 -0.049255 -1.052804
v -3.169536 -0.063006 -1.047822
v -3.174695 -0.079567 -1.044129
v -3.178052 -0.097848 -1.041726
v -3.179902 -0.116948 -1.040403
v -3.180660 -0.136337 -1.039860
v -3.180792 -0.147090 -1.852550
v -3.115619 -0.275856 -1.852550
v -3.180660 -0.166535 -1.852550
v -3.179902 -0.185924 -1.852550
v -3.178052 -0.205025 -1.852550
v -3.174695 -0.223306 -1.852550
v -3.169536 -0.239867 -1.852550
v -3.162576 -0.253618 -1.852550
v -3.154194 -0.263812 -1.852550
v -3.144942 -0.270444 -1.852550
v -3.135274 -0.274099 -1.852550
v -3.125461 -0.275597 -1.852550
v -3.115619 -0.027016 -1.852550
v -3.180792 -0.155783 -1.852550
v -3.125461 -0.027276 -1.852550
v -3.135274 -0.028774 -1.852550
v -3.144942 -0.032428 -1.852550
v -3.154194 -0.039061 -1.852550
v -3.162576 -0.049255 -1.852550
v -3.169536 -0.063006 -1.852550
v -3.174695 -0.079567 -1.852550
v -3.178052 -0.097848 -1.852550
v -3.179902 -0.116948 -1.852550
v -3.180660 -0.136337 -1.852550
vt 0.504367 0.750000
vt 0.504367 1.000000
vt 0.495633 1.000000
vt 0.495633 0.750000
vt 0.504367 0.500000
vt 0.495633 0.500000
vt 0.690683 0.500000
vt 0.690683 0.735652
vt 0.809317 0.735652
vt 0.809317 0.500000
vt 0.504367 0.000000
vt 0.504367 0.250000
vt 0.495633 0.250000
vt 0.495633 0.000000
vt 0.375000 0.315683
vt 0.375000 0.434317
vt 0.375261 0.444236
vt 0.376766 0.454126
vt 0.380437 0.463869
vt 0.387101 0.473194
vt 0.397342 0.481642
vt 0.411158 0.488656
vt 0.427796 0.493856
vt 0.446162 0.497239
vt 0.465351 0.499103
vt 0.484831 0.499867
vt 0.515169 0.499867
vt 0.534649 0.499103
vt 0.553838 0.497239
vt 0.572204 0.493856
vt 0.588842 0.488656
vt 0.602658 0.481642
vt 0.612899 0.473194
vt 0.619563 0.463869
vt 0.623234 0.454126
vt 0.624739 0.444236
vt 0.625000 0.434317
vt 0.625000 0.315683
vt 0.624739 0.305764
vt 0.623234 0.295874
vt 0.619563 0.286131
vt 0.612899 0.276806
vt 0.602658 0.268358
vt 0.588843 0.261344
vt 0.572204 0.256144
vt 0.553838 0.252761
vt 0.534649 0.250897
vt 0.515169 0.250133
vt 0.484831 0.250133
vt 0.465351 0.250897
vt 0.446162 0.252761
vt 0.427796 0.256144
vt 0.411158 0.261344
vt 0.397342 0.268358
vt 0.387101 0.276806
vt 0.380437 0.286131
vt 0.376766 0.295874
vt 0.375261 0.305764
vt 0.190683 0.500000
vt 0.180764 0.500000
vt 0.180764 0.737818
vt 0.190683 0.735652
vt 0.170874 0.500000
vt 0.170874 0.739979
vt 0.161131 0.500000
vt 0.161131 0.742107
vt 0.151806 0.500000
vt 0.151806 0.744144
vt 0.143358 0.500000
vt 0.143358 0.745990
vt 0.125000 0.500000
vt 0.125000 0.747522
vt 0.411158 0.250000
vt 0.427796 0.250000
vt 0.427796 0.001342
vt 0.411158 0.002478
vt 0.446162 0.250000
vt 0.446162 0.000603
vt 0.465351 0.250000
vt 0.465351 0.000196
vt 0.484831 0.250000
vt 0.484831 0.000029
vt 0.819236 0.737818
vt 0.819236 0.500000
vt 0.829126 0.739979
vt 0.829126 0.500000
vt 0.838869 0.742107
vt 0.838869 0.500000
vt 0.848194 0.744144
vt 0.848194 0.500000
vt 0.856642 0.745990
vt 0.856642 0.500000
vt 0.625000 0.004010
vt 0.588842 0.002478
vt 0.588842 0.250000
vt 0.625000 0.250000
vt 0.572204 0.001342
vt 0.572204 0.250000
vt 0.553838 0.000603
vt 0.553838 0.250000
vt 0.534649 0.000196
vt 0.534649 0.250000
vt 0.515169 0.000029
vt 0.515169 0.250000
vt 0.309317 0.735652
vt 0.319236 0.737818
vt 0.319236 0.500000
vt 0.309317 0.500000
vt 0.329126 0.739979
vt 0.329126 0.500000
vt 0.338869 0.742107
vt 0.338869 0.500000
vt 0.348194 0.744144
vt 0.348194 0.500000
vt 0.356642 0.745990
vt 0.356642 0.500000
vt 0.411158 0.747522
vt 0.411158 0.500000
vt 0.427796 0.748658
vt 0.427796 0.500000
vt 0.446162 0.749397
vt 0.446162 0.500000
vt 0.465351 0.749804
vt 0.465351 0.500000
vt 0.484831 0.749971
vt 0.484831 0.500000
vt 0.680764 0.500000
vt 0.680764 0.737818
vt 0.670874 0.500000
vt 0.670874 0.739979
vt 0.661131 0.500000
vt 0.661131 0.742107
vt 0.651806 0.500000
vt 0.651806 0.744144
vt 0.643358 0.500000
vt 0.643358 0.745990
vt 0.588842 0.500000
vt 0.588842 0.747522
vt 0.572204 0.500000
vt 0.572204 0.748658
vt 0.553838 0.500000
vt 0.553838 0.749397
vt 0.534649 0.500000
vt 0.534649 0.749804
vt 0.515169 0.500000
vt 0.515169 0.749971
vt 0.136344 0.750000
vt 0.363656 0.750000
vt 0.411158 0.988656
vt 0.427796 0.993856
vt 0.427796 0.756144
vt 0.411158 0.761344
vt 0.446162 0.997239
vt 0.446162 0.752761
vt 0.465351 0.999103
vt 0.465351 0.750897
vt 0.484831 0.999867
vt 0.484831 0.750133
vt 0.625000 0.768358
vt 0.588842 0.761344
vt 0.588842 0.988656
vt 0.625000 0.981642
vt 0.572204 0.756144
vt 0.572204 0.993856
vt 0.553838 0.752761
vt 0.553838 0.997239
vt 0.534649 0.750897
vt 0.534649 0.999103
vt 0.515169 0.750133
vt 0.515169 0.999867
vn 0.0000 0.0000 -1.0000
vn 1.0000 0.0000 0.0000
vn 0.0000 1.0000 0.0000
vn -1.0000 0.0000 0.0000
vn 0.0264 -0.9997 0.0000
vn 0.1509 -0.9886 0.0000
vn 0.3536 -0.9354 0.0000
vn 0.5826 -0.8127 0.0000
vn 0.7724 -0.6351 0.0000
vn 0.8922 -0.4516 0.0000
vn 0.9547 -0.2974 0.0000
vn 0.9836 -0.1806 0.0000
vn 0.9953 -0.0964 0.0000
vn 0.9992 -0.0391 0.0000
vn 1.0000 -0.0068 0.0000
vn 0.0264 0.9997 0.0000
vn 0.1509 0.9886 0.0000
vn 0.3536 0.9354 0.0000
vn 0.5826 0.8127 0.0000
vn 0.7724 0.6351 0.0000
vn 0.8922 0.4516 0.0000
vn 0.9547 0.2974 0.0000
vn 0.9836 0.1806 0.0000
vn 0.9953 0.0964 0.0000
vn 0.9992 0.0391 0.0000
vn 1.0000 0.0068 0.0000
vn -0.0264 -0.9997 0.0000
vn -0.1509 -0.9886 0.0000
vn -0.3536 -0.9354 0.0000
vn -0.5826 -0.8128 0.0000
vn -0.7724 -0.6351 0.0000
vn -0.8922 -0.4516 0.0000
vn -0.9547 -0.2974 0.0000
vn -0.9836 -0.1806 0.0000
vn -0.9953 -0.0964 0.0000
vn -0.9992 -0.0391 0.0000
vn -1.0000 -0.0068 0.0000
vn -0.0264 0.9997 0.0000
vn -0.1509 0.9886 0.0000
vn -0.3536 0.9354 0.0000
vn -0.5826 0.8127 0.0000
vn -0.7724 0.6351 0.0000
vn -0.8922 0.4516 0.0000
vn -0.9547 0.2974 0.0000
vn -0.9836 0.1806 0.0000
vn -0.9953 0.0964 0.0000
vn -0.9992 0.0391 0.0000
vn -1.0000 0.0068 0.0000
vn 0.0000 -0.9993 0.0369
vn 0.0000 -0.9780 0.2086
vn 0.0000 -0.8843 0.4670
vn 0.0000 -0.7066 0.7076
vn 0.0000 -0.5072 0.8618
vn 0.0000 -0.3406 0.9402
vn 0.0000 -0.2176 0.9760
vn 0.0000 -0.1303 0.9915
vn 0.0000 -0.0691 0.9976
vn 0.0000 -0.0280 0.9996
vn 0.0000 -0.0048 1.0000
vn 0.0000 0.9993 0.0369
vn 0.0000 0.9780 0.2086
vn 0.0000 0.8843 0.4670
vn 0.0000 0.7066 0.7076
vn 0.0000 0.5072 0.8618
vn 0.0000 0.3406 0.9402
vn 0.0000 0.2176 0.9760
vn 0.0000 0.1303 0.9915
vn 0.0000 0.0691 0.9976
vn 0.0000 0.0280 0.9996
vn 0.0000 0.0048 1.0000
vn 0.0000 -1.0000 0.0000
usemtl None
s off
f 70/36/14 22/37/14 34/38/14 82/39/14
f 93/40/15 70/36/15 82/39/15 106/41/15
f 105/42/16 81/43/16 33/44/16 58/45/16
f 22/46/17 46/47/17 57/48/17 34/49/17
f 45/50/14 94/51/14 104/52/14 103/53/14 102/54/14 101/55/14 100/56/14 99/57/14 98/58/14 97/59/14 96/60/14 95/61/14 93/40/14 106/41/14 116/62/14 115/63/14 114/64/14 113/65/14 112/66/14 111/67/14 110/68/14 109/69/14 108/70/14 107/71/14 105/72/14 58/73/14 68/74/14 67/75/14 66/76/14 65/77/14 64/78/14 63/79/14 62/80/14 61/81/14 60/82/14 59/83/14 57/48/14 46/47/14 56/84/14 55/85/14 54/86/14 53/87/14 52/88/14 51/89/14 50/90/14 49/91/14 48/92/14 47/93/14
f 45/94/18 47/95/18 23/96/18 21/97/18
f 47/95/19 48/98/19 24/99/19 23/96/19
f 48/98/20 49/100/20 25/101/20 24/99/20
f 49/100/21 50/102/21 26/103/21 25/101/21
f 50/102/22 51/104/22 27/105/22 26/103/22
f 51/104/23 52/106/23 28/107/23 27/105/23
f 52/108/24 53/109/24 29/110/24 28/111/24
f 53/109/25 54/112/25 30/113/25 29/110/25
f 54/112/26 55/114/26 31/115/26 30/113/26
f 55/114/27 56/116/27 32/117/27 31/115/27
f 56/116/28 46/47/28 22/46/28 32/117/28
f 33/44/29 35/118/29 68/119/29 58/45/29
f 35/118/30 36/120/30 67/121/30 68/119/30
f 36/120/31 37/122/31 66/123/31 67/121/31
f 37/122/32 38/124/32 65/125/32 66/123/32
f 38/124/33 39/126/33 64/127/33 65/125/33
f 39/128/34 40/129/34 63/130/34 64/131/34
f 40/129/35 41/132/35 62/133/35 63/130/35
f 41/132/36 42/134/36 61/135/36 62/133/36
f 42/134/37 43/136/37 60/137/37 61/135/37
f 43/136/38 44/138/38 59/139/38 60/137/38
f 44/138/39 34/49/39 57/48/39 59/139/39
f 69/140/40 71/141/40 104/142/40 94/143/40
f 71/141/41 72/144/41 103/145/41 104/142/41
f 72/144/42 73/146/42 102/147/42 103/145/42
f 73/146/43 74/148/43 101/149/43 102/147/43
f 74/148/44 75/150/44 100/151/44 101/149/44
f 75/150/45 76/152/45 99/153/45 100/151/45
f 76/152/46 77/154/46 98/155/46 99/153/46
f 77/154/47 78/156/47 97/157/47 98/155/47
f 78/156/48 79/158/48 96/159/48 97/157/48
f 79/158/49 80/160/49 95/161/49 96/159/49
f 80/160/50 70/36/50 93/40/50 95/161/50
f 105/42/51 107/162/51 83/163/51 81/43/51
f 107/162/52 108/164/52 84/165/52 83/163/52
f 108/164/53 109/166/53 85/167/53 84/165/53
f 109/166/54 110/168/54 86/169/54 85/167/54
f 110/168/55 111/170/55 87/171/55 86/169/55
f 111/170/56 112/172/56 88/173/56 87/171/56
f 112/172/57 113/174/57 89/175/57 88/173/57
f 113/174/58 114/176/58 90/177/58 89/175/58
f 114/176/59 115/178/59 91/179/59 90/177/59
f 115/178/60 116/180/60 92/181/60 91/179/60
f 116/180/61 106/41/61 82/39/61 92/181/61
f 21/97/62 23/96/62 71/141/62 69/140/62
f 23/96/63 24/99/63 72/144/63 71/141/63
f 24/99/64 25/101/64 73/146/64 72/144/64
f 25/101/65 26/103/65 74/148/65 73/146/65
f 26/103/66 27/105/66 75/150/66 74/148/66
f 27/105/67 28/182/67 76/183/67 75/150/67
f 28/184/68 29/185/68 77/186/68 76/187/68
f 29/185/69 30/188/69 78/189/69 77/186/69
f 30/188/70 31/190/70 79/191/70 78/189/70
f 31/190/71 32/192/71 80/193/71 79/191/71
f 32/192/72 22/37/72 70/36/72 80/193/72
f 81/43/73 83/163/73 35/118/73 33/44/73
f 83/163/74 84/165/74 36/120/74 35/118/74
f 84/165/75 85/167/75 37/122/75 36/120/75
f 85/167/76 86/169/76 38/124/76 37/122/76
f 86/169/77 87/171/77 39/126/77 38/124/77
f 87/194/78 88/195/78 40/196/78 39/197/78
f 88/195/79 89/198/79 41/199/79 40/196/79
f 89/198/80 90/200/80 42/201/80 41/199/80
f 90/200/81 91/202/81 43/203/81 42/201/81
f 91/202/82 92/204/82 44/205/82 43/203/82
f 92/204/83 82/39/83 34/38/83 44/205/83
f 45/94/84 21/97/84 69/140/84 94/143/84
