# Blender v3.1.2 OBJ File: 'lvl_2_v2.blend'
# www.blender.org
mtllib WingR.mtl
o LeftWing.001_Cube.008
v -0.748594 -0.218469 -3.240730
v -0.748594 -0.019462 -3.240730
v -3.063412 -0.218469 -3.240730
v -3.063412 -0.019462 -3.240730
v -0.748594 -0.218469 -2.034201
v -0.748594 -0.119526 -1.826294
v -0.748594 -0.118404 -1.826294
v -0.748594 -0.019462 -2.216934
v -3.063412 -0.119526 -1.978989
v -3.063412 -0.218469 -2.187450
v -3.063412 -0.019462 -2.370183
v -3.063412 -0.118404 -1.978989
v -1.366889 -0.119526 -1.826294
v -1.360732 -0.218469 -2.034201
v -1.366889 -0.118404 -1.826294
v -1.360732 -0.019462 -2.216934
vt 0.499295 0.875000
vt 0.499295 1.000000
vt 0.500705 1.000000
vt 0.500705 0.875000
vt 0.375000 0.250000
vt 0.375000 0.500000
vt 0.625000 0.500000
vt 0.625000 0.250000
vt 0.499295 0.750000
vt 0.500705 0.750000
vt 0.625000 0.708696
vt 0.770643 0.714492
vt 0.875000 0.713253
vt 0.875000 0.500000
vt 0.375000 0.036747
vt 0.625000 0.036747
vt 0.500705 0.000000
vt 0.499295 0.000000
vt 0.375000 0.708696
vt 0.229357 0.714493
vt 0.250000 0.750000
vt 0.375000 0.750000
vt 0.625000 0.876245
vt 0.625000 1.000000
vt 0.125000 0.713253
vt 0.125000 0.750000
vt 0.625000 0.750000
vt 0.625000 0.874548
vt 0.125000 0.500000
vn -0.0000 0.0000 1.0000
vn 0.0000 0.0000 -1.0000
vn -0.0896 0.0000 0.9960
vn 0.0000 1.0000 0.0000
vn 1.0000 0.0000 0.0000
vn -1.0000 -0.0000 0.0000
vn -0.0386 -0.9027 0.4285
vn 0.0000 0.9694 0.2455
vn 0.0000 -0.9030 0.4297
vn -0.0221 0.9692 0.2451
vn 0.0000 -1.0000 -0.0000
usemtl None
s off
f 13/1/1 6/2/1 7/3/1 15/4/1
f 1/5/2 3/6/2 4/7/2 2/8/2
f 9/9/3 13/1/3 15/4/3 12/10/3
f 4/7/4 11/11/4 16/12/4 8/13/4 2/14/4
f 5/15/5 1/5/5 2/8/5 8/16/5 7/17/5 6/18/5
f 3/6/6 10/19/6 9/9/6 12/10/6 11/11/6 4/7/6
f 14/20/7 13/21/7 9/22/7 10/19/7
f 16/23/8 15/4/8 7/3/8 8/24/8
f 5/25/9 6/26/9 13/21/9 14/20/9
f 11/27/10 12/10/10 15/4/10 16/28/10
f 1/29/11 5/25/11 14/20/11 10/19/11 3/6/11
