# Blender v3.2.2 OBJ File: 'LVL_10.blend'
# www.blender.org
mtllib AxeHead.mtl
o AxeHead_Cube.006
v 10.558171 -0.694781 2.874151
v 10.558171 0.810482 2.874151
v 12.943632 -0.694781 2.874151
v 12.943632 0.810482 2.874151
v 9.960465 -1.109023 0.047175
v 9.960465 1.224725 0.047175
v 13.268149 -1.109023 0.047175
v 13.268149 1.224725 0.047175
v 9.960465 -1.109023 1.299378
v 13.268149 1.224725 1.299378
v 9.960465 1.224725 1.299378
v 13.268149 -1.109023 1.299378
v 10.391850 -1.109023 2.288572
v 10.391850 1.224725 2.288572
v 12.836764 1.224725 2.288572
v 12.836764 -1.109023 2.288572
v 12.943632 0.810482 -2.779803
v 12.943632 -0.694781 -2.779803
v 10.558171 0.810482 -2.779803
v 10.558171 -0.694781 -2.779803
v 9.960465 -1.109023 -1.205029
v 13.268149 1.224725 -1.205029
v 9.960465 1.224725 -1.205029
v 13.268149 -1.109023 -1.205029
v 10.391850 -1.109023 -2.194223
v 10.391850 1.224725 -2.194223
v 12.836764 1.224725 -2.194223
v 12.836764 -1.109023 -2.194223
v 9.595894 -1.109023 1.375414
v 10.153109 -1.109023 2.653143
v 13.632721 1.224725 1.375414
v 13.075506 1.224725 2.653143
v 13.075506 -1.109023 2.653143
v 10.153109 1.224725 2.653143
v 9.595894 1.224725 1.375414
v 9.595894 1.224725 0.047175
v 13.632721 -1.109023 1.375414
v 13.632721 -1.109023 0.047175
v 9.595894 -1.109023 0.047175
v 13.632721 1.224725 0.047175
v 13.075506 -1.109023 -2.558794
v 13.632721 -1.109023 -1.281065
v 10.153109 1.224725 -2.558794
v 9.595894 1.224725 -1.281065
v 9.595894 -1.109023 -1.281065
v 13.632721 1.224725 -1.281065
v 13.075506 1.224725 -2.558794
v 10.153109 -1.109023 -2.558794
v 9.960465 -0.953065 0.047175
v 9.960465 1.068766 0.047175
v 13.268149 -0.953065 0.047175
v 13.268149 1.068766 0.047175
v 9.960465 -0.953065 1.299378
v 13.268149 1.068766 1.299378
v 9.960465 1.068766 1.299378
v 13.268149 -0.953065 1.299378
v 10.391850 -0.953065 2.288572
v 10.391850 1.068766 2.288572
v 12.836764 1.068766 2.288572
v 12.836764 -0.953065 2.288572
v 9.960465 -0.953065 -1.205029
v 13.268149 1.068766 -1.205029
v 9.960465 1.068766 -1.205029
v 13.268149 -0.953065 -1.205029
v 10.391850 -0.953065 -2.194223
v 10.391850 1.068766 -2.194223
v 12.836764 1.068766 -2.194223
v 12.836764 -0.953065 -2.194223
v 10.558171 -0.694781 3.535110
v 10.785787 -0.467166 3.762726
v 10.785787 0.582867 3.762726
v 10.558171 0.810482 3.535110
v 12.716017 -0.467166 3.762726
v 12.943632 -0.694781 3.535110
v 12.943632 0.810482 3.535110
v 12.716017 0.582867 3.762726
v 10.558171 -0.694781 -3.440761
v 10.785787 -0.467166 -3.668377
v 10.785787 0.582867 -3.668377
v 10.558171 0.810482 -3.440761
v 12.716017 -0.467166 -3.668377
v 12.943632 -0.694781 -3.440761
v 12.943632 0.810482 -3.440761
v 12.716017 0.582867 -3.668377
vt 0.375000 0.687500
vt 0.625000 0.687500
vt 0.625000 0.750000
vt 0.375000 0.750000
vt 0.593386 0.975705
vt 0.406614 0.975705
vt 0.406614 0.975705
vt 0.593386 0.975705
vt 0.375000 0.062500
vt 0.625000 0.062500
vt 0.625000 0.125000
vt 0.375000 0.125000
vt 0.375000 0.000000
vt 0.625000 0.000000
vt 0.375000 0.625000
vt 0.625000 0.625000
vt 0.406614 0.975705
vt 0.593386 0.975705
vt 0.625000 1.000000
vt 0.375000 1.000000
vt 0.593386 0.774295
vt 0.406614 0.774295
vt 0.406614 0.774295
vt 0.406614 0.975705
vt 0.593386 0.774295
vt 0.434857 0.793513
vt 0.565143 0.793513
vt 0.565143 0.956487
vt 0.434857 0.956487
vt 0.593386 0.975705
vt 0.625000 0.687500
vt 0.375000 0.687500
vt 0.625000 0.188909
vt 0.625000 0.251253
vt 0.625000 0.251253
vt 0.625000 0.188909
vt 0.375000 0.000000
vt 0.625000 0.000000
vt 0.625000 0.062500
vt 0.375000 0.062500
vt 0.625000 0.820303
vt 0.625000 0.820303
vt 0.625000 0.750000
vt 0.375000 0.750000
vt 0.625000 1.000000
vt 0.375000 1.000000
vt 0.593386 0.774295
vt 0.406614 0.774295
vt 0.406614 0.774295
vt 0.593386 0.774295
vt 0.434857 0.793513
vt 0.565143 0.793513
vt 0.565143 0.956487
vt 0.434857 0.956487
vt 0.375000 0.265593
vt 0.375000 0.828684
vt 0.625000 0.672114
vt 0.625000 0.734993
vt 0.375000 0.742949
vt 0.375000 0.684480
vt 0.375000 0.640752
vt 0.375000 0.223610
vt 0.625000 0.618272
vt 0.375000 0.684480
vt 0.375000 0.742949
vt 0.625000 0.121528
vt 0.625000 0.096124
vt 0.375000 0.265593
vt 0.625000 0.655179
vt 0.625000 0.670214
vt 0.375000 0.828684
vt 0.375000 0.828684
vt 0.375000 0.265593
vt 0.375000 0.223610
vt 0.375000 0.265593
vt 0.375000 0.828684
vt 0.375000 0.742949
vt 0.375000 0.684480
vt 0.375000 0.640752
vt 0.375000 0.684480
vt 0.375000 0.742949
vt 0.625000 0.734993
vt 0.625000 0.672114
vt 0.625000 0.618272
vt 0.625000 0.655179
vt 0.625000 0.670214
vt 0.625000 0.096124
vt 0.625000 0.121528
vn 0.9166 0.0000 0.3997
vn 1.0000 0.0000 0.0000
vn -1.0000 0.0000 0.0000
vn -0.9166 0.0000 0.3997
vn -0.4790 0.0000 0.8778
vn 0.8587 0.0000 0.5124
vn 0.0000 -0.4707 0.8823
vn 0.0000 0.4707 0.8823
vn 0.0000 -1.0000 0.0000
vn 0.0000 0.0000 1.0000
vn 0.0000 1.0000 0.0000
vn 0.9166 0.0000 -0.3997
vn 0.4790 0.0000 0.8778
vn -0.8587 0.0000 0.5124
vn -0.9166 0.0000 -0.3997
vn 0.0000 0.0000 -1.0000
vn -0.7071 0.0000 0.7071
vn 0.7071 0.0000 0.7071
vn 0.0000 -0.7071 0.7071
vn 0.0000 0.7071 0.7071
usemtl None
s off
f 37/1/1 31/2/1 32/3/1 33/4/1
f 19/5/2 20/6/2 77/7/2 80/8/2
f 29/9/3 35/10/3 36/11/3 39/12/3
f 30/13/4 34/14/4 35/10/4 29/9/4
f 38/15/2 40/16/2 31/2/2 37/1/2
f 1/17/5 2/18/5 34/19/5 30/20/5
f 4/21/6 3/22/6 33/4/6 32/3/6
f 3/22/7 1/17/7 30/20/7 33/4/7
f 2/18/8 4/21/8 32/3/8 34/19/8
f 3/22/9 74/23/9 69/24/9 1/17/9
f 3/22/2 4/21/2 75/25/2 74/23/2
f 73/26/10 76/27/10 71/28/10 70/29/10
f 2/18/11 72/30/11 75/25/11 4/21/11
f 38/15/3 40/16/3 46/31/3 42/32/3
f 6/33/2 11/34/2 55/35/2 50/36/2
f 48/37/1 43/38/1 44/39/1 45/40/1
f 45/40/2 44/39/2 36/11/2 39/12/2
f 11/34/12 14/41/12 58/42/12 55/35/12
f 42/32/4 46/31/4 47/43/4 41/44/4
f 20/6/13 19/5/13 43/45/13 48/46/13
f 17/47/14 18/48/14 41/44/14 47/43/14
f 18/48/8 20/6/8 48/46/8 41/44/8
f 19/5/7 17/47/7 47/43/7 43/45/7
f 18/48/11 82/49/11 77/7/11 20/6/11
f 18/48/3 17/47/3 83/50/3 82/49/3
f 81/51/10 84/52/10 79/53/10 78/54/10
f 19/5/9 80/8/9 83/50/9 17/47/9
f 9/55/9 13/56/9 30/20/9 29/9/9
f 10/57/11 15/58/11 32/3/11 31/2/11
f 13/56/9 16/59/9 33/4/9 30/20/9
f 15/58/11 14/41/11 34/19/11 32/3/11
f 11/34/11 6/33/11 36/11/11 35/10/11
f 12/60/9 7/61/9 38/15/9 37/1/9
f 5/62/9 9/55/9 29/9/9 39/12/9
f 8/63/11 10/57/11 31/2/11 40/16/11
f 14/41/11 11/34/11 35/10/11 34/19/11
f 16/59/9 12/60/9 37/1/9 33/4/9
f 24/64/9 28/65/9 41/44/9 42/32/9
f 23/66/11 26/67/11 43/38/11 44/39/11
f 6/33/11 23/66/11 44/39/11 36/11/11
f 21/68/9 5/62/9 39/12/9 45/40/9
f 22/69/11 8/63/11 40/16/11 46/31/11
f 26/67/11 27/70/11 47/43/11 43/38/11
f 28/65/9 25/71/9 48/46/9 41/44/9
f 27/70/11 22/69/11 46/31/11 47/43/11
f 25/71/9 21/68/9 45/40/9 48/46/9
f 7/61/9 24/64/9 42/32/9 38/15/9
f 57/72/9 53/73/9 49/74/9 61/75/9 65/76/9 68/77/9 64/78/9 51/79/9 56/80/9 60/81/9
f 59/82/11 54/83/11 52/84/11 62/85/11 67/86/11 66/87/11 63/88/11 50/36/11 55/35/11 58/42/11
f 6/33/2 50/36/2 63/88/2 23/66/2
f 23/66/1 63/88/1 66/87/1 26/67/1
f 26/67/10 66/87/10 67/86/10 27/70/10
f 27/70/4 67/86/4 62/85/4 22/69/4
f 22/69/3 62/85/3 52/84/3 8/63/3
f 10/57/3 8/63/3 52/84/3 54/83/3
f 15/58/15 10/57/15 54/83/15 59/82/15
f 14/41/16 15/58/16 59/82/16 58/42/16
f 28/65/10 68/77/10 65/76/10 25/71/10
f 25/71/1 65/76/1 61/75/1 21/68/1
f 21/68/2 61/75/2 49/74/2 5/62/2
f 9/55/2 5/62/2 49/74/2 53/73/2
f 13/56/12 9/55/12 53/73/12 57/72/12
f 16/59/16 13/56/16 57/72/16 60/81/16
f 12/60/15 16/59/15 60/81/15 56/80/15
f 7/61/3 12/60/3 56/80/3 51/79/3
f 7/61/3 51/79/3 64/78/3 24/64/3
f 24/64/4 64/78/4 68/77/4 28/65/4
f 70/29/17 71/28/17 72/30/17 69/24/17
f 76/27/18 73/26/18 74/23/18 75/25/18
f 69/24/19 74/23/19 73/26/19 70/29/19
f 75/25/20 72/30/20 71/28/20 76/27/20
f 78/54/18 79/53/18 80/8/18 77/7/18
f 84/52/17 81/51/17 82/49/17 83/50/17
f 77/7/20 82/49/20 81/51/20 78/54/20
f 83/50/19 80/8/19 79/53/19 84/52/19
f 2/18/3 1/17/3 69/24/3 72/30/3
