# Blender v3.2.2 OBJ File: 'LVL_10.blend'
# www.blender.org
mtllib BackBody.mtl
o BackBody_Cube.001
v -3.673903 -1.221114 11.946961
v -3.933672 0.887957 12.035788
v -3.673903 -1.221114 -11.946961
v -3.933672 0.887957 -12.035788
v -8.917568 -0.827755 14.272993
v -8.917568 0.623989 14.272993
v -8.917568 -0.827755 -14.272993
v -8.917568 0.623989 -14.272993
v -4.588366 -1.215664 11.092420
v -4.362964 -0.659832 11.257747
v -4.362964 0.456067 11.257747
v -4.362964 -0.659832 -11.257747
v -4.588366 -1.215664 -11.092420
v -4.362964 0.456067 -11.257747
v -5.639400 -0.508375 -10.075662
v -5.639400 -0.508375 10.075662
v -1.646611 -0.370742 4.880118
v -1.886562 -0.739697 4.057434
v -1.930119 0.737426 4.158144
v -1.646611 0.166977 4.880118
v -1.886562 -0.739697 -4.057434
v -1.646611 -0.370742 -4.880118
v -1.646611 0.166977 -4.880118
v -1.930119 0.737426 -4.158144
v -3.159099 0.175370 -4.305256
v -2.163414 -0.857867 -3.967194
v -2.528999 0.760289 4.101219
v -2.163414 -0.857867 3.967194
v -3.159099 0.175370 4.305256
v -2.528999 0.760289 -4.101219
v -17.769115 -1.782543 0.000000
v -14.880378 -1.006491 13.959932
v -14.851955 0.770171 13.959932
v -14.880378 -1.006491 -13.959932
v -14.851955 0.770171 -13.959932
v -20.419964 -0.936011 2.787959
v -20.419964 0.699692 -2.787959
v -20.419964 -0.936011 -2.787959
v -20.419964 0.699692 2.787959
v -14.072757 -0.977814 12.883370
v -14.072757 0.757771 12.883370
v -14.072757 -0.977814 -12.883370
v -14.072757 0.757771 -12.883370
v -18.248276 -1.674251 5.279594
v -16.745342 -0.706363 5.878893
v -16.745342 0.470043 5.878893
v -18.224773 1.329269 5.055526
v -16.745342 -0.706363 -5.878893
v -18.248276 -1.674251 -5.279594
v -18.224773 1.329269 -5.055526
v -16.745342 0.470043 -5.878893
v -12.991190 -1.597848 7.902369
v -13.946823 -1.019616 7.974542
v -13.051909 1.603132 7.460380
v -13.946823 0.815851 7.974542
v -12.991190 -1.597848 -7.902369
v -13.946823 -1.019616 -7.974542
v -13.051909 1.603132 -7.460380
v -13.946823 0.815851 -7.974542
v -13.468628 -1.103640 13.931918
v -13.468628 0.899875 13.931918
v -13.468628 -1.103640 -13.931918
v -13.468628 0.899875 -13.931918
v -13.622396 1.770138 6.737185
v -14.778794 0.815851 6.926717
v -14.778794 -1.019616 6.926717
v -13.858570 -1.904617 6.819875
v -13.858570 -1.904617 -6.819875
v -14.778794 -1.019616 -6.926717
v -14.778794 0.815851 -6.926717
v -13.622396 1.770138 -6.737185
v -12.718565 1.394083 9.886889
v -13.691547 0.815851 9.832762
v -13.691547 -1.019616 9.832762
v -12.718565 -1.410196 9.886889
v -12.718565 -1.410196 -9.886889
v -13.691547 -1.019616 -9.832762
v -13.691547 0.815851 -9.832762
v -12.718565 1.394083 -9.886889
v -8.921356 -1.807767 0.000000
v -6.660784 -1.459967 0.000000
v -9.858719 2.065340 -0.000000
v -6.660784 1.770682 0.000000
v -11.319708 -1.904617 -4.546501
v -8.881643 -1.322406 -4.861986
v -12.167113 1.727696 5.674419
v -8.881643 0.789026 4.861986
v -11.319708 -1.904617 4.546501
v -8.881643 -1.322406 4.861986
v -12.124321 1.727696 -5.688708
v -8.881643 0.789026 -4.861986
v -7.736198 -0.753154 4.446184
v -10.089491 -1.793152 3.031827
v -7.736198 0.988075 -4.419459
v -11.097710 1.865131 -3.410797
v -7.736198 -0.753154 -4.446184
v -10.089491 -1.793152 -3.031826
v -7.736198 0.988075 4.419459
v -11.097710 1.865131 3.410797
v -12.128860 -1.768529 -6.210281
v -9.091743 -1.036360 -5.711493
v -9.091743 1.092692 5.711493
v -9.091743 -1.036360 5.711493
v -12.128860 -1.768529 6.210282
v -9.091743 1.092692 -5.699221
v -10.222969 -1.410196 -8.369915
v -8.654983 -0.824741 -6.602106
v -10.234759 1.394083 8.380864
v -8.654983 0.843274 6.602106
v -8.654983 -0.824741 6.602106
v -10.222969 -1.410196 8.369915
v -8.654983 0.843274 -6.602106
v -10.234759 1.394083 -8.380864
v -5.008351 0.709016 10.029892
v -4.980750 0.868273 10.847931
v -4.980750 0.868273 -10.847931
v -5.008351 0.709016 -10.029892
v -5.555131 -0.736798 -10.276707
v -5.344290 -1.308317 -10.779725
v -5.344290 -1.308317 10.779725
v -5.555131 -0.736798 10.276707
v -17.710190 1.795759 0.000000
v -7.430621 -1.266492 3.469464
v -7.198491 1.770250 -2.816472
v -7.430621 -1.266492 -3.469464
v -7.198491 1.770250 2.816472
v -12.399548 1.107987 -4.123004
v -11.050870 1.202980 -3.536991
v -12.094874 1.065545 -5.596963
v -12.399548 1.112767 4.120428
v -11.050870 1.207760 3.536990
v -12.094874 1.070325 5.596962
v -12.124321 1.727696 -5.669721
vt 0.421604 0.718750
vt 0.579349 0.718750
vt 0.573978 0.734375
vt 0.427193 0.734375
vt 0.573978 0.515625
vt 0.427193 0.515625
vt 0.342936 0.464392
vt 0.358943 0.486068
vt 0.131250 0.177735
vt 0.295149 0.442723
vt 0.362607 0.553974
vt 0.343263 0.572106
vt 0.000000 0.000000
vt 0.069333 0.034667
vt 0.019405 0.029107
vt 0.415111 0.687500
vt 0.585461 0.687500
vt 0.414827 0.609375
vt 0.585674 0.609375
vt 0.585704 0.625000
vt 0.414787 0.625000
vt 0.421604 0.531250
vt 0.579349 0.531250
vt 0.585461 0.562500
vt 0.415111 0.562500
vt 0.000000 0.000000
vt 0.000000 0.000000
vt 0.000000 0.000000
vt 0.000000 0.000000
vt 0.000000 0.000000
vt 0.302886 0.410158
vt 0.301739 0.415309
vt 0.022779 0.033334
vt 0.597864 0.500000
vt 0.402136 0.500000
vt 0.000000 0.000000
vt 0.402136 0.750000
vt 0.597864 0.750000
vt 0.000000 0.000000
vt 0.000000 0.000000
vt 0.000000 0.000000
vt 0.000000 0.000000
vt 0.000000 0.000000
vt 0.000000 0.000000
vt 0.000000 0.000000
vt 0.003075 0.006086
vt 0.375000 0.742188
vt 0.375000 0.744107
vt 0.055716 0.110556
vt 0.002197 0.004348
vt 0.000000 0.000000
vt 0.000000 0.000000
vt 0.625000 0.505893
vt 0.107139 0.094160
vt 0.313601 0.424382
vt 0.375000 0.505893
vt 0.394716 0.507812
vt 0.000000 0.000000
vt 0.500614 0.587790
vt 0.035211 0.039327
vt 0.375000 0.748139
vt 0.097909 0.120054
vt 0.093483 0.111298
vt 0.625000 0.744107
vt 0.605284 0.742188
vt 0.394717 0.742188
vt 0.358943 0.710407
vt 0.111369 0.146693
vt 0.375000 0.501861
vt 0.070215 0.095082
vt 0.111369 0.100369
vt 0.605283 0.507812
vt 0.141436 0.191528
vt 0.606623 0.187500
vt 0.606623 0.062500
vt 0.105006 0.011394
vt 0.105006 0.021001
vt 0.072005 0.019221
vt 0.393377 0.187500
vt 0.606623 0.250000
vt 0.393377 0.250000
vt 0.069333 0.011556
vt 0.393377 0.062500
vt 0.000000 0.000000
vt 0.000000 0.000000
vt 0.000000 0.000000
vt 0.000000 0.000000
vt 0.000000 0.000000
vt 0.000000 0.000000
vt 0.000000 0.000000
vt 0.000000 0.000000
vt 0.000000 0.000000
vt 0.000000 0.000000
vt 0.000000 0.000000
vt 0.000000 0.000000
vt 0.000000 0.000000
vt 0.000000 0.000000
vt 0.585645 0.593750
vt 0.414867 0.593750
vt 0.000000 0.000000
vt 0.000000 0.000000
vt 0.000000 0.000000
vt 0.000000 0.000000
vt 0.000000 0.000000
vt 0.000000 0.000000
vt 0.000000 0.000000
vt 0.000000 0.000000
vt 0.414827 0.640625
vt 0.585674 0.640625
vt 0.585645 0.656250
vt 0.414867 0.656250
vt 0.208045 0.000000
vt 0.393377 0.000000
vt 0.606623 0.000000
vt 0.000000 0.000000
vt 0.266354 0.106541
vt 0.072005 0.009581
vt 0.266354 0.000000
vt 0.208045 0.138697
vt 0.065878 0.072821
vt 0.057372 0.063109
vt 0.019405 0.035576
vt 0.030355 0.056054
vt 0.031240 0.046328
vt 0.057372 0.051635
vt 0.065878 0.058936
vt 0.021190 0.039450
vt 0.035211 0.031094
vt 0.000000 0.000000
vt -0.030920 -0.030600
vt -0.030920 -0.031240
vt 0.105006 0.030609
vt 0.593643 0.593643
vt 0.607611 0.556362
vt 0.495780 0.446202
vt 0.011310 0.022385
vt 0.000000 0.000000
vt 0.493188 0.406880
vt 0.301408 0.589832
vt 0.000000 0.000000
vt 0.277533 0.517481
vt 0.295149 0.541106
vt 0.362607 0.654161
vt 0.277654 0.407793
vt 0.469924 0.412365
vt 0.472723 0.530609
vt 0.625000 0.734375
vt 0.016057 0.031780
vt 0.495780 0.545358
vt 0.607611 0.658861
vt 0.000000 0.000000
vt 0.000000 0.000000
vt 0.000000 0.000000
vt 0.000000 0.000000
vt 0.000000 0.000000
vt 0.000000 0.000000
vt 0.000000 0.000000
vn 0.8978 0.0000 -0.4403
vn 0.7141 -0.1745 0.6779
vn -0.0153 -0.9999 0.0077
vn 0.9708 0.0000 0.2401
vn 0.9788 -0.0150 -0.2041
vn 0.9704 0.0007 -0.2415
vn 0.6789 0.4156 0.6053
vn 0.0132 -0.9994 -0.0305
vn 0.9200 0.0000 -0.3919
vn 0.7773 0.0543 0.6268
vn 0.9200 0.0000 0.3919
vn 0.7773 0.0543 -0.6268
vn 0.4075 0.0069 -0.9132
vn -0.7204 -0.5824 -0.3766
vn 0.4075 0.0069 0.9132
vn 0.5728 0.7875 -0.2275
vn -0.7204 -0.5824 0.3766
vn 0.0644 0.9976 0.0271
vn 0.7252 -0.6390 0.2565
vn 0.1937 -0.9809 0.0167
vn -0.1283 0.9898 -0.0625
vn -0.7994 0.5169 -0.3064
vn 0.7252 -0.6390 -0.2565
vn -0.1283 0.9898 0.0625
vn -0.7994 0.5169 0.3064
vn 0.1937 -0.9809 -0.0167
vn -0.3455 0.9384 0.0000
vn -0.8954 0.0075 -0.4451
vn -0.3096 -0.9509 0.0000
vn 0.9343 0.0000 0.3565
vn -0.4702 0.0000 0.8825
vn 0.0396 -0.9667 -0.2529
vn 0.0396 -0.9667 0.2529
vn -0.9907 0.0000 0.1361
vn 0.3489 0.0065 -0.9371
vn -0.7832 0.0000 -0.6218
vn -0.7832 0.0000 0.6218
vn -0.9923 0.0000 0.1240
vn -0.9923 0.0000 -0.1240
vn 0.9506 -0.0020 0.3105
vn 0.9343 0.0000 -0.3565
vn -0.4702 0.0000 -0.8825
vn -0.5855 -0.7587 0.2855
vn -0.8954 0.0075 0.4451
vn -1.0000 0.0000 0.0000
vn -0.9907 0.0000 -0.1361
vn 0.0263 0.9917 0.1260
vn 0.0433 0.9764 0.2117
vn -0.5855 -0.7587 -0.2855
vn -0.4860 0.8413 -0.2369
vn -0.4860 0.8413 0.2369
vn 0.3463 0.9310 -0.1157
vn 0.3722 -0.9204 -0.1201
vn 0.3722 -0.9204 0.1201
vn 0.3463 0.9310 0.1157
vn -0.4819 0.7504 0.4524
vn -0.5018 -0.7046 0.5017
vn -0.5018 -0.7046 -0.5017
vn -0.4819 0.7504 -0.4524
vn -0.4178 0.9085 0.0041
vn -0.3095 -0.9509 -0.0027
vn -0.3095 -0.9509 0.0027
vn -0.4178 0.9085 -0.0041
vn -0.3925 0.3942 0.8310
vn -0.3839 -0.2209 0.8965
vn -0.3839 -0.2209 -0.8965
vn -0.3925 0.3942 -0.8310
vn -0.5670 0.8153 0.1177
vn -0.4456 -0.8891 0.1046
vn -0.4456 -0.8891 -0.1046
vn -0.5670 0.8153 -0.1177
vn -0.0505 0.9977 -0.0459
vn 0.0035 -0.9971 0.0762
vn 0.0035 -0.9971 -0.0762
vn 0.7141 -0.1745 -0.6779
vn 0.0644 0.9976 -0.0271
vn 0.3489 0.0065 0.9371
vn 0.0132 -0.9994 0.0305
vn 0.8990 -0.0014 0.4379
vn 0.0263 0.9917 -0.1260
vn 0.0433 0.9764 -0.2117
vn 0.3067 -0.9509 -0.0422
vn 0.2338 -0.9389 0.2525
vn 0.3067 -0.9509 0.0422
vn 0.2338 -0.9389 -0.2525
vn 0.2645 -0.9641 -0.0230
vn 0.2478 0.9688 0.0033
vn 0.2645 -0.9641 0.0230
vn 0.2453 0.9694 -0.0044
vn 0.2590 -0.9144 -0.3111
vn 0.2590 -0.9144 0.3111
vn 0.1776 0.9711 -0.1594
vn 0.1776 0.9711 0.1594
vn -0.0153 -0.9999 -0.0077
vn 0.0554 0.9944 0.0903
vn 0.0549 0.9943 -0.0913
vn 0.1317 -0.9791 0.1551
vn 0.0496 -0.9933 0.1048
vn 0.0496 -0.9933 -0.1048
vn 0.1317 -0.9791 -0.1551
vn -0.0506 0.9977 0.0460
vn 0.5728 0.7875 0.2275
vn 0.6789 0.4156 -0.6053
vn 0.9788 -0.0150 0.2041
vn 0.9506 -0.0020 -0.3105
vn -0.2438 0.1649 -0.9557
vn 0.6212 -0.6316 -0.4639
vn 0.9772 0.0712 0.1999
vn 0.0325 0.1386 0.9898
vn 0.6199 -0.6241 0.4756
vn 0.9718 0.1300 -0.1968
vn -0.2434 0.1661 0.9556
vn 0.0369 0.1209 -0.9920
vn 0.0918 0.9958 0.0000
vn 0.0918 0.8824 -0.4614
vn 0.0351 0.9968 -0.0713
vn 0.0351 0.9968 0.0713
vn 0.0918 0.8824 0.4614
vn 0.1674 -0.9825 -0.0814
vn 0.0922 -0.8692 -0.4857
vn 0.0922 -0.8692 0.4857
vn 0.1674 -0.9825 0.0814
usemtl None
s off
f 103/1/1 102/2/1 109/3/1 110/4/1
f 112/5/2 107/6/2 118/7/2 15/8/2 117/9/2
f 84/10/3 97/11/3 80/12/3 31/13/3 49/14/3 68/15/3
f 89/16/4 87/17/4 102/2/4 103/1/4
f 125/18/5 124/19/5 83/20/5 81/21/5
f 101/22/6 105/23/6 91/24/6 85/25/6
f 4/26/7 116/27/7 14/28/7
f 3/29/8 13/30/8 119/31/8 106/32/8 76/33/8
f 23/34/9 22/35/9 12/36/9 14/28/9
f 3/29/10 4/26/10 14/28/10 12/36/10 13/30/10
f 17/37/11 20/38/11 11/39/11 10/40/11
f 1/41/12 9/42/12 10/40/12 11/39/12 2/43/12
f 3/29/13 7/44/13 8/45/13 4/26/13
f 16/46/14 29/47/14 28/48/14 120/49/14 121/50/14
f 1/41/15 2/43/15 6/51/15 5/52/15
f 24/53/16 23/34/16 14/28/16 116/54/16
f 118/7/17 119/55/17 26/56/17 25/57/17 15/8/17
f 115/58/18 108/59/18 72/60/18 2/43/18
f 9/42/19 18/61/19 17/37/19 10/40/19
f 9/42/20 120/49/20 28/48/20 18/61/20
f 114/62/21 115/63/21 19/64/21 27/65/21
f 29/66/22 16/67/22 114/68/22 27/65/22
f 12/36/23 22/35/23 21/69/23 13/70/23
f 116/54/24 117/71/24 30/72/24 24/53/24
f 15/8/25 25/57/25 30/72/25 117/73/25
f 26/56/26 119/31/26 13/70/26 21/69/26
f 37/74/27 39/75/27 47/76/27 122/77/27 50/78/27
f 38/79/28 37/74/28 35/80/28 34/81/28
f 49/14/29 31/13/29 44/82/29 36/83/29 38/79/29
f 43/84/30 51/85/30 48/86/30 42/87/30
f 45/88/31 66/89/31 65/90/31 46/91/31
f 7/44/32 3/29/32 62/92/32
f 5/52/33 60/93/33 1/41/33
f 53/94/34 74/95/34 73/96/34 55/97/34
f 85/25/35 91/24/35 94/98/35 96/99/35
f 70/100/36 59/101/36 57/102/36 69/103/36
f 66/89/37 53/94/37 55/97/37 65/90/37
f 78/104/38 43/84/38 42/87/38 77/105/38
f 74/95/39 40/106/39 41/107/39 73/96/39
f 123/108/40 126/109/40 98/110/40 92/111/40
f 40/106/41 45/88/41 46/91/41 41/107/41
f 51/85/42 70/100/42 69/103/42 48/86/42
f 36/83/43 44/82/43 32/112/43
f 32/113/44 33/114/44 39/75/44 36/83/44
f 38/79/45 36/83/45 39/75/45 37/74/45
f 59/101/46 78/104/46 77/105/46 57/102/46
f 61/115/47 2/43/47 72/60/47
f 6/51/48 2/43/48 61/115/48
f 38/79/49 34/81/49 49/14/49
f 37/74/50 50/78/50 35/116/50
f 33/114/51 47/117/51 39/75/51
f 41/107/52 46/91/52 47/117/52 33/118/52
f 32/112/53 44/82/53 45/88/53 40/106/53
f 42/87/54 48/86/54 49/14/54 34/119/54
f 35/116/55 50/78/55 51/85/55 43/84/55
f 65/90/56 55/97/56 54/120/56 64/121/56
f 67/122/57 52/123/57 53/94/57 66/89/57
f 69/103/58 57/102/58 56/124/58 68/15/58
f 71/125/59 58/126/59 59/101/59 70/100/59
f 73/96/60 41/107/60 61/115/60 72/60/60
f 75/127/61 60/93/61 40/106/61 74/95/61
f 77/105/62 42/87/62 62/92/62 76/33/62
f 79/128/63 63/129/63 43/84/63 78/104/63
f 46/91/64 65/90/64 64/121/64 47/130/64
f 44/82/65 67/122/65 66/89/65 45/88/65
f 48/86/66 69/103/66 68/15/66 49/14/66
f 50/131/67 71/125/67 70/100/67 51/85/67
f 55/97/68 73/96/68 72/60/68 54/120/68
f 52/123/69 75/127/69 74/95/69 53/94/69
f 57/102/70 77/105/70 76/33/70 56/124/70
f 58/126/71 79/128/71 78/104/71 59/101/71
f 50/132/72 122/77/72 82/133/72 95/134/72 90/135/72 71/125/72
f 75/127/73 1/41/73 60/93/73
f 76/33/74 62/92/74 3/29/74
f 110/4/75 109/3/75 114/136/75 16/46/75 121/50/75
f 116/27/76 4/26/76 79/137/76 113/138/76
f 92/111/77 98/110/77 87/17/77 89/16/77
f 1/41/78 75/127/78 111/139/78 120/140/78 9/42/78
f 107/6/79 112/5/79 105/23/79 101/22/79
f 63/129/80 79/137/80 4/26/80
f 4/26/81 8/45/81 63/129/81
f 97/11/82 84/10/82 85/25/82 96/99/82
f 104/141/83 88/142/83 89/16/83 103/1/83
f 88/142/84 93/143/84 92/111/84 89/16/84
f 84/10/85 100/144/85 101/22/85 85/25/85
f 111/139/86 104/141/86 103/1/86 110/4/86
f 113/138/87 90/145/87 105/23/87 112/5/87
f 100/144/88 106/32/88 107/6/88 101/22/88
f 86/146/89 108/59/89 109/3/89 102/2/89
f 110/4/90 121/50/90 120/140/90 111/139/90
f 106/32/91 119/31/91 118/7/91 107/6/91
f 108/147/92 115/148/92 114/136/92 109/3/92
f 116/27/93 113/138/93 112/5/93 117/9/93
f 93/143/94 88/142/94 67/122/94 44/82/94 31/13/94 80/12/94
f 54/120/95 72/60/95 108/59/95 86/146/95 64/121/95
f 58/126/96 71/125/96 90/145/96 113/138/96 79/128/96
f 67/122/97 88/142/97 104/141/97 52/123/97
f 52/123/98 104/141/98 111/139/98 75/127/98
f 76/33/99 106/32/99 100/144/99 56/124/99
f 56/124/100 100/144/100 84/10/100 68/15/100
f 64/121/101 86/149/101 99/150/101 82/133/101 122/77/101 47/76/101
f 11/39/102 20/38/102 19/64/102 115/63/102
f 11/39/103 115/63/103 2/43/103
f 81/21/104 83/20/104 126/109/104 123/108/104
f 96/99/105 94/98/105 124/19/105 125/18/105
f 95/134/106 94/98/106 128/151/106
f 95/134/107 128/151/107 127/152/107 90/135/107
f 127/152/108 129/153/108 90/135/108
f 90/145/109 129/153/109 105/23/109
f 130/154/110 131/155/110 99/150/110 86/149/110
f 86/146/111 132/156/111 130/154/111
f 99/150/112 131/155/112 98/110/112
f 102/2/113 132/156/113 86/146/113
f 83/20/114 124/19/114 82/157/114 126/109/114
f 94/98/115 95/134/115 124/19/115
f 82/157/116 124/19/116 95/134/116
f 99/150/117 126/109/117 82/157/117
f 99/150/118 98/110/118 126/109/118
f 80/12/119 97/11/119 125/18/119 81/21/119
f 97/11/120 96/99/120 125/18/120
f 92/111/121 93/143/121 123/108/121
f 93/143/122 80/12/122 81/21/122 123/108/122
