# Blender v3.2.2 OBJ File: 'LVL_10.blend'
# www.blender.org
mtllib BackHitch.mtl
o BackHitch_Cube.027
v -22.569702 -0.743079 -1.233190
v -22.973108 -0.741264 -1.233190
v -22.552504 0.743292 -1.233190
v -22.955910 0.745107 -1.233190
v -22.569702 -0.743079 1.233190
v -22.973108 -0.741264 1.233190
v -22.552504 0.743292 1.233190
v -22.955910 0.745107 1.233190
v -22.574423 -0.002592 -1.663757
v -22.960968 0.004342 -1.663757
v -22.562820 1.000075 0.000000
v -22.949366 1.007010 -0.000000
v -22.574423 -0.002592 1.663757
v -22.960968 0.004342 1.663757
v -22.586023 -1.005260 0.000000
v -22.972570 -0.998326 -0.000000
v -23.022486 0.002592 -0.000000
v -22.574423 -0.002592 0.000000
v -20.710175 -0.685698 -1.127596
v -21.986216 -0.673542 -1.127596
v -20.694445 0.673542 -1.127596
v -21.970488 0.685698 -1.127596
v -20.710175 -0.685698 1.127596
v -21.986216 -0.673542 1.127595
v -20.694447 0.673542 1.127596
v -21.970488 0.685698 1.127595
v -20.744368 -0.008201 -1.521294
v -21.967213 0.008200 -1.521294
v -20.733759 0.908708 0.000000
v -21.956602 0.925109 -0.000000
v -20.744368 -0.008201 1.521294
v -21.967213 0.008200 1.521294
v -20.754978 -0.925109 0.000000
v -21.977823 -0.908708 -0.000000
v -22.161755 0.008200 -0.000000
v -21.777679 -0.445952 -0.733346
v -22.607569 -0.438046 -0.733346
v -21.767450 0.438046 -0.733346
v -22.597340 0.445952 -0.733346
v -21.777679 -0.445952 0.733346
v -22.607569 -0.438046 0.733346
v -21.767450 0.438046 0.733346
v -22.597340 0.445952 0.733346
v -21.799917 -0.005333 -0.989392
v -22.595209 0.005333 -0.989392
v -21.793018 0.590989 0.000000
v -22.588310 0.601656 -0.000000
v -21.799917 -0.005333 0.989392
v -22.595209 0.005333 0.989392
v -21.806818 -0.601656 0.000000
v -22.602110 -0.590989 -0.000000
vt 0.375000 0.125000
vt 0.625000 0.125000
vt 0.625000 0.250000
vt 0.375000 0.250000
vt 0.375000 0.375000
vt 0.625000 0.375000
vt 0.625000 0.500000
vt 0.375000 0.500000
vt 0.375000 0.625000
vt 0.625000 0.625000
vt 0.625000 0.750000
vt 0.375000 0.750000
vt 0.375000 0.875000
vt 0.625000 0.875000
vt 0.625000 1.000000
vt 0.375000 1.000000
vt 0.250000 0.625000
vt 0.250000 0.750000
vt 0.750000 0.625000
vt 0.875000 0.625000
vt 0.875000 0.750000
vt 0.750000 0.750000
vt 0.750000 0.500000
vt 0.875000 0.500000
vt 0.125000 0.625000
vt 0.125000 0.750000
vt 0.125000 0.500000
vt 0.250000 0.500000
vt 0.375000 0.000000
vt 0.625000 0.000000
vt 0.375000 0.125000
vt 0.625000 0.125000
vt 0.625000 0.250000
vt 0.375000 0.250000
vt 0.375000 0.375000
vt 0.625000 0.375000
vt 0.625000 0.500000
vt 0.375000 0.500000
vt 0.375000 0.625000
vt 0.625000 0.625000
vt 0.625000 0.750000
vt 0.375000 0.750000
vt 0.375000 0.875000
vt 0.625000 0.875000
vt 0.625000 1.000000
vt 0.375000 1.000000
vt 0.750000 0.625000
vt 0.875000 0.625000
vt 0.875000 0.750000
vt 0.750000 0.750000
vt 0.750000 0.500000
vt 0.875000 0.500000
vt 0.375000 0.000000
vt 0.625000 0.000000
vt 0.375000 0.125000
vt 0.625000 0.125000
vt 0.625000 0.250000
vt 0.375000 0.250000
vt 0.375000 0.375000
vt 0.625000 0.375000
vt 0.625000 0.500000
vt 0.375000 0.500000
vt 0.375000 0.625000
vt 0.625000 0.625000
vt 0.625000 0.750000
vt 0.375000 0.750000
vt 0.375000 0.875000
vt 0.625000 0.875000
vt 0.625000 1.000000
vt 0.375000 1.000000
vt 0.375000 0.000000
vt 0.625000 0.000000
vn 0.0056 0.5011 -0.8653
vn 0.0108 0.9785 0.2058
vn -0.0056 -0.5013 0.8652
vn -0.0108 -0.9785 -0.2061
vn 1.0000 -0.0026 -0.0054
vn -0.9993 -0.0274 -0.0235
vn -0.9993 -0.0274 0.0235
vn -0.9984 0.0505 0.0235
vn -0.9984 0.0505 -0.0235
vn 1.0000 -0.0026 0.0054
vn 0.9998 -0.0205 0.0054
vn 0.9998 -0.0205 -0.0054
vn -0.0108 -0.9785 0.2061
vn 0.0056 0.5011 0.8653
vn 0.0108 0.9785 -0.2058
vn -0.0056 -0.5013 -0.8652
vn 0.0057 0.5011 -0.8654
vn 0.0112 0.9785 0.2058
vn -0.0057 -0.5013 0.8653
vn -0.0112 -0.9785 -0.2061
vn -0.9893 -0.1218 -0.0803
vn -0.9893 -0.1218 0.0803
vn -0.9862 0.1447 0.0803
vn -0.9862 0.1447 -0.0803
vn -0.0112 -0.9785 0.2061
vn 0.0057 0.5011 0.8654
vn 0.0112 0.9785 -0.2058
vn -0.0057 -0.5013 -0.8653
usemtl None
s off
f 9/1/1 10/2/1 4/3/1 3/4/1
f 11/5/2 12/6/2 8/7/2 7/8/2
f 13/9/3 14/10/3 6/11/3 5/12/3
f 15/13/4 16/14/4 2/15/4 1/16/4
f 18/17/5 13/9/5 5/12/5 15/18/5
f 17/19/6 10/20/6 2/21/6 16/22/6
f 14/10/7 17/19/7 16/22/7 6/11/7
f 8/7/8 12/23/8 17/19/8 14/10/8
f 12/23/9 4/24/9 10/20/9 17/19/9
f 9/25/10 18/17/10 15/18/10 1/26/10
f 3/27/11 11/28/11 18/17/11 9/25/11
f 11/28/12 7/8/12 13/9/12 18/17/12
f 5/12/13 6/11/13 16/14/13 15/13/13
f 7/8/14 8/7/14 14/10/14 13/9/14
f 3/4/15 4/3/15 12/6/15 11/5/15
f 1/29/16 2/30/16 10/2/16 9/1/16
f 27/31/17 28/32/17 22/33/17 21/34/17
f 29/35/18 30/36/18 26/37/18 25/38/18
f 31/39/19 32/40/19 24/41/19 23/42/19
f 33/43/20 34/44/20 20/45/20 19/46/20
f 35/47/21 28/48/21 20/49/21 34/50/21
f 32/40/22 35/47/22 34/50/22 24/41/22
f 26/37/23 30/51/23 35/47/23 32/40/23
f 30/51/24 22/52/24 28/48/24 35/47/24
f 23/42/25 24/41/25 34/44/25 33/43/25
f 25/38/26 26/37/26 32/40/26 31/39/26
f 21/34/27 22/33/27 30/36/27 29/35/27
f 19/53/28 20/54/28 28/32/28 27/31/28
f 44/55/17 45/56/17 39/57/17 38/58/17
f 46/59/18 47/60/18 43/61/18 42/62/18
f 48/63/19 49/64/19 41/65/19 40/66/19
f 50/67/20 51/68/20 37/69/20 36/70/20
f 40/66/25 41/65/25 51/68/25 50/67/25
f 42/62/26 43/61/26 49/64/26 48/63/26
f 38/58/27 39/57/27 47/60/27 46/59/27
f 36/71/28 37/72/28 45/56/28 44/55/28
