# Blender v3.2.2 OBJ File: 'LVL_10.blend'
# www.blender.org
mtllib Blade.mtl
o Blade_Cube.011
v 10.901213 0.482923 -3.465763
v 10.901213 -0.362369 -3.465763
v 12.596238 0.482923 -3.465763
v 12.596238 -0.362369 -3.465763
v 11.283148 0.352954 -8.120453
v 11.283148 -0.232400 -8.120453
v 11.941666 0.352954 -8.134596
v 11.941666 -0.232400 -8.134596
v 11.000894 0.060277 -8.702435
v 5.670311 0.060277 -4.823623
v 11.941666 0.060277 -8.810510
v 5.774351 0.060277 -5.692694
v 20.264538 0.060277 -5.769023
v 18.434175 -0.232400 -6.356699
v 18.735256 0.060277 -7.289766
v 18.119938 0.352954 -6.533889
v 14.586626 0.060277 -8.572724
v 14.474605 -0.232400 -7.581190
v 14.474605 0.352954 -7.581190
v 19.246792 0.352954 -5.602511
v 20.134674 0.216183 -5.219444
v 20.134674 -0.095629 -5.219444
v 19.672754 -0.232400 -5.425322
v 9.943116 0.352954 -5.355336
v 9.714380 0.184409 -5.030761
v 13.083487 -0.232400 -4.430128
v 13.083487 -0.063855 -4.430128
v 13.083487 0.184409 -4.430128
v 13.083487 0.352954 -4.430128
v 9.943116 -0.232400 -5.355336
v 9.714380 -0.063855 -5.030761
v 13.708208 -0.232400 -4.999569
v 13.772459 -0.063855 -4.685523
v 13.772459 0.184409 -4.685523
v 13.708208 0.352954 -4.999569
v 10.333904 -0.232400 -4.325834
v 10.073842 -0.063855 -4.083787
v 10.073842 0.184409 -4.083788
v 10.333904 0.352954 -4.325834
v 10.877456 -0.063855 -3.905516
v 10.877456 -0.232400 -3.905516
v 10.877456 0.352954 -3.905516
v 10.877456 0.184409 -3.905516
v 17.530321 -0.232400 -5.045380
v 17.775188 -0.063855 -4.733498
v 17.775188 0.184409 -4.733498
v 17.530321 0.352954 -5.045380
v 17.912823 -0.063855 -5.155477
v 17.670963 -0.232400 -5.476575
v 17.912823 0.184409 -5.155477
v 17.670963 0.352954 -5.476575
v 6.018433 0.226362 -4.978301
v 7.485156 0.352954 -5.386753
v 6.744957 -0.232400 -5.209563
v 6.018433 -0.105808 -4.978301
v 14.551820 -0.251397 -5.766137
v 14.419289 -0.150040 -5.921064
v 11.290807 -0.249873 -5.024154
v 11.345736 -0.150040 -5.219852
v 14.320388 -0.150040 -6.605485
v 14.343513 -0.247497 -6.825793
v 11.234483 -0.150040 -6.433600
v 11.233835 -0.249730 -6.653615
v 14.805410 -0.252036 -6.182932
v 14.596582 -0.150040 -6.218840
v 12.674135 -0.252036 -7.024730
v 12.667018 -0.150040 -6.803543
v 13.897791 -0.252036 -5.523575
v 13.846855 -0.150040 -5.709143
v 10.616459 -0.252036 -5.211966
v 10.769442 -0.150040 -5.379979
v 12.763194 -0.150040 -5.564569
v 12.677324 -0.249417 -5.360814
v 10.600200 -0.150040 -5.872043
v 10.380047 -0.252036 -5.899323
v 14.419289 0.271748 -5.921064
v 14.551045 0.373059 -5.765903
v 11.345736 0.271748 -5.219852
v 11.290808 0.371454 -5.024159
v 14.343510 0.368939 -6.825768
v 14.320388 0.271748 -6.605485
v 11.233835 0.371302 -6.653608
v 11.234483 0.271748 -6.433600
v 14.596582 0.271748 -6.218839
v 14.805418 0.373744 -6.182946
v 12.667018 0.271748 -6.803543
v 12.674125 0.373744 -7.024726
v 13.846855 0.271748 -5.709142
v 13.897791 0.373744 -5.523575
v 10.769442 0.271748 -5.379979
v 10.616459 0.373744 -5.211966
v 12.677332 0.371110 -5.360823
v 12.763194 0.271748 -5.564569
v 10.380047 0.373744 -5.899324
v 10.600200 0.271748 -5.872043
v 10.901214 0.482924 3.517920
v 10.901214 -0.362369 3.517919
v 12.596239 0.482924 3.517920
v 12.596239 -0.362369 3.517919
v 11.283148 0.352954 8.172608
v 11.283148 -0.232400 8.172608
v 11.941667 0.352954 8.186752
v 11.941667 -0.232400 8.186752
v 11.000895 0.060277 8.754591
v 5.670312 0.060277 4.875778
v 11.941667 0.060277 8.862665
v 5.774352 0.060277 5.744850
v 20.264540 0.060277 5.821178
v 18.434175 -0.232400 6.408854
v 18.735258 0.060277 7.341922
v 18.119940 0.352954 6.586044
v 14.586626 0.060277 8.624880
v 14.474606 -0.232400 7.633346
v 14.474606 0.352954 7.633346
v 19.246792 0.352954 5.654667
v 20.134674 0.216183 5.271600
v 20.134674 -0.095629 5.271600
v 19.672756 -0.232400 5.477477
v 9.943117 0.352954 5.407492
v 9.714381 0.184409 5.082916
v 13.083488 -0.232400 4.482283
v 13.083488 -0.063855 4.482283
v 13.083488 0.184409 4.482284
v 13.083488 0.352954 4.482284
v 9.943117 -0.232400 5.407492
v 9.714381 -0.063855 5.082916
v 13.708208 -0.232400 5.051724
v 13.772459 -0.063855 4.737678
v 13.772459 0.184409 4.737678
v 13.708208 0.352954 5.051724
v 10.333905 -0.232400 4.377990
v 10.073843 -0.063855 4.135943
v 10.073843 0.184409 4.135943
v 10.333905 0.352954 4.377990
v 10.877457 -0.063855 3.957672
v 10.877457 -0.232400 3.957671
v 10.877457 0.352954 3.957672
v 10.877457 0.184409 3.957672
v 17.530323 -0.232400 5.097535
v 17.775190 -0.063855 4.785653
v 17.775190 0.184409 4.785653
v 17.530323 0.352954 5.097535
v 17.912825 -0.063855 5.207632
v 17.670963 -0.232400 5.528730
v 17.912825 0.184409 5.207633
v 17.670963 0.352954 5.528730
v 6.018434 0.226362 5.030457
v 7.485157 0.352954 5.438908
v 6.744958 -0.232400 5.261719
v 6.018434 -0.105808 5.030457
v 14.551821 -0.251397 5.818293
v 14.419290 -0.150040 5.973220
v 11.290808 -0.249873 5.076309
v 11.345737 -0.150040 5.272008
v 14.320389 -0.150040 6.657640
v 14.343513 -0.247497 6.877948
v 11.234484 -0.150040 6.485756
v 11.233836 -0.249730 6.705770
v 14.805411 -0.252036 6.235088
v 14.596582 -0.150040 6.270995
v 12.674136 -0.252036 7.076885
v 12.667019 -0.150040 6.855699
v 13.897793 -0.252036 5.575730
v 13.846856 -0.150040 5.761298
v 10.616460 -0.252036 5.264121
v 10.769443 -0.150040 5.432135
v 12.763195 -0.150040 5.616725
v 12.677325 -0.249417 5.412970
v 10.600201 -0.150040 5.924198
v 10.380049 -0.252036 5.951477
v 14.419290 0.271748 5.973220
v 14.551046 0.373059 5.818059
v 11.345737 0.271748 5.272008
v 11.290809 0.371454 5.076314
v 14.343512 0.368938 6.877923
v 14.320389 0.271748 6.657640
v 11.233836 0.371302 6.705764
v 11.234484 0.271748 6.485756
v 14.596582 0.271748 6.270995
v 14.805419 0.373744 6.235102
v 12.667019 0.271748 6.855699
v 12.674126 0.373744 7.076881
v 13.846856 0.271748 5.761298
v 13.897793 0.373744 5.575730
v 10.769443 0.271748 5.432135
v 10.616459 0.373744 5.264122
v 12.677333 0.371110 5.412978
v 12.763195 0.271748 5.616725
v 10.380048 0.373744 5.951480
v 10.600201 0.271748 5.924198
vt 0.375000 0.750000
vt 0.505683 0.750000
vt 0.625000 0.750000
vt 0.375000 0.645657
vt 0.375000 0.552614
vt 0.417805 0.557698
vt 0.494317 0.625000
vt 0.494317 0.687500
vt 0.446984 0.492188
vt 0.553016 0.492188
vt 0.553016 0.500000
vt 0.446984 0.500000
vt 0.375000 0.406250
vt 0.625000 0.406250
vt 0.625000 0.437500
vt 0.553016 0.437500
vt 0.446984 0.437500
vt 0.375000 0.437500
vt 0.582195 0.557698
vt 0.625000 0.552614
vt 0.625000 0.645657
vt 0.505683 0.687500
vt 0.505683 0.625000
vt 0.446984 0.484375
vt 0.553016 0.484375
vt 0.553016 0.468750
vt 0.446984 0.468750
vt 0.375000 0.375000
vt 0.625000 0.375000
vt 0.450170 0.253381
vt 0.505683 0.250000
vt 0.556368 0.253381
vt 0.553016 0.312500
vt 0.446984 0.312500
vt 0.375000 0.359375
vt 0.446984 0.359375
vt 0.553016 0.359375
vt 0.625000 0.359375
vt 0.625000 1.000000
vt 0.494317 0.000000
vt 0.375000 1.000000
vt 0.446984 0.343750
vt 0.553016 0.343750
vt 0.409584 0.174368
vt 0.494317 0.125000
vt 0.494317 0.250000
vt 0.505683 0.125000
vt 0.625000 0.272687
vt 0.590416 0.174368
vt 0.505683 0.000000
vt 0.625000 0.674553
vt 0.505683 0.718750
vt 0.375000 0.272687
vt 0.375000 0.674553
vt 0.494317 0.718750
vt 0.494317 0.750000
vt 0.625000 0.540443
vt 0.625000 0.537765
vt 0.375000 0.376540
vt 0.375000 0.427996
vt 0.375000 0.494059
vt 0.625000 0.493215
vt 0.375000 0.506855
vt 0.625000 0.420131
vt 0.625000 0.375457
vt 0.625000 0.506368
vt 0.375000 0.542166
vt 0.375000 0.492188
vt 0.375000 0.520046
vt 0.375000 0.329972
vt 0.625000 0.265216
vt 0.625000 0.312500
vt 0.446984 0.505772
vt 0.578118 0.557698
vt 0.000000 0.000000
vt 0.000000 0.000000
vt 0.000000 0.000000
vt 0.000000 0.000000
vt 0.000000 0.000000
vt 0.000000 0.000000
vt 0.000000 0.000000
vt 0.000000 0.000000
vt 0.000000 0.000000
vt 0.000000 0.000000
vt 0.000000 0.000000
vt 0.000000 0.000000
vt 0.213181 0.181467
vt 0.216436 0.201827
vt 0.144475 0.155929
vt 0.120363 0.162627
vt 0.118349 0.154858
vt 0.054359 0.064829
vt 0.041303 0.041303
vt 0.145035 0.173917
vt 0.136159 0.194969
vt 0.044044 0.117451
vt 0.086675 0.155912
vt 0.081883 0.167735
vt 0.000000 0.000000
vt 0.000000 0.000000
vt 0.129313 0.200614
vt 0.127607 0.180947
vt 0.000000 0.000000
vt 0.000000 0.000000
vt 0.000000 0.000000
vt 0.000000 0.000000
vt 0.000000 0.000000
vt 0.000000 0.000000
vt 0.136487 0.167753
vt 0.073409 0.117455
vt 0.219921 0.180380
vt 0.238690 0.160628
vt 0.068840 0.041304
vt 0.090607 0.064786
vt 0.200723 0.162441
vt 0.197285 0.154630
vt 0.375000 0.750000
vt 0.505683 0.750000
vt 0.625000 0.750000
vt 0.375000 0.645657
vt 0.375000 0.552614
vt 0.417805 0.557698
vt 0.494317 0.625000
vt 0.494317 0.687500
vt 0.446984 0.492188
vt 0.553016 0.492188
vt 0.553016 0.500000
vt 0.446984 0.500000
vt 0.375000 0.406250
vt 0.625000 0.406250
vt 0.625000 0.437500
vt 0.553016 0.437500
vt 0.446984 0.437500
vt 0.375000 0.437500
vt 0.582195 0.557698
vt 0.625000 0.552614
vt 0.625000 0.645657
vt 0.505683 0.687500
vt 0.505683 0.625000
vt 0.446984 0.484375
vt 0.553016 0.484375
vt 0.553016 0.468750
vt 0.446984 0.468750
vt 0.375000 0.375000
vt 0.625000 0.375000
vt 0.450170 0.253381
vt 0.505683 0.250000
vt 0.556368 0.253381
vt 0.553016 0.312500
vt 0.446984 0.312500
vt 0.375000 0.359375
vt 0.446984 0.359375
vt 0.553016 0.359375
vt 0.625000 0.359375
vt 0.625000 1.000000
vt 0.494317 0.000000
vt 0.375000 1.000000
vt 0.446984 0.343750
vt 0.553016 0.343750
vt 0.409584 0.174368
vt 0.494317 0.125000
vt 0.494317 0.250000
vt 0.505683 0.125000
vt 0.625000 0.272687
vt 0.590416 0.174368
vt 0.505683 0.000000
vt 0.625000 0.674553
vt 0.505683 0.718750
vt 0.375000 0.272687
vt 0.375000 0.674553
vt 0.494317 0.718750
vt 0.494317 0.750000
vt 0.625000 0.540443
vt 0.625000 0.537765
vt 0.375000 0.376540
vt 0.375000 0.427996
vt 0.375000 0.494059
vt 0.625000 0.493215
vt 0.375000 0.506855
vt 0.625000 0.420131
vt 0.625000 0.375457
vt 0.625000 0.506368
vt 0.375000 0.542166
vt 0.375000 0.492188
vt 0.375000 0.520046
vt 0.375000 0.329972
vt 0.625000 0.265216
vt 0.625000 0.312500
vt 0.446984 0.505772
vt 0.578118 0.557698
vt 0.000000 0.000000
vt 0.000000 0.000000
vt 0.000000 0.000000
vt 0.000000 0.000000
vt 0.000000 0.000000
vt 0.000000 0.000000
vt 0.000000 0.000000
vt 0.000000 0.000000
vt 0.000000 0.000000
vt 0.000000 0.000000
vt 0.000000 0.000000
vt 0.000000 0.000000
vt 0.213181 0.181467
vt 0.216436 0.201827
vt 0.144475 0.155929
vt 0.120363 0.162627
vt 0.118349 0.154858
vt 0.054359 0.064829
vt 0.041303 0.041303
vt 0.145035 0.173917
vt 0.136159 0.194969
vt 0.044044 0.117451
vt 0.086675 0.155912
vt 0.081883 0.167735
vt 0.000000 0.000000
vt 0.000000 0.000000
vt 0.129313 0.200614
vt 0.127607 0.180947
vt 0.000000 0.000000
vt 0.000000 0.000000
vt 0.000000 0.000000
vt 0.000000 0.000000
vt 0.000000 0.000000
vt 0.000000 0.000000
vt 0.136487 0.167753
vt 0.073409 0.117455
vt 0.219921 0.180380
vt 0.238690 0.160628
vt 0.068840 0.041304
vt 0.090607 0.064786
vt 0.200723 0.162441
vt 0.197285 0.154630
vn -1.0000 0.0000 0.0000
vn 0.2151 0.9499 -0.2266
vn 0.0288 0.0000 0.9996
vn 0.8925 0.0000 0.4510
vn 0.2454 -0.9347 -0.2571
vn 0.9507 0.0000 0.3101
vn 0.3476 0.0000 0.9377
vn 0.0000 0.0000 1.0000
vn 0.0120 0.0000 0.9999
vn 0.0362 -0.0000 0.9993
vn -0.9985 0.0000 0.0539
vn 0.8998 0.0000 -0.4364
vn -0.2166 0.0000 0.9763
vn -0.4493 0.8917 -0.0538
vn -0.0215 0.0000 -0.9998
vn -0.4493 -0.8917 -0.0538
vn -0.1842 -0.9386 -0.2917
vn 0.0501 -0.9434 -0.3278
vn -0.1614 0.9546 -0.2505
vn -0.9349 0.0000 0.3549
vn 0.0851 0.9549 -0.2845
vn 0.0845 -0.9582 -0.2733
vn 0.0501 0.9434 -0.3278
vn -0.0050 -0.8624 0.5063
vn -0.4262 0.8900 0.1618
vn 0.3971 0.6650 0.6325
vn 0.3971 -0.6650 0.6325
vn 0.0057 0.8816 0.4720
vn -0.4262 -0.8900 0.1618
vn -0.2915 0.6961 0.6561
vn -0.2915 -0.6961 0.6561
vn 0.0057 -0.8816 0.4720
vn 0.4329 0.8903 0.1412
vn 0.4329 -0.8903 0.1412
vn 0.0114 0.9240 0.3823
vn 0.0076 0.9214 0.3886
vn 0.0195 -0.8688 0.4948
vn 0.9732 0.0000 0.2300
vn -0.3472 0.0000 -0.9378
vn -0.1189 0.0000 0.9929
vn 0.2677 0.0000 -0.9635
vn 0.0040 -1.0000 0.0007
vn 0.0153 0.9989 -0.0433
vn -0.0237 0.9997 -0.0052
vn 0.0012 0.9998 -0.0182
vn -0.8137 -0.0000 0.5813
vn 0.0043 1.0000 0.0008
vn -0.1322 0.0000 -0.9912
vn 0.6629 0.0000 0.7487
vn 0.2500 -0.0000 0.9682
vn 0.0011 -0.9999 -0.0172
vn -0.2363 0.0000 -0.9717
vn -0.8592 -0.0000 -0.5116
vn 0.9456 0.0000 -0.3252
vn -0.0199 -0.9998 -0.0045
vn -0.4560 -0.8292 0.3233
vn 0.1062 -0.9037 0.4147
vn -0.1154 -0.8721 -0.4756
vn 0.3450 -0.8543 0.3887
vn -0.3956 -0.8871 -0.2377
vn -0.0476 -0.9115 0.4085
vn -0.1625 -0.8832 -0.4399
vn 0.1206 -0.8957 -0.4281
vn -0.0628 -0.8842 -0.4630
vn 0.4308 -0.8902 -0.1482
vn -0.4557 0.8295 0.3228
vn 0.1061 0.9039 0.4145
vn -0.1154 0.8722 -0.4753
vn 0.3449 0.8545 0.3885
vn -0.3958 0.8869 -0.2382
vn -0.0474 0.9117 0.4081
vn -0.1625 0.8832 -0.4399
vn 0.1207 0.8958 -0.4278
vn -0.0628 0.8842 -0.4629
vn 0.4308 0.8902 -0.1482
vn 0.0150 -0.9989 -0.0441
vn 1.0000 0.0000 0.0000
vn -0.2151 -0.9499 -0.2266
vn -0.0288 -0.0000 0.9996
vn -0.8925 -0.0000 0.4510
vn -0.2454 0.9347 -0.2571
vn -0.9507 -0.0000 0.3101
vn -0.3476 -0.0000 0.9377
vn -0.0120 0.0000 0.9999
vn -0.0362 0.0000 0.9993
vn 0.9985 0.0000 0.0539
vn -0.8998 0.0000 -0.4364
vn 0.2166 0.0000 0.9763
vn 0.4493 -0.8917 -0.0538
vn 0.0215 0.0000 -0.9998
vn 0.4493 0.8917 -0.0538
vn 0.1842 0.9386 -0.2917
vn -0.0501 0.9434 -0.3278
vn 0.1614 -0.9546 -0.2505
vn 0.9349 0.0000 0.3549
vn -0.0851 -0.9549 -0.2845
vn -0.0845 0.9582 -0.2733
vn -0.0501 -0.9434 -0.3278
vn 0.0050 0.8624 0.5063
vn 0.4262 -0.8900 0.1618
vn -0.3971 -0.6650 0.6325
vn -0.3971 0.6650 0.6325
vn -0.0057 -0.8816 0.4720
vn 0.4262 0.8900 0.1618
vn 0.2915 -0.6961 0.6561
vn 0.2915 0.6961 0.6561
vn -0.0057 0.8816 0.4720
vn -0.4329 -0.8903 0.1412
vn -0.4329 0.8903 0.1412
vn -0.0114 -0.9240 0.3823
vn -0.0076 -0.9214 0.3886
vn -0.0195 0.8688 0.4948
vn -0.9732 0.0000 0.2300
vn 0.3472 0.0000 -0.9378
vn 0.1189 0.0000 0.9929
vn -0.2677 0.0000 -0.9635
vn -0.0040 1.0000 0.0007
vn -0.0153 -0.9989 -0.0433
vn 0.0237 -0.9997 -0.0052
vn -0.0012 -0.9998 -0.0182
vn 0.8137 0.0000 0.5813
vn -0.0043 -1.0000 0.0008
vn 0.1322 0.0000 -0.9912
vn -0.6629 0.0000 0.7487
vn -0.2500 0.0000 0.9682
vn -0.0011 0.9999 -0.0172
vn 0.2363 0.0000 -0.9717
vn 0.8592 0.0000 -0.5116
vn -0.9456 0.0000 -0.3252
vn 0.0199 0.9998 -0.0045
vn 0.4560 0.8292 0.3233
vn -0.1062 0.9037 0.4147
vn 0.1154 0.8721 -0.4756
vn -0.3450 0.8543 0.3887
vn 0.3956 0.8871 -0.2377
vn 0.0476 0.9115 0.4085
vn 0.1625 0.8832 -0.4399
vn -0.1206 0.8957 -0.4281
vn 0.0628 0.8842 -0.4629
vn -0.4308 0.8902 -0.1482
vn 0.4557 -0.8295 0.3228
vn -0.1061 -0.9039 0.4145
vn 0.1154 -0.8722 -0.4753
vn -0.3449 -0.8545 0.3885
vn 0.3958 -0.8869 -0.2382
vn 0.0474 -0.9117 0.4081
vn 0.1625 -0.8832 -0.4399
vn -0.1207 -0.8958 -0.4278
vn 0.0628 -0.8842 -0.4629
vn -0.4308 -0.8902 -0.1482
vn -0.0150 0.9989 -0.0441
usemtl None
s off
f 7/1/1 11/2/1 8/3/1
f 16/4/2 20/5/2 21/6/2 13/7/2 15/8/2
f 50/9/3 48/10/3 22/11/3 21/12/3
f 3/13/4 4/14/4 26/15/4 27/16/4 28/17/4 29/18/4
f 22/19/5 23/20/5 14/21/5 15/22/5 13/23/5
f 46/24/6 45/25/6 48/10/6 50/9/6
f 28/17/7 27/16/7 33/26/7 34/27/7
f 1/28/8 2/29/8 4/14/8 3/13/8
f 34/27/9 33/26/9 45/25/9 46/24/9
f 52/30/10 10/31/10 55/32/10 31/33/10 25/34/10
f 42/35/11 43/36/11 40/37/11 41/38/11 2/29/11 1/28/11
f 6/39/12 9/40/12 5/41/12
f 38/42/13 37/43/13 40/37/13 43/36/13
f 52/44/14 12/45/14 10/46/14
f 7/1/15 8/3/15 6/39/15 5/41/15
f 55/32/16 10/31/16 12/47/16
f 6/39/17 54/48/17 55/49/17 12/47/17 9/50/17
f 18/51/18 8/3/18 11/2/18 17/52/18
f 52/44/19 53/53/19 5/41/19 9/40/19 12/45/19
f 25/34/20 31/33/20 37/43/20 38/42/20
f 19/54/21 16/4/21 15/8/21 17/55/21
f 14/21/22 18/51/22 17/52/22 15/22/22
f 7/1/23 19/54/23 17/55/23 11/56/23
f 49/57/24 23/58/24 22/11/24 48/10/24
f 39/59/25 24/60/25 25/34/25 38/42/25
f 35/61/26 29/18/26 28/17/26 34/27/26
f 26/15/27 32/62/27 33/26/27 27/16/27
f 47/63/28 35/61/28 34/27/28 46/24/28
f 30/64/29 36/65/29 37/43/29 31/33/29
f 42/35/30 39/59/30 38/42/30 43/36/30
f 36/65/31 41/38/31 40/37/31 37/43/31
f 32/62/32 44/66/32 45/25/32 33/26/32
f 51/67/33 47/63/33 46/24/33 50/9/33
f 44/66/34 49/57/34 48/10/34 45/25/34
f 20/5/35 51/67/35 50/68/35 21/69/35
f 52/30/36 25/34/36 24/60/36 53/70/36
f 31/33/37 55/32/37 54/71/37 30/72/37
f 21/73/38 22/74/38 13/7/38
f 69/75/39 88/76/39 76/77/39 57/78/39
f 60/79/40 81/80/40 86/81/40 67/82/40
f 71/83/41 90/84/41 78/85/41 59/86/41
f 14/21/42 23/20/42 49/57/42 44/66/42 32/62/42 56/87/42 64/88/42 61/89/42 18/51/42
f 1/28/43 3/13/43 29/18/43 35/61/43 77/90/43 89/91/43 92/92/43 79/93/43
f 53/53/44 24/60/44 39/59/44 42/35/44 1/28/44 79/93/44 91/94/44 94/95/44 82/96/44 5/41/44
f 80/97/45 19/54/45 7/1/45 5/41/45 82/96/45 87/98/45
f 65/99/46 84/100/46 81/80/46 60/79/46
f 19/54/47 80/97/47 85/101/47 77/102/47 35/61/47 47/63/47 51/67/47 20/5/47 16/4/47
f 72/103/48 93/104/48 88/76/48 69/75/48
f 62/105/49 83/106/49 95/107/49 74/108/49
f 67/82/50 86/81/50 83/106/50 62/105/50
f 6/39/51 8/3/51 18/51/51 61/89/51 66/109/51 63/110/51
f 59/86/52 78/85/52 93/104/52 72/103/52
f 57/78/53 76/77/53 84/100/53 65/99/53
f 74/108/54 95/107/54 90/84/54 71/83/54
f 30/72/55 54/71/55 6/39/55 63/110/55 75/111/55 70/112/55 58/113/55 2/29/55 41/38/55 36/65/55
f 65/99/56 60/79/56 61/89/56 64/88/56
f 67/82/57 62/105/57 63/110/57 66/109/57
f 73/114/58 58/113/58 59/86/58 72/103/58
f 75/111/59 63/110/59 62/105/59 74/108/59
f 57/78/60 65/99/60 64/88/60 56/87/60
f 60/79/61 67/82/61 66/109/61 61/89/61
f 56/115/62 68/116/62 69/75/62 57/78/62
f 58/113/63 70/112/63 71/83/63 59/86/63
f 68/116/64 73/114/64 72/103/64 69/75/64
f 70/112/65 75/111/65 74/108/65 71/83/65
f 81/80/66 84/100/66 85/101/66 80/97/66
f 83/106/67 86/81/67 87/98/67 82/96/67
f 93/104/68 78/85/68 79/93/68 92/92/68
f 95/107/69 83/106/69 82/96/69 94/95/69
f 84/100/70 76/77/70 77/102/70 85/101/70
f 86/81/71 81/80/71 80/97/71 87/98/71
f 76/77/72 88/76/72 89/91/72 77/90/72
f 78/85/73 90/84/73 91/94/73 79/93/73
f 88/76/74 93/104/74 92/92/74 89/91/74
f 90/84/75 95/107/75 94/95/75 91/94/75
f 2/29/76 58/113/76 73/114/76 68/116/76 56/115/76 32/62/76 26/15/76 4/14/76
f 102/117/77 106/118/77 103/119/77
f 111/120/78 115/121/78 116/122/78 108/123/78 110/124/78
f 145/125/79 143/126/79 117/127/79 116/128/79
f 98/129/80 99/130/80 121/131/80 122/132/80 123/133/80 124/134/80
f 117/135/81 118/136/81 109/137/81 110/138/81 108/139/81
f 141/140/82 140/141/82 143/126/82 145/125/82
f 123/133/83 122/132/83 128/142/83 129/143/83
f 96/144/8 97/145/8 99/130/8 98/129/8
f 129/143/84 128/142/84 140/141/84 141/140/84
f 147/146/85 105/147/85 150/148/85 126/149/85 120/150/85
f 137/151/86 138/152/86 135/153/86 136/154/86 97/145/86 96/144/86
f 101/155/87 104/156/87 100/157/87
f 133/158/88 132/159/88 135/153/88 138/152/88
f 147/160/89 107/161/89 105/162/89
f 102/117/90 103/119/90 101/155/90 100/157/90
f 150/148/91 105/147/91 107/163/91
f 101/155/92 149/164/92 150/165/92 107/163/92 104/166/92
f 113/167/93 103/119/93 106/118/93 112/168/93
f 147/160/94 148/169/94 100/157/94 104/156/94 107/161/94
f 120/150/95 126/149/95 132/159/95 133/158/95
f 114/170/96 111/120/96 110/124/96 112/171/96
f 109/137/97 113/167/97 112/168/97 110/138/97
f 102/117/98 114/170/98 112/171/98 106/172/98
f 144/173/99 118/174/99 117/127/99 143/126/99
f 134/175/100 119/176/100 120/150/100 133/158/100
f 130/177/101 124/134/101 123/133/101 129/143/101
f 121/131/102 127/178/102 128/142/102 122/132/102
f 142/179/103 130/177/103 129/143/103 141/140/103
f 125/180/104 131/181/104 132/159/104 126/149/104
f 137/151/105 134/175/105 133/158/105 138/152/105
f 131/181/106 136/154/106 135/153/106 132/159/106
f 127/178/107 139/182/107 140/141/107 128/142/107
f 146/183/108 142/179/108 141/140/108 145/125/108
f 139/182/109 144/173/109 143/126/109 140/141/109
f 115/121/110 146/183/110 145/184/110 116/185/110
f 147/146/111 120/150/111 119/176/111 148/186/111
f 126/149/112 150/148/112 149/187/112 125/188/112
f 116/189/113 117/190/113 108/123/113
f 164/191/114 183/192/114 171/193/114 152/194/114
f 155/195/115 176/196/115 181/197/115 162/198/115
f 166/199/116 185/200/116 173/201/116 154/202/116
f 109/137/117 118/136/117 144/173/117 139/182/117 127/178/117 151/203/117 159/204/117 156/205/117 113/167/117
f 96/144/118 98/129/118 124/134/118 130/177/118 172/206/118 184/207/118 187/208/118 174/209/118
f 148/169/119 119/176/119 134/175/119 137/151/119 96/144/119 174/209/119 186/210/119 189/211/119 177/212/119 100/157/119
f 175/213/120 114/170/120 102/117/120 100/157/120 177/212/120 182/214/120
f 160/215/121 179/216/121 176/196/121 155/195/121
f 114/170/122 175/213/122 180/217/122 172/218/122 130/177/122 142/179/122 146/183/122 115/121/122 111/120/122
f 167/219/123 188/220/123 183/192/123 164/191/123
f 157/221/124 178/222/124 190/223/124 169/224/124
f 162/198/125 181/197/125 178/222/125 157/221/125
f 101/155/126 103/119/126 113/167/126 156/205/126 161/225/126 158/226/126
f 154/202/127 173/201/127 188/220/127 167/219/127
f 152/194/128 171/193/128 179/216/128 160/215/128
f 169/224/129 190/223/129 185/200/129 166/199/129
f 125/188/130 149/187/130 101/155/130 158/226/130 170/227/130 165/228/130 153/229/130 97/145/130 136/154/130 131/181/130
f 160/215/131 155/195/131 156/205/131 159/204/131
f 162/198/132 157/221/132 158/226/132 161/225/132
f 168/230/133 153/229/133 154/202/133 167/219/133
f 170/227/134 158/226/134 157/221/134 169/224/134
f 152/194/135 160/215/135 159/204/135 151/203/135
f 155/195/136 162/198/136 161/225/136 156/205/136
f 151/231/137 163/232/137 164/191/137 152/194/137
f 153/229/138 165/228/138 166/199/138 154/202/138
f 163/232/139 168/230/139 167/219/139 164/191/139
f 165/228/140 170/227/140 169/224/140 166/199/140
f 176/196/141 179/216/141 180/217/141 175/213/141
f 178/222/142 181/197/142 182/214/142 177/212/142
f 188/220/143 173/201/143 174/209/143 187/208/143
f 190/223/144 178/222/144 177/212/144 189/211/144
f 179/216/145 171/193/145 172/218/145 180/217/145
f 181/197/146 176/196/146 175/213/146 182/214/146
f 171/193/147 183/192/147 184/207/147 172/206/147
f 173/201/148 185/200/148 186/210/148 174/209/148
f 183/192/149 188/220/149 187/208/149 184/207/149
f 185/200/150 190/223/150 189/211/150 186/210/150
f 97/145/151 153/229/151 168/230/151 163/232/151 151/231/151 127/178/151 121/131/151 99/130/151
