# Blender v3.2.2 OBJ File: 'LVL_10.blend'
# www.blender.org
mtllib BladeEdge.mtl
o BladeEdge.001_Cube.025
v 11.266461 0.408887 -8.188610
v 11.266461 -0.288334 -8.188610
v 11.930489 0.408887 -8.202873
v 11.930489 -0.288334 -8.202873
v 10.981846 0.060277 -8.775464
v 5.606665 0.060277 -4.864199
v 11.930489 0.060277 -8.884441
v 5.711575 0.060277 -5.740541
v 20.322996 0.060277 -5.817508
v 18.477318 -0.288334 -6.410101
v 18.780920 0.060277 -7.350975
v 18.160454 0.408888 -6.588774
v 14.597578 0.060277 -8.644667
v 14.484620 -0.288334 -7.644837
v 14.484621 0.408887 -7.644837
v 19.296734 0.408888 -5.649603
v 20.192045 0.245978 -5.263331
v 20.192045 -0.125424 -5.263331
v 19.726261 -0.288334 -5.470932
v 5.957699 0.258103 -5.020170
v 7.436694 0.408888 -5.432039
v 6.690302 -0.288334 -5.253367
v 5.957699 -0.137549 -5.020170
v 11.266462 0.408887 8.240767
v 11.266462 -0.288334 8.240767
v 11.930490 0.408887 8.255029
v 11.930490 -0.288334 8.255029
v 10.981847 0.060276 8.827620
v 5.606666 0.060277 4.916354
v 11.930490 0.060276 8.936597
v 5.711576 0.060277 5.792697
v 20.322998 0.060277 5.869663
v 18.477320 -0.288334 6.462255
v 18.780922 0.060277 7.403131
v 18.160454 0.408887 6.640929
v 14.597580 0.060277 8.696822
v 14.484621 -0.288334 7.696992
v 14.484621 0.408887 7.696992
v 19.296736 0.408888 5.701758
v 20.192047 0.245979 5.315486
v 20.192047 -0.125424 5.315486
v 19.726261 -0.288334 5.523088
v 5.957700 0.258103 5.072326
v 7.436695 0.408888 5.484195
v 6.690303 -0.288334 5.305523
v 5.957700 -0.137549 5.072326
vt 0.375000 0.645657
vt 0.375000 0.552614
vt 0.417805 0.557698
vt 0.494317 0.625000
vt 0.494317 0.687500
vt 0.582195 0.557698
vt 0.625000 0.552614
vt 0.625000 0.645657
vt 0.505683 0.687500
vt 0.505683 0.625000
vt 0.409584 0.174368
vt 0.494317 0.125000
vt 0.494317 0.250000
vt 0.556368 0.253381
vt 0.505683 0.250000
vt 0.505683 0.125000
vt 0.625000 1.000000
vt 0.625000 0.272687
vt 0.590416 0.174368
vt 0.505683 0.000000
vt 0.625000 0.674553
vt 0.625000 0.750000
vt 0.505683 0.750000
vt 0.505683 0.718750
vt 0.375000 0.272687
vt 0.375000 1.000000
vt 0.494317 0.000000
vt 0.375000 0.674553
vt 0.494317 0.718750
vt 0.375000 0.750000
vt 0.494317 0.750000
vt 0.375000 0.645657
vt 0.375000 0.552614
vt 0.417805 0.557698
vt 0.494317 0.625000
vt 0.494317 0.687500
vt 0.582195 0.557698
vt 0.625000 0.552614
vt 0.625000 0.645657
vt 0.505683 0.687500
vt 0.505683 0.625000
vt 0.409584 0.174368
vt 0.494317 0.125000
vt 0.494317 0.250000
vt 0.556368 0.253381
vt 0.505683 0.250000
vt 0.505683 0.125000
vt 0.625000 1.000000
vt 0.625000 0.272687
vt 0.590416 0.174368
vt 0.505683 0.000000
vt 0.625000 0.674553
vt 0.625000 0.750000
vt 0.505683 0.750000
vt 0.505683 0.718750
vt 0.375000 0.272687
vt 0.375000 1.000000
vt 0.494317 0.000000
vt 0.375000 0.674553
vt 0.494317 0.718750
vt 0.375000 0.750000
vt 0.494317 0.750000
vn 0.2493 0.9321 -0.2626
vn 0.2829 -0.9122 -0.2964
vn -0.5105 0.8577 -0.0611
vn -0.5105 -0.8577 -0.0611
vn -0.2127 -0.9173 -0.3367
vn 0.0579 -0.9236 -0.3791
vn -0.1874 0.9383 -0.2908
vn 0.0988 0.9387 -0.3303
vn 0.0983 -0.9431 -0.3177
vn 0.0579 0.9236 -0.3791
vn -0.2493 -0.9321 -0.2626
vn -0.2829 0.9122 -0.2964
vn 0.5105 -0.8577 -0.0611
vn 0.5105 0.8577 -0.0611
vn 0.2127 0.9173 -0.3367
vn -0.0579 0.9236 -0.3791
vn 0.1874 -0.9383 -0.2908
vn -0.0988 -0.9387 -0.3303
vn -0.0983 0.9431 -0.3177
vn -0.0579 -0.9236 -0.3791
vn 1.0000 0.0000 0.0000
vn -0.8998 0.0000 -0.4364
vn -0.4060 0.0000 0.9139
vn -0.2798 0.0343 0.9594
vn -0.5504 0.1905 0.8129
vn 0.2134 0.0000 0.9770
vn 0.2858 -0.0576 0.9566
vn 0.6135 0.1287 0.7791
vn 0.3999 0.0075 0.9165
vn -0.9732 0.0000 0.2300
vn -1.0000 0.0000 0.0000
vn -0.2134 0.0000 0.9770
vn -0.2858 0.0576 0.9566
vn -0.6135 -0.1287 0.7791
vn -0.3999 -0.0075 0.9165
vn 0.9732 0.0000 0.2300
vn 0.8998 0.0000 -0.4364
vn 0.5504 -0.1905 0.8129
vn 0.2798 -0.0343 0.9594
vn 0.4060 0.0000 0.9139
usemtl None
s off
f 12/1/1 16/2/1 17/3/1 9/4/1 11/5/1
f 18/6/2 19/7/2 10/8/2 11/9/2 9/10/2
f 20/11/3 8/12/3 6/13/3
f 23/14/4 6/15/4 8/16/4
f 2/17/5 22/18/5 23/19/5 8/16/5 5/20/5
f 14/21/6 4/22/6 7/23/6 13/24/6
f 20/11/7 21/25/7 1/26/7 5/27/7 8/12/7
f 15/28/8 12/1/8 11/5/8 13/29/8
f 10/8/9 14/21/9 13/24/9 11/9/9
f 3/30/10 15/28/10 13/29/10 7/31/10
f 35/32/11 39/33/11 40/34/11 32/35/11 34/36/11
f 41/37/12 42/38/12 33/39/12 34/40/12 32/41/12
f 43/42/13 31/43/13 29/44/13
f 46/45/14 29/46/14 31/47/14
f 25/48/15 45/49/15 46/50/15 31/47/15 28/51/15
f 37/52/16 27/53/16 30/54/16 36/55/16
f 43/42/17 44/56/17 24/57/17 28/58/17 31/43/17
f 38/59/18 35/32/18 34/36/18 36/60/18
f 33/39/19 37/52/19 36/55/19 34/40/19
f 26/61/20 38/59/20 36/60/20 30/62/20
f 30/54/21 27/53/21 26/61/21
f 28/51/22 24/57/22 25/48/22
f 29/46/23 46/45/23 43/42/23
f 43/42/24 46/45/24 45/49/24 44/56/24
f 24/57/25 44/56/25 45/49/25 25/48/25
f 26/61/26 27/53/26 37/52/26 38/59/26
f 38/59/27 37/52/27 33/39/27 35/32/27
f 39/33/28 35/32/28 33/39/28 42/38/28
f 39/33/29 42/38/29 41/37/29 40/34/29
f 32/41/30 40/34/30 41/37/30
f 7/23/31 4/22/31 3/30/31
f 3/30/32 4/22/32 14/21/32 15/28/32
f 15/28/33 14/21/33 10/8/33 12/1/33
f 16/2/34 12/1/34 10/8/34 19/7/34
f 16/2/35 19/7/35 18/6/35 17/3/35
f 9/10/36 17/3/36 18/6/36
f 5/20/37 1/26/37 2/17/37
f 1/26/38 21/25/38 22/18/38 2/17/38
f 20/11/39 23/19/39 22/18/39 21/25/39
f 6/15/40 23/14/40 20/11/40
