# Blender v3.2.2 OBJ File: 'LVL_10.blend'
# www.blender.org
mtllib FrontBody.mtl
o FrontBody_Cube.005
v 15.114164 0.806490 0.000000
v 15.114164 -0.795382 0.000000
v 14.640028 0.806490 1.168153
v 14.640028 -0.795382 -1.168153
v 14.640028 0.806490 -1.168153
v 14.640028 -0.795382 1.168153
v 14.163700 0.806490 -1.158082
v 14.163700 -0.795382 1.158082
v 14.163700 0.806490 1.158082
v 14.163700 -0.795382 -1.158082
v 14.055761 0.806490 -0.854796
v 14.055761 -0.795382 0.854796
v 14.055761 0.806490 0.854796
v 14.055761 -0.795382 -0.854796
v 14.963690 0.806490 -0.427398
v 14.963690 -0.795382 0.427398
v 14.963690 0.806490 0.427398
v 14.963690 -0.795382 -0.427398
v 2.836768 -0.384575 2.723322
v 2.836768 -1.103348 0.363620
v 2.836769 -0.685096 2.407182
v 2.836768 -1.115602 1.703404
v 2.836768 0.384575 -2.723322
v 2.836769 0.896151 -2.407182
v 3.080381 1.316497 -1.703404
v 2.836768 -1.103348 -0.363620
v 2.836768 -0.384575 -2.723322
v 2.836768 -1.022614 -1.703405
v 2.836768 -0.685096 -2.407182
v 2.836768 0.384575 2.723322
v 3.080381 1.316497 1.703405
v 2.836768 0.896151 2.407182
v 8.767934 1.048099 -1.022604
v 8.767934 0.869372 -1.700164
v 8.767934 -0.673712 -1.700164
v 8.767934 -0.874665 -1.023174
v 8.767934 0.869415 1.700164
v 8.767934 1.048099 1.022667
v 8.767934 -0.874665 1.023094
v 8.767934 -0.673648 1.700164
v 3.399787 -1.392284 2.070566
v 3.400362 -1.207711 3.035631
v 3.402290 1.567488 -2.069976
v 3.400841 1.384593 -3.110455
v 3.325945 1.404141 -3.056996
v 3.283977 1.425141 -2.961336
v 3.338871 1.535361 -2.826182
v 3.279752 -1.279823 -2.953032
v 3.350929 -1.392284 -2.070358
v 3.368122 1.384468 3.110455
v 3.367874 1.567488 2.069830
v 3.308167 1.535358 2.826158
v 3.253643 1.425117 2.961311
v 3.292780 1.404129 3.056993
v 14.075315 0.624736 -1.700165
v 14.419283 0.806490 -1.376115
v 14.418451 -0.795382 -1.376900
v 14.075315 -0.612038 -1.700165
v 14.419199 0.806490 1.376194
v 14.075315 0.624769 1.700165
v 14.075315 -0.611989 1.700165
v 14.418564 -0.795382 1.376792
v 4.770910 -0.940679 2.980797
v 4.771151 1.126982 -3.033303
v 4.710606 -0.976767 -2.934129
v 4.754790 1.126942 3.027935
vt 0.397338 0.753906
vt 0.602860 0.753906
vt 0.609541 0.757812
vt 0.390590 0.757812
vt 0.543021 0.781250
vt 0.456978 0.781250
vt 0.356029 0.750487
vt 0.607262 0.757329
vt 0.613679 0.761049
vt 0.625000 0.726074
vt 0.625000 0.711940
vt 0.625000 0.687500
vt 0.625000 0.656250
vt 0.625000 0.640625
vt 0.625000 0.632812
vt 0.625000 0.625000
vt 0.625000 0.617188
vt 0.625000 0.609375
vt 0.625000 0.593750
vt 0.625000 0.562500
vt 0.625000 0.538069
vt 0.625000 0.523932
vt 0.343750 0.514511
vt 0.343750 0.500000
vt 0.339370 0.503181
vt 0.343750 0.750000
vt 0.343750 0.735489
vt 0.339044 0.750000
vt 0.404086 0.750000
vt 0.403622 0.750000
vt 0.596639 0.750000
vt 0.596179 0.750000
vt 0.375000 0.523876
vt 0.375000 0.537977
vt 0.375000 0.562500
vt 0.375000 0.593750
vt 0.375000 0.609375
vt 0.375000 0.617188
vt 0.375000 0.625000
vt 0.375000 0.632812
vt 0.375000 0.640625
vt 0.375000 0.656250
vt 0.375000 0.687500
vt 0.375000 0.712011
vt 0.375000 0.726116
vt 0.584011 0.468750
vt 0.614017 0.468750
vt 0.622781 0.464274
vt 0.616309 0.464330
vt 0.343750 0.695845
vt 0.343750 0.641690
vt 0.339257 0.739218
vt 0.397339 0.496094
vt 0.602863 0.496094
vt 0.596174 0.500000
vt 0.404078 0.500000
vt 0.632812 0.513175
vt 0.632812 0.736817
vt 0.367188 0.513154
vt 0.367188 0.736857
vt 0.622781 0.785726
vt 0.625000 0.769789
vt 0.625000 0.480201
vt 0.631314 0.470587
vt 0.656250 0.500000
vt 0.614017 0.781250
vt 0.338141 0.736857
vt 0.338727 0.738687
vt 0.343750 0.608310
vt 0.338727 0.511313
vt 0.338141 0.513154
vt 0.339370 0.746820
vt 0.339044 0.500000
vt 0.543022 0.468750
vt 0.613680 0.463915
vt 0.607274 0.465418
vt 0.584011 0.781250
vt 0.616307 0.785670
vt 0.343750 0.554155
vt 0.339258 0.510784
vt 0.613679 0.786085
vt 0.403614 0.500000
vt 0.596634 0.500000
vt 0.625000 0.493001
vt 0.609552 0.492188
vt 0.612181 0.492357
vt 0.616147 0.492690
vt 0.625000 0.492995
vt 0.622637 0.758488
vt 0.620794 0.759015
vt 0.614387 0.760847
vt 0.375000 0.750000
vt 0.371432 0.750000
vt 0.367864 0.750000
vt 0.625000 0.500000
vt 0.367864 0.500000
vt 0.371432 0.500000
vt 0.375000 0.500000
vt 0.625000 0.750000
vt 0.625000 0.757000
vt 0.390600 0.492187
vn 0.0498 -0.0256 0.9984
vn -0.5375 -0.0232 0.8429
vn 0.0413 0.9991 0.0000
vn -0.8766 -0.3487 -0.3315
vn -0.8214 -0.4133 0.3929
vn -0.0000 0.0000 1.0000
vn 0.0136 -0.9999 -0.0000
vn -0.8088 0.5825 -0.0806
vn -0.1404 -0.9901 -0.0091
vn 0.3037 -0.0309 -0.9523
vn 0.9432 0.0000 0.3321
vn 0.9421 0.0000 0.3353
vn 0.9432 0.0000 -0.3321
vn 0.6857 0.0000 0.7279
vn 0.0211 0.0000 -0.9998
vn 0.9421 0.0000 -0.3353
vn 0.0211 0.0000 0.9998
vn 0.4259 0.0000 -0.9048
vn 0.4259 0.0000 0.9048
vn 0.0960 0.9954 0.0005
vn 0.0955 -0.9954 -0.0008
vn -0.6336 0.7737 -0.0024
vn -0.5475 -0.8366 0.0181
vn -0.8083 -0.5022 0.3072
vn -0.5236 -0.0192 -0.8517
vn -0.8587 0.2694 -0.4359
vn -0.8229 0.5645 0.0646
vn -0.5996 -0.7988 -0.0481
vn -0.8674 -0.4486 -0.2152
vn -0.8739 0.2555 0.4135
vn 0.6857 0.0000 -0.7279
vn 0.6958 0.6894 -0.2015
vn 0.7069 0.6789 0.1982
vn 0.1522 -0.9547 0.2556
vn 0.1483 0.9608 -0.2343
vn 0.1521 -0.9585 -0.2412
vn 0.1473 0.9610 0.2342
vn 0.0304 0.9371 -0.3477
vn 0.0004 -0.9334 -0.3588
vn 0.0304 0.9371 0.3477
vn 0.0004 -0.9334 0.3588
vn -0.0000 0.0000 -1.0000
vn 0.0351 -0.0550 -0.9979
vn 0.3096 -0.0110 0.9508
usemtl Material
s off
f 63/1/1 66/2/1 50/3/1 42/4/1
f 30/5/2 19/6/2 42/7/2 50/8/2 54/9/2
f 38/10/3 59/11/3 3/12/3 9/13/3 13/14/3 17/15/3 1/16/3 15/17/3 11/18/3 7/19/3 5/20/3 56/21/3 33/22/3
f 29/23/4 27/24/4 48/25/4
f 19/26/5 21/27/5 42/28/5
f 40/29/6 61/30/6 60/31/6 37/32/6
f 36/33/7 57/34/7 4/35/7 10/36/7 14/37/7 18/38/7 2/39/7 16/40/7 12/41/7 8/42/7 6/43/7 62/44/7 39/45/7
f 24/46/8 25/47/8 47/48/8 46/49/8
f 22/50/9 20/51/9 42/52/9
f 65/53/10 64/54/10 34/55/10 35/56/10
f 2/39/11 1/16/11 17/15/11 16/40/11
f 10/36/12 7/19/12 11/18/12 14/37/12
f 18/38/13 15/17/13 1/16/13 2/39/13
f 6/43/14 3/12/14 59/11/14 60/31/14 61/30/14 62/44/14
f 8/42/15 9/13/15 3/12/15 6/43/15
f 12/41/16 13/14/16 9/13/16 8/42/16
f 4/35/17 5/20/17 7/19/17 10/36/17
f 14/37/18 11/18/18 15/17/18 18/38/18
f 16/40/19 17/15/19 13/14/19 12/41/19
f 33/22/20 43/57/20 51/58/20 38/10/20
f 49/59/21 36/33/21 39/45/21 41/60/21
f 52/61/22 51/62/22 43/63/22 47/64/22 25/65/22 31/66/22
f 41/67/23 42/68/23 20/51/23 26/69/23 48/70/23 49/71/23
f 21/27/24 22/50/24 42/72/24
f 48/73/25 27/24/25 23/74/25 45/75/25 44/76/25
f 23/74/26 24/46/26 46/49/26 45/75/26
f 31/66/27 32/77/27 53/78/27 52/61/27
f 26/69/28 28/79/28 48/70/28
f 28/79/29 29/23/29 48/80/29
f 32/77/30 30/5/30 54/81/30 53/78/30
f 57/34/31 58/82/31 55/83/31 56/21/31 5/20/31 4/35/31
f 43/84/32 44/85/32 45/86/32 46/87/32 47/88/32
f 50/8/33 51/89/33 52/90/33 53/91/33 54/9/33
f 41/60/34 39/45/34 40/92/34 63/93/34 42/94/34
f 43/84/35 33/95/35 34/55/35 64/54/35 44/85/35
f 36/33/36 49/59/36 48/96/36 65/97/36 35/98/36
f 38/99/37 51/100/37 50/3/37 66/2/37 37/32/37
f 33/22/38 56/21/38 55/83/38 34/55/38
f 35/56/39 58/82/39 57/34/39 36/33/39
f 37/32/40 60/31/40 59/11/40 38/10/40
f 39/45/41 62/44/41 61/30/41 40/29/41
f 34/55/42 55/83/42 58/82/42 35/56/42
f 48/101/43 44/85/43 64/54/43 65/53/43
f 40/29/44 37/32/44 66/2/44 63/1/44
