# Blender v3.2.2 OBJ File: 'LVL_10.blend'
# www.blender.org
mtllib MiddleBody.mtl
o MiddleBody_Cube
v -7.553301 1.673030 -2.040390
v -7.553301 0.344172 -3.787373
v -7.553301 1.181642 -3.083871
v -7.553301 0.802003 -3.521286
v -7.553301 -0.344172 -3.787373
v -7.553301 -1.252152 -2.040390
v -7.553301 -0.672086 -3.521286
v -7.553301 -1.057364 -3.083871
v -7.553301 0.344172 3.787373
v -7.553301 1.673030 2.040390
v -7.553301 0.802003 3.521286
v -7.553301 1.181642 3.083871
v -7.553301 -1.252152 2.040390
v -7.553301 -0.344172 3.787373
v -7.553301 -1.057364 3.083871
v -7.553301 -0.672086 3.521286
v -3.293326 -1.252152 -3.508694
v -3.293326 -0.344172 -5.103705
v -3.293326 -1.057364 -4.525509
v -3.293326 -0.672086 -4.834925
v -3.293326 1.673030 3.508694
v -3.293326 0.344172 5.103705
v -3.293326 1.181642 4.525509
v -3.293326 0.802003 4.834925
v -3.293326 -1.252152 3.508694
v -3.293326 -0.344172 5.103705
v -3.293326 -1.057364 4.525509
v -3.293326 -0.672086 4.834925
v -3.293326 1.673030 -3.508694
v -3.293326 0.344172 -5.103705
v -3.293326 1.181642 -4.525509
v -3.293326 0.802003 -4.834925
v -1.440475 -1.252152 3.208323
v -1.440475 -0.344172 4.849819
v -1.440475 -1.057364 4.239089
v -1.440475 -0.672086 4.579528
v -1.679319 1.673030 -3.208323
v -1.440475 0.344172 -4.849819
v -1.679319 1.181642 -4.239089
v -1.440475 0.802003 -4.579528
v -1.440475 -0.344172 -4.849819
v -1.440475 -1.252152 -3.208323
v -1.440475 -0.672086 -4.579528
v -1.440475 -1.057364 -4.239089
v -1.440475 0.344172 4.849819
v -1.679319 1.673030 3.208323
v -1.440475 0.802003 4.579528
v -1.679319 1.181642 4.239089
v 3.389443 -0.344172 2.437215
v 3.389443 -1.046397 0.325419
v 3.389443 -0.672086 2.154288
v 3.389443 -1.057364 1.524448
v 3.389443 0.344172 -2.437215
v 3.150598 1.299771 -0.325419
v 3.389443 0.802003 -2.154288
v 3.590743 1.260500 -1.524448
v 3.389443 -1.046397 -0.325419
v 3.389443 -0.344172 -2.437215
v 3.389443 -1.057364 -1.524448
v 3.389443 -0.672086 -2.154288
v 3.150599 1.299771 0.325419
v 3.389443 0.344172 2.437215
v 3.590743 1.260500 1.524448
v 3.389443 0.802003 2.154288
v -5.339239 -0.344172 -4.582068
v -5.339239 -1.252152 -2.931492
v -5.339239 -0.672086 -4.314906
v -5.339239 -1.057364 -3.956484
v -5.339239 0.344172 4.582068
v -5.339239 1.673030 2.931492
v -5.339239 0.802003 4.314906
v -5.339239 1.181642 3.956484
v -5.339239 -0.344172 4.582068
v -5.339239 -1.252152 2.931492
v -5.339239 -0.672086 4.314906
v -5.339239 -1.057364 3.956484
v -5.339239 0.344172 -4.582068
v -5.339239 1.673030 -2.931492
v -5.339239 0.802003 -4.314906
v -5.339239 1.181642 -3.956484
vt 0.543022 0.937500
vt 0.543022 1.000000
vt 0.456978 1.000000
vt 0.456978 0.937500
vt 0.456978 0.875000
vt 0.543022 0.875000
vt 0.456978 0.812500
vt 0.543022 0.812500
vt 0.456978 0.437500
vt 0.543022 0.437500
vt 0.543022 0.468750
vt 0.456979 0.468750
vt 0.343750 0.608310
vt 0.343750 0.641690
vt 0.312500 0.698001
vt 0.312500 0.551999
vt 0.456978 0.375000
vt 0.543022 0.375000
vt 0.375000 0.065550
vt 0.385983 0.032775
vt 0.415989 0.008782
vt 0.456978 0.000000
vt 0.543022 0.000000
vt 0.584011 0.008782
vt 0.614017 0.032775
vt 0.625000 0.065550
vt 0.625000 0.184450
vt 0.614017 0.217225
vt 0.584011 0.241218
vt 0.543022 0.250000
vt 0.456978 0.250000
vt 0.415989 0.241218
vt 0.385983 0.217225
vt 0.375000 0.184450
vt 0.456978 0.781250
vt 0.543021 0.781250
vt 0.656250 0.500000
vt 0.656250 0.608310
vt 0.656250 0.641690
vt 0.656250 0.750000
vt 0.187500 0.554400
vt 0.125000 0.565550
vt 0.125000 0.532775
vt 0.187500 0.527200
vt 0.125000 0.500000
vt 0.175100 0.500000
vt 0.375000 0.300100
vt 0.375000 0.250000
vt 0.456978 0.312500
vt 0.812500 0.695600
vt 0.875000 0.684450
vt 0.875000 0.750000
vt 0.858776 0.750000
vt 0.625000 0.983776
vt 0.625000 1.000000
vt 0.584011 1.012350
vt 0.584011 0.949900
vt 0.250000 0.549136
vt 0.250000 0.524568
vt 0.312500 0.525999
vt 0.284283 0.500000
vt 0.312500 0.500000
vt 0.375000 0.437500
vt 0.375000 0.409283
vt 0.687500 0.698001
vt 0.750000 0.700864
vt 0.687500 0.750000
vt 0.687500 0.750000
vt 0.625000 0.812500
vt 0.625000 0.812500
vt 0.584011 0.840717
vt 0.584011 0.778025
vt 0.187500 0.695600
vt 0.250000 0.700864
vt 0.250000 0.725432
vt 0.187500 0.722800
vt 0.224615 0.750000
vt 0.187500 0.750000
vt 0.375000 0.937500
vt 0.375000 0.900385
vt 0.812500 0.554400
vt 0.750000 0.549136
vt 0.812500 0.500000
vt 0.812500 0.500000
vt 0.625000 0.312500
vt 0.625000 0.312500
vt 0.584011 0.349615
vt 0.584011 0.287268
vt 0.543022 0.312500
vt 0.312500 0.724001
vt 0.312500 0.750000
vt 0.284283 0.750000
vt 0.375000 0.840717
vt 0.375000 0.812500
vt 0.687500 0.551999
vt 0.687500 0.500000
vt 0.687500 0.500000
vt 0.625000 0.437500
vt 0.625000 0.437500
vt 0.584011 0.471975
vt 0.584011 0.409283
vt 0.343750 0.554155
vt 0.315772 0.500000
vt 0.343750 0.500000
vt 0.375000 0.468750
vt 0.375000 0.440772
vt 0.675289 0.750000
vt 0.625000 0.781250
vt 0.625000 0.800289
vt 0.584011 0.809228
vt 0.584011 0.777825
vt 0.343750 0.695845
vt 0.343750 0.750000
vt 0.315772 0.750000
vt 0.375000 0.809228
vt 0.375000 0.781250
vt 0.675289 0.500000
vt 0.625000 0.449711
vt 0.625000 0.468750
vt 0.584011 0.472175
vt 0.584011 0.440772
vt 0.187500 0.500000
vt 0.224615 0.500000
vt 0.375000 0.349615
vt 0.375000 0.312500
vt 0.812500 0.750000
vt 0.812500 0.750000
vt 0.625000 0.937500
vt 0.625000 0.937500
vt 0.584011 0.962732
vt 0.584011 0.900385
vt 0.125000 0.684450
vt 0.125000 0.717225
vt 0.175100 0.750000
vt 0.125000 0.750000
vt 0.375000 1.000000
vt 0.375000 0.949900
vt 0.875000 0.565550
vt 0.858776 0.500000
vt 0.875000 0.500000
vt 0.625000 0.250000
vt 0.625000 0.266224
vt 0.584011 0.300100
vt 0.584011 0.237650
vn -0.2952 0.0000 0.9554
vn 0.1358 0.0000 0.9907
vn 0.4469 0.0000 -0.8946
vn 0.0426 -0.9991 0.0000
vn 0.1358 0.0000 -0.9907
vn -1.0000 0.0000 0.0000
vn 0.4469 0.0000 0.8946
vn 0.0889 0.9960 0.0000
vn -0.0735 -0.9801 -0.1846
vn -0.2532 -0.6950 -0.6729
vn -0.2681 -0.6078 -0.7475
vn -0.1685 0.8903 0.4230
vn -0.2514 0.7003 0.6681
vn -0.2961 0.4807 0.8254
vn 0.0296 -0.9819 -0.1868
vn 0.1111 -0.6407 -0.7597
vn 0.1056 -0.6314 -0.7682
vn 0.0784 0.8988 0.4314
vn 0.1151 0.6666 0.7365
vn 0.1176 0.5038 0.8558
vn -0.0524 -0.9809 0.1872
vn -0.1972 -0.6421 0.7408
vn -0.1934 -0.6208 0.7597
vn -0.1206 0.8945 -0.4305
vn -0.1960 0.6476 -0.7363
vn -0.2146 0.4934 -0.8429
vn 0.0296 -0.9819 0.1868
vn 0.1111 -0.6407 0.7597
vn 0.1056 -0.6314 0.7682
vn 0.0784 0.8988 -0.4314
vn 0.1151 0.6666 -0.7365
vn 0.1176 0.5038 -0.8558
vn 0.0687 -0.9943 -0.0820
vn 0.3142 -0.7434 -0.5904
vn 0.3575 -0.6022 -0.7139
vn 0.1407 0.9691 0.2029
vn 0.3074 0.7260 0.6152
vn 0.3940 0.4753 0.7867
vn 0.0687 -0.9943 0.0820
vn 0.3142 -0.7434 0.5904
vn 0.3575 -0.6022 0.7139
vn 0.1407 0.9691 -0.2029
vn 0.3074 0.7260 -0.6152
vn 0.3940 0.4753 -0.7867
vn -0.0524 -0.9809 -0.1872
vn -0.1972 -0.6421 -0.7408
vn -0.1934 -0.6208 -0.7597
vn -0.1206 0.8945 0.4305
vn -0.1960 0.6476 0.7363
vn -0.2146 0.4934 0.8429
vn -0.0735 -0.9801 0.1846
vn -0.2532 -0.6950 0.6729
vn -0.2681 -0.6078 0.7475
vn -0.1685 0.8903 -0.4230
vn -0.2514 0.7003 -0.6681
vn -0.2961 0.4807 -0.8254
vn -0.2952 0.0000 -0.9554
vn 0.0771 0.9970 -0.0000
vn 0.0000 -1.0000 0.0000
vn 0.0000 1.0000 0.0000
usemtl Material
s off
f 69/1/1 9/2/1 14/3/1 73/4/1 26/5/1 22/6/1
f 34/7/2 45/8/2 22/6/2 26/5/2
f 41/9/3 38/10/3 53/11/3 58/12/3
f 57/13/4 50/14/4 33/15/4 42/16/4
f 18/17/5 30/18/5 38/10/5 41/9/5
f 13/19/6 15/20/6 16/21/6 14/22/6 9/23/6 11/24/6 12/25/6 10/26/6 1/27/6 3/28/6 4/29/6 2/30/6 5/31/6 7/32/6 8/33/6 6/34/6
f 49/35/7 62/36/7 45/8/7 34/7/7
f 56/37/8 54/38/8 61/39/8 63/40/8
f 66/41/9 6/42/9 8/43/9 68/44/9
f 68/44/10 8/43/10 7/45/10 67/46/10
f 67/47/11 7/48/11 5/31/11 65/49/11
f 70/50/12 10/51/12 12/52/12 72/53/12
f 72/54/13 12/55/13 11/56/13 71/57/13
f 71/57/14 11/56/14 9/2/14 69/1/14
f 42/16/15 17/58/15 19/59/15 44/60/15
f 44/60/16 19/59/16 20/61/16 43/62/16
f 43/63/17 20/64/17 18/17/17 41/9/17
f 46/65/18 21/66/18 23/67/18 48/68/18
f 48/69/19 23/70/19 24/71/19 47/72/19
f 47/72/20 24/71/20 22/6/20 45/8/20
f 74/73/21 25/74/21 27/75/21 76/76/21
f 76/76/22 27/75/22 28/77/22 75/78/22
f 75/79/23 28/80/23 26/5/23 73/4/23
f 78/81/24 29/82/24 31/83/24 80/84/24
f 80/85/25 31/86/25 32/87/25 79/88/25
f 79/88/26 32/87/26 30/18/26 77/89/26
f 25/74/27 33/15/27 35/90/27 27/75/27
f 27/75/28 35/90/28 36/91/28 28/92/28
f 28/93/29 36/94/29 34/7/29 26/5/29
f 29/82/30 37/95/30 39/96/30 31/97/30
f 31/98/31 39/99/31 40/100/31 32/101/31
f 32/101/32 40/100/32 38/10/32 30/18/32
f 57/13/33 42/16/33 44/60/33 59/102/33
f 59/102/34 44/60/34 43/103/34 60/104/34
f 60/105/35 43/106/35 41/9/35 58/12/35
f 61/39/36 46/65/36 48/107/36 63/40/36
f 63/108/37 48/109/37 47/110/37 64/111/37
f 64/111/38 47/110/38 45/8/38 62/36/38
f 33/15/39 50/14/39 52/112/39 35/90/39
f 35/90/40 52/112/40 51/113/40 36/114/40
f 36/115/41 51/116/41 49/35/41 34/7/41
f 37/95/42 54/38/42 56/37/42 39/117/42
f 39/118/43 56/119/43 55/120/43 40/121/43
f 40/121/44 55/120/44 53/11/44 38/10/44
f 17/58/45 66/41/45 68/44/45 19/59/45
f 19/59/46 68/44/46 67/122/46 20/123/46
f 20/124/47 67/125/47 65/49/47 18/17/47
f 21/66/48 70/50/48 72/126/48 23/127/48
f 23/128/49 72/129/49 71/130/49 24/131/49
f 24/131/50 71/130/50 69/1/50 22/6/50
f 13/132/51 74/73/51 76/76/51 15/133/51
f 15/133/52 76/76/52 75/134/52 16/135/52
f 16/136/53 75/137/53 73/4/53 14/3/53
f 1/138/54 78/81/54 80/139/54 3/140/54
f 3/141/55 80/142/55 79/143/55 4/144/55
f 4/144/56 79/143/56 77/89/56 2/30/56
f 77/89/57 30/18/57 18/17/57 65/49/57 5/31/57 2/30/57
f 61/39/58 54/38/58 37/95/58 46/65/58
f 66/41/59 17/58/59 42/16/59 33/15/59 25/74/59 74/73/59 13/132/59 6/34/59
f 70/50/60 21/66/60 46/65/60 37/95/60 29/82/60 78/81/60 1/138/60 10/26/60
